<?xml version="1.0" encoding="utf-8"?>
<!-- Generator: Adobe Illustrator 26.0.0, SVG Export Plug-In . SVG Version: 6.00 Build 0)  -->
<svg version="1.1" xmlns="http://www.w3.org/2000/svg" xmlns:xlink="http://www.w3.org/1999/xlink" x="0px" y="0px"
	 viewBox="0 0 192 192" style="enable-background:new 0 0 192 192;" xml:space="preserve">
<style type="text/css">
	.st0{display:none;}
	.st1{display:inline;}
	.st2{fill:#6E55FF;stroke:#000000;}
	.st3{font-family:'CWDangamAsac-Bold';}
	.st4{font-size:87.2275px;}
	.st5{fill:#FFD13E;stroke:#000000;}
	.st6{fill:#FF7DE3;stroke:#000000;}
	.st7{fill:#7BE6FF;stroke:#000000;}
</style>
<g id="Layer_1_copy" class="st0">
	<text transform="matrix(1.1988 0 0 1 17.7384 91.6479)" class="st1"><tspan x="0" y="0" class="st2 st3 st4">E</tspan><tspan x="60.2" y="0" class="st5 st3 st4">J</tspan><tspan x="0" y="74.8" class="st6 st3 st4">P</tspan><tspan x="66.8" y="74.8" class="st7 st3 st4">F</tspan></text>
</g>
<g id="Layer_1">
	<g>
		<path class="st2" d="M86.1,95.6H21.5V27.4h64.6v20.5H52.9v3.1h33.3V72H52.9v3.1h33.3V95.6z"/>
		<path class="st5" d="M131.5,27.4h39v34.1c0,5.9-1,11-3,15.4c-2,4.4-4.7,8.1-8.2,11.1c-3.5,3-7.7,5.2-12.5,6.7
			c-4.8,1.5-10.1,2.2-15.7,2.2c-6.3,0-11.9-0.8-16.7-2.5c-4.8-1.7-8.8-3.8-12-6.5c-3.2-2.6-5.7-5.6-7.3-8.9c-1.6-3.3-2.5-6.7-2.5-10
			V56.7h35.2v15.6h3.7V27.4z"/>
		<path class="st6" d="M53.6,102.1c7.5,0,13.8,0.5,19.1,1.4c5.3,1,9.6,2.5,13,4.8c3.3,2.2,5.8,5.1,7.4,8.7c1.6,3.6,2.4,8,2.4,13.1
			c0,9.3-3.3,16.3-9.8,20.9c-6.5,4.7-16.1,6.7-28.6,6.2v13.1H21.5v-68.2H53.6z M46.3,129.1c1.5,0.8,3.3,1.5,5.6,2.1
			c2.3,0.6,4.7,1.1,7.2,1.5c2.5,0.4,5,0.7,7.5,0.9c2.5,0.2,4.7,0.3,6.7,0.3v-2.4c-2,0-4.1-0.1-6.5-0.3c-2.4-0.2-4.7-0.6-7.1-1
			c-2.3-0.4-4.5-0.9-6.6-1.4c-2.1-0.6-3.7-1.1-5-1.8L46.3,129.1z"/>
		<path class="st7" d="M133,170.3h-31.4v-68.2h64.6v22.2H133v3.1h33.3v22H133V170.3z"/>
	</g>
</g>
</svg>
