<?xml version="1.0" encoding="utf-8"?>
<!-- Generator: Adobe Illustrator 26.0.0, SVG Export Plug-In . SVG Version: 6.00 Build 0)  -->
<svg version="1.1" id="Layer_1" xmlns="http://www.w3.org/2000/svg" xmlns:xlink="http://www.w3.org/1999/xlink" x="0px" y="0px"
	 viewBox="0 0 5760.2 3240.9" style="enable-background:new 0 0 5760.2 3240.9;" xml:space="preserve">
<style type="text/css">
	.st0{fill:#F0F3F9;stroke:#000000;stroke-width:0.5;stroke-miterlimit:10;}
	.st1{stroke:#000000;stroke-width:0.5;stroke-miterlimit:10;}
	.st2{fill:#F0F3F9;stroke:#000000;stroke-width:0.5;stroke-linecap:square;stroke-linejoin:round;stroke-miterlimit:10;}
</style>
<rect x="0.2" y="0.3" class="st0" width="5759.6" height="3240.4"/>
<rect x="534" y="300.5" class="st0" width="4692.4" height="2640"/>
<rect x="900.6" y="506.8" class="st0" width="3959.1" height="2227.3"/>
<rect x="1168.1" y="657.2" class="st0" width="3423.9" height="1926.2"/>
<rect x="1372.2" y="771.9" class="st0" width="3016.4" height="1696.8"/>
<rect x="1532.7" y="862.2" class="st0" width="2695.4" height="1517.3"/>
<rect x="1662.3" y="935.2" class="st0" width="2436.2" height="1370.4"/>
<rect x="1769.1" y="995.2" class="st0" width="2222.9" height="1250.2"/>
<rect x="1858.8" y="1045.7" class="st0" width="2043.5" height="1149.2"/>
<rect x="1935.1" y="1088.5" class="st0" width="1890.9" height="1063.5"/>
<rect x="2000.8" y="1125.5" class="st0" width="1759.8" height="989.6"/>
<rect x="2057.8" y="1157.6" class="st0" width="1645.3" height="925.4"/>
<rect x="2108" y="1185.8" class="st0" width="1545.1" height="868.9"/>
<rect x="2152.4" y="1211.1" class="st0" width="1455.7" height="818.7"/>
<rect x="2191.9" y="1233" class="st0" width="1377.2" height="774.5"/>
<rect x="2227.5" y="1253" class="st0" width="1306.2" height="734.6"/>
<rect x="2259.5" y="1271" class="st0" width="1242.2" height="698.5"/>
<rect x="2288.5" y="1287.3" class="st0" width="1184.2" height="665.9"/>
<rect x="2315" y="1302.2" class="st0" width="1130.8" height="636.2"/>
<rect x="2339.1" y="1315.8" class="st0" width="1082.8" height="609.4"/>
<rect x="2361.3" y="1328.2" class="st0" width="1038.7" height="584"/>
<rect x="2381.7" y="1339.7" class="st0" width="997.9" height="561.1"/>
<rect x="2400.6" y="1350.4" class="st1" width="960.1" height="539.8"/>
<line class="st2" x1="2400.6" y1="1350.4" x2="-0.1" y2="0.1"/>
<line class="st0" x1="0.2" y1="3240.6" x2="2400.6" y2="1890.1"/>
<line class="st0" x1="5759.9" y1="3240.6" x2="3360.7" y2="1890.1"/>
<line class="st0" x1="5759.9" y1="0.3" x2="3360.7" y2="1350.4"/>
<line class="st0" x1="0.2" y1="2602.2" x2="2400.6" y2="1783.8"/>
<line class="st0" x1="5760.5" y1="2602.1" x2="3360.7" y2="1783.8"/>
<line class="st0" x1="0.2" y1="1963.8" x2="2400.6" y2="1677.4"/>
<line class="st0" x1="0.2" y1="1325.4" x2="2400.6" y2="1571.1"/>
<line class="st0" x1="0.2" y1="687.1" x2="2400.6" y2="1464.8"/>
<line class="st0" x1="5759.9" y1="1963.3" x2="3360.7" y2="1677.1"/>
<line class="st0" x1="5759.9" y1="1325" x2="3360.7" y2="1570.6"/>
<line class="st0" x1="5759.9" y1="686.6" x2="3360.7" y2="1463.9"/>
<line class="st0" x1="559.2" y1="3240.9" x2="2494.2" y2="1890.1"/>
<line class="st0" x1="1139.6" y1="3240.9" x2="2590.9" y2="1890.1"/>
<line class="st0" x1="1720.4" y1="3240.6" x2="2687.2" y2="1889.6"/>
<line class="st0" x1="2300.5" y1="3240.6" x2="2784.2" y2="1890.1"/>
<line class="st0" x1="5211.1" y1="3241.1" x2="3276.1" y2="1890.4"/>
<line class="st0" x1="4630.7" y1="3241.1" x2="3179.4" y2="1890.4"/>
<line class="st0" x1="4049.9" y1="3240.9" x2="3083.1" y2="1889.9"/>
<line class="st0" x1="3469.8" y1="3240.9" x2="2986.1" y2="1890.4"/>
<line class="st0" x1="2880.8" y1="1890.4" x2="2880.8" y2="3240.6"/>
<line class="st0" x1="559.1" y1="-0.2" x2="2494.1" y2="1350.6"/>
<line class="st0" x1="1139.5" y1="-0.2" x2="2590.8" y2="1350.6"/>
<line class="st0" x1="1720.3" y1="0.1" x2="2687.1" y2="1351.1"/>
<line class="st0" x1="2300.4" y1="0.1" x2="2784.1" y2="1350.6"/>
<line class="st0" x1="5211" y1="-0.4" x2="3276" y2="1350.3"/>
<line class="st0" x1="4630.6" y1="-0.4" x2="3179.3" y2="1350.3"/>
<line class="st0" x1="4049.8" y1="-0.2" x2="3083" y2="1350.8"/>
<line class="st0" x1="3469.7" y1="-0.2" x2="2986" y2="1350.3"/>
<line class="st0" x1="2880.7" y1="1350.3" x2="2880.7" y2="0.1"/>
</svg>
