<svg width="364" height="364" viewBox="0 0 364 364" fill="none" xmlns="http://www.w3.org/2000/svg">
<rect width="364" height="364" rx="50" fill="white"/>
<g clip-path="url(#clip0_234_574)">
<mask id="mask0_234_574" style="mask-type:luminance" maskUnits="userSpaceOnUse" x="65" y="72" width="219" height="219">
<path fill-rule="evenodd" clip-rule="evenodd" d="M220.297 289.505C222.04 290.184 223.903 290.498 225.773 290.426C227.642 290.354 229.476 289.898 231.161 289.087L276.25 267.392C278.572 266.273 280.531 264.523 281.902 262.34C283.273 260.158 284.001 257.633 284 255.056V107.945C284 102.684 280.987 97.8898 276.25 95.6091L231.161 73.9144C228.614 72.6887 225.748 72.2853 222.961 72.76C220.174 73.2346 217.603 74.5639 215.605 76.5638L129.288 155.311L91.69 126.772C89.9941 125.485 87.9009 124.831 85.7737 124.926C83.6465 125.021 81.6195 125.857 80.0445 127.29L67.9849 138.259C64.0087 141.875 64.0045 148.131 67.9755 151.753L100.582 181.5L67.9755 211.247C64.0045 214.87 64.0087 221.125 67.9849 224.742L80.0445 235.711C81.6194 237.144 83.6463 237.98 85.7735 238.075C87.9007 238.17 89.994 237.517 91.69 236.229L129.288 207.689L215.605 286.438C216.939 287.774 218.537 288.819 220.297 289.505ZM229.284 131.784L163.789 181.5L229.284 231.215V131.784Z" fill="white"/>
</mask>
<g mask="url(#mask0_234_574)">
<path d="M276.25 95.6435L231.126 73.9171C228.578 72.6902 225.711 72.2856 222.922 72.7595C220.134 73.2334 217.562 74.5623 215.562 76.5623L67.8437 211.247C63.87 214.87 63.8743 221.125 67.8531 224.742L79.9195 235.711C81.4959 237.144 83.524 237.981 85.6524 238.075C87.7808 238.17 89.8752 237.517 91.5727 236.229L269.46 101.279C275.427 96.753 283.999 101.009 283.999 108.499V107.976C283.999 105.399 283.272 102.875 281.901 100.693C280.53 98.5116 278.571 96.7613 276.25 95.6435Z" fill="#0065A9"/>
<g filter="url(#filter0_d_234_574)">
<path d="M276.25 267.356L231.126 289.083C228.578 290.309 225.711 290.714 222.923 290.24C220.134 289.766 217.562 288.437 215.562 286.438L67.8437 151.753C63.87 148.13 63.8743 141.875 67.8531 138.258L79.9195 127.289C81.496 125.856 83.5242 125.02 85.6526 124.925C87.781 124.83 89.8753 125.484 91.5727 126.771L269.46 261.72C275.427 266.247 283.999 261.991 283.999 254.5V255.024C283.999 257.601 283.272 260.125 281.901 262.307C280.53 264.488 278.571 266.239 276.25 267.356Z" fill="#007ACC"/>
</g>
<g filter="url(#filter1_d_234_574)">
<path d="M231.129 289.086C228.579 290.312 225.712 290.716 222.924 290.241C220.135 289.767 217.563 288.438 215.562 286.438C220.613 291.488 229.25 287.911 229.25 280.768V82.2321C229.25 75.089 220.613 71.5114 215.562 76.5621C217.563 74.5619 220.135 73.2326 222.924 72.758C225.712 72.2833 228.579 72.6868 231.129 73.9127L276.244 95.6108C278.567 96.7278 280.527 98.4779 281.899 100.66C283.271 102.842 284 105.367 284 107.944V255.055C284 257.632 283.272 260.158 281.9 262.34C280.528 264.522 278.567 266.273 276.244 267.39L231.129 289.085V289.086Z" fill="#1F9CF0"/>
</g>
<path opacity="0.25" fill-rule="evenodd" clip-rule="evenodd" d="M220.163 289.505C221.906 290.184 223.769 290.497 225.638 290.426C227.507 290.354 229.341 289.898 231.027 289.087L276.115 267.391C278.437 266.273 280.397 264.522 281.768 262.34C283.139 260.158 283.867 257.633 283.866 255.056V107.945C283.866 102.684 280.853 97.8898 276.116 95.6092L231.027 73.9145C228.479 72.6887 225.613 72.2851 222.826 72.7596C220.039 73.2341 217.468 74.5632 215.47 76.563L129.153 155.311L91.5553 126.772C89.8594 125.485 87.7662 124.831 85.639 124.926C83.5118 125.021 81.4849 125.857 79.9098 127.29L67.8512 138.258C63.8749 141.875 63.8707 148.13 67.8417 151.753L100.447 181.5L67.8417 211.247C63.8707 214.87 63.8749 221.125 67.8512 224.742L79.9107 235.711C81.4857 237.144 83.5128 237.981 85.6402 238.075C87.7676 238.17 89.861 237.517 91.5571 236.229L129.155 207.689L215.471 286.438C216.806 287.774 218.403 288.819 220.163 289.505ZM229.15 131.784L163.655 181.5L229.15 231.215V131.784Z" fill="url(#paint0_linear_234_574)"/>
</g>
</g>
<defs>
<filter id="filter0_d_234_574" x="43.5328" y="103.583" width="261.8" height="208.183" filterUnits="userSpaceOnUse" color-interpolation-filters="sRGB">
<feFlood flood-opacity="0" result="BackgroundImageFix"/>
<feColorMatrix in="SourceAlpha" type="matrix" values="0 0 0 0 0 0 0 0 0 0 0 0 0 0 0 0 0 0 127 0" result="hardAlpha"/>
<feOffset/>
<feGaussianBlur stdDeviation="10.6667"/>
<feColorMatrix type="matrix" values="0 0 0 0 0 0 0 0 0 0 0 0 0 0 0 0 0 0 0.25 0"/>
<feBlend mode="overlay" in2="BackgroundImageFix" result="effect1_dropShadow_234_574"/>
<feBlend mode="normal" in="SourceGraphic" in2="effect1_dropShadow_234_574" result="shape"/>
</filter>
<filter id="filter1_d_234_574" x="194.229" y="51.2311" width="111.104" height="260.537" filterUnits="userSpaceOnUse" color-interpolation-filters="sRGB">
<feFlood flood-opacity="0" result="BackgroundImageFix"/>
<feColorMatrix in="SourceAlpha" type="matrix" values="0 0 0 0 0 0 0 0 0 0 0 0 0 0 0 0 0 0 127 0" result="hardAlpha"/>
<feOffset/>
<feGaussianBlur stdDeviation="10.6667"/>
<feColorMatrix type="matrix" values="0 0 0 0 0 0 0 0 0 0 0 0 0 0 0 0 0 0 0.25 0"/>
<feBlend mode="overlay" in2="BackgroundImageFix" result="effect1_dropShadow_234_574"/>
<feBlend mode="normal" in="SourceGraphic" in2="effect1_dropShadow_234_574" result="shape"/>
</filter>
<linearGradient id="paint0_linear_234_574" x1="174.366" y1="72.5645" x2="174.366" y2="290.435" gradientUnits="userSpaceOnUse">
<stop stop-color="white"/>
<stop offset="1" stop-color="white" stop-opacity="0"/>
</linearGradient>
<clipPath id="clip0_234_574">
<rect width="219" height="219" fill="white" transform="translate(65 72)"/>
</clipPath>
</defs>
</svg>
