<svg width="364" height="364" viewBox="0 0 364 364" fill="none" xmlns="http://www.w3.org/2000/svg">
<rect width="364" height="364" rx="50" fill="white"/>
<path fill-rule="evenodd" clip-rule="evenodd" d="M182.5 50C110.399 50 52 108.399 52 180.5C52 238.246 89.3556 287.021 141.229 304.312C147.754 305.454 150.201 301.539 150.201 298.113C150.201 295.014 150.038 284.737 150.038 273.808C117.25 279.843 108.767 265.814 106.157 258.474C104.689 254.722 98.3275 243.14 92.7812 240.041C88.2137 237.594 81.6887 231.558 92.6181 231.395C102.895 231.232 110.236 240.856 112.682 244.771C124.427 264.509 143.187 258.963 150.691 255.538C151.833 247.055 155.258 241.346 159.01 238.083C129.974 234.821 99.6325 223.565 99.6325 173.649C99.6325 159.457 104.689 147.712 113.009 138.577C111.704 135.314 107.136 121.938 114.314 103.994C114.314 103.994 125.243 100.569 150.201 117.371C160.641 114.434 171.734 112.966 182.826 112.966C193.919 112.966 205.011 114.434 215.451 117.371C240.409 100.406 251.339 103.994 251.339 103.994C258.516 121.938 253.949 135.314 252.644 138.577C260.963 147.712 266.02 159.294 266.02 173.649C266.02 223.728 235.516 234.821 206.479 238.083C211.21 242.161 215.288 249.991 215.288 262.226C215.288 279.68 215.125 293.709 215.125 298.113C215.125 301.539 217.572 305.617 224.097 304.312C275.644 287.021 313 238.083 313 180.5C313 108.399 254.601 50 182.5 50Z" fill="#1B1F23"/>
</svg>
