<svg width="364" height="364" viewBox="0 0 364 364" fill="none" xmlns="http://www.w3.org/2000/svg">
<rect width="364" height="364" rx="50" fill="white"/>
<rect width="364" height="364" rx="50" fill="#E665A4"/>
<g clip-path="url(#clip0_234_571)">
<path d="M290.81 200.276C281.012 200.327 272.497 202.691 265.367 206.186C262.751 200.996 260.135 196.371 259.673 192.979C259.16 189.022 258.545 186.607 259.16 181.879C259.776 177.151 262.546 170.42 262.494 169.906C262.443 169.392 261.879 166.977 256.236 166.925C250.594 166.874 245.721 168.004 245.156 169.495C244.592 170.985 243.515 174.376 242.797 177.871C241.822 183.01 231.512 201.355 225.612 210.965C223.715 207.213 222.073 203.925 221.714 201.304C221.201 197.347 220.585 194.932 221.201 190.204C221.817 185.476 224.587 178.744 224.535 178.231C224.484 177.717 223.92 175.301 218.277 175.25C212.635 175.199 207.761 176.329 207.197 177.819C206.633 179.31 206.017 182.804 204.838 186.196C203.658 189.587 189.962 220.215 186.371 228.128C184.524 232.188 182.934 235.426 181.806 237.635C181.806 237.635 181.754 237.789 181.6 238.046C180.626 239.948 180.062 240.976 180.062 240.976C180.062 240.976 180.062 240.976 180.062 241.027C179.292 242.414 178.471 243.699 178.061 243.699C177.753 243.699 177.189 239.999 178.164 234.963C180.215 224.326 185.089 207.779 185.037 207.213C185.037 206.905 185.961 204.027 181.857 202.537C177.856 201.047 176.42 203.514 176.06 203.514C175.701 203.514 175.445 204.387 175.445 204.387C175.445 204.387 179.908 185.785 166.93 185.785C158.825 185.785 147.642 194.675 142.102 202.691C138.614 204.593 131.176 208.652 123.225 213.02C120.199 214.716 117.07 216.412 114.146 218.005C113.941 217.799 113.736 217.543 113.531 217.337C97.8339 200.533 68.8003 188.662 70.0314 166.103C70.4931 157.881 73.3144 136.298 125.79 110.09C168.982 88.7636 203.35 94.6733 209.3 107.777C217.815 126.483 190.885 161.221 146.257 166.257C129.227 168.158 120.302 161.581 118.045 159.114C115.685 156.545 115.326 156.391 114.454 156.904C113.018 157.675 113.941 159.988 114.454 161.324C115.788 164.818 121.276 170.985 130.561 174.017C138.768 176.689 158.722 178.179 182.883 168.826C209.916 158.343 231.05 129.206 224.843 104.797C218.636 80.0276 177.599 71.8569 138.768 85.6804C115.685 93.9025 90.6525 106.852 72.6475 123.708C51.257 143.749 47.8715 161.17 49.2565 168.467C54.2322 194.366 89.883 211.222 104.143 223.709C103.425 224.12 102.758 224.48 102.194 224.788C95.0639 228.334 67.877 242.569 61.1059 257.625C53.4115 274.686 62.337 286.917 68.2361 288.561C86.5488 293.648 105.374 284.501 115.48 269.393C125.585 254.285 124.354 234.655 119.686 225.662C119.635 225.559 119.583 225.456 119.481 225.354C121.328 224.274 123.225 223.144 125.072 222.065C128.714 219.906 132.305 217.902 135.383 216.258C133.639 221.037 132.356 226.741 131.741 234.963C130.971 244.624 134.921 257.163 140.102 262.096C142.41 264.254 145.129 264.306 146.873 264.306C152.926 264.306 155.645 259.27 158.671 253.309C162.364 246.012 165.699 237.533 165.699 237.533C165.699 237.533 161.544 260.452 172.829 260.452C176.932 260.452 181.087 255.107 182.934 252.384C182.934 252.435 182.934 252.435 182.934 252.435C182.934 252.435 183.037 252.281 183.242 251.921C183.652 251.253 183.909 250.842 183.909 250.842C183.909 250.842 183.909 250.791 183.909 250.739C185.55 247.862 189.244 241.335 194.732 230.492C201.811 216.515 208.633 199.043 208.633 199.043C208.633 199.043 209.249 203.308 211.352 210.4C212.583 214.562 215.148 219.136 217.2 223.555C215.558 225.867 214.533 227.152 214.533 227.152C214.533 227.152 214.533 227.152 214.584 227.203C213.25 228.951 211.814 230.852 210.224 232.702C204.632 239.383 197.964 247.039 197.041 249.249C195.963 251.87 196.22 253.771 198.272 255.313C199.759 256.443 202.427 256.598 205.145 256.443C210.172 256.084 213.712 254.85 215.456 254.08C218.175 253.103 221.355 251.613 224.33 249.403C229.819 245.344 233.153 239.537 232.845 231.88C232.691 227.666 231.306 223.452 229.614 219.495C230.127 218.776 230.588 218.056 231.101 217.337C239.77 204.644 246.49 190.718 246.49 190.718C246.49 190.718 247.106 194.983 249.209 202.075C250.235 205.672 252.338 209.577 254.184 213.38C246.028 220.009 241.001 227.717 239.206 232.753C235.974 242.106 238.488 246.32 243.258 247.296C245.413 247.759 248.491 246.731 250.748 245.755C253.62 244.83 257.006 243.237 260.237 240.873C265.726 236.813 271.01 231.16 270.702 223.504C270.548 220.009 269.625 216.566 268.342 213.226C275.267 210.348 284.193 208.755 295.58 210.091C319.997 212.969 324.819 228.231 323.896 234.655C322.973 241.078 317.843 244.573 316.15 245.652C314.457 246.731 313.893 247.091 314.047 247.862C314.252 248.992 315.073 248.941 316.509 248.735C318.51 248.375 329.333 243.545 329.795 231.726C330.564 216.618 316.201 200.122 290.81 200.276ZM102.451 263.895C94.3458 272.733 83.0606 276.074 78.1875 273.247C72.9553 270.215 75.0071 257.163 84.9586 247.81C91.0115 242.106 98.8085 236.813 103.989 233.576C105.169 232.856 106.913 231.828 109.016 230.544C109.376 230.338 109.581 230.235 109.581 230.235C109.991 229.978 110.401 229.722 110.812 229.465C114.454 242.826 110.966 254.593 102.451 263.895ZM161.441 223.709C158.62 230.595 152.721 248.221 149.13 247.245C146.052 246.423 144.154 233.062 148.514 219.855C150.72 213.226 155.388 205.312 158.107 202.229C162.518 197.296 167.391 195.651 168.571 197.655C170.059 200.276 163.185 219.392 161.441 223.709ZM210.121 247.039C208.941 247.656 207.813 248.067 207.3 247.759C206.941 247.553 207.813 246.731 207.813 246.731C207.813 246.731 213.917 240.153 216.328 237.173C217.713 235.426 219.354 233.37 221.098 231.058C221.098 231.263 221.098 231.52 221.098 231.726C221.098 239.588 213.507 244.881 210.121 247.039ZM247.67 238.458C246.798 237.841 246.952 235.785 249.876 229.362C251.004 226.844 253.671 222.63 258.237 218.57C258.75 220.215 259.109 221.808 259.058 223.298C259.006 233.216 251.927 236.916 247.67 238.458Z" fill="white"/>
</g>
<defs>
<clipPath id="clip0_234_571">
<rect width="281" height="211" fill="white" transform="translate(49 79)"/>
</clipPath>
</defs>
</svg>
