<svg width="364" height="364" viewBox="0 0 364 364" fill="none" xmlns="http://www.w3.org/2000/svg">
<rect width="364" height="364" rx="50" fill="#001E36"/>
<path d="M78 258.869V103.566C78 102.509 78.4528 101.906 79.5093 101.906C82.075 101.906 84.4898 101.906 87.9611 101.755C91.5833 101.604 95.3565 101.604 99.4315 101.453C103.506 101.302 107.883 101.302 112.562 101.151C117.241 101 121.769 101 126.296 101C138.672 101 148.935 102.509 157.387 105.679C164.933 108.244 171.876 112.47 177.611 118.055C182.441 122.884 186.214 128.77 188.629 135.26C190.893 141.599 192.1 148.089 192.1 154.881C192.1 167.86 189.081 178.576 183.044 187.028C177.007 195.48 168.556 201.819 158.745 205.441C148.482 209.214 137.163 210.572 124.787 210.572C121.165 210.572 118.75 210.572 117.241 210.421C115.731 210.27 113.619 210.27 110.751 210.27V258.718C110.902 259.774 110.147 260.68 109.091 260.831C108.94 260.831 108.789 260.831 108.487 260.831H79.8111C78.6037 260.831 78 260.227 78 258.869ZM110.902 131.034V181.745C113.015 181.896 114.977 182.047 116.788 182.047H124.787C130.673 182.047 136.559 181.142 142.144 179.331C146.973 177.972 151.199 175.105 154.519 171.331C157.689 167.558 159.198 162.427 159.198 155.786C159.349 151.107 158.142 146.429 155.727 142.354C153.161 138.43 149.539 135.411 145.162 133.751C139.578 131.487 133.541 130.581 127.353 130.732C123.429 130.732 119.957 130.732 117.09 130.883C114.071 130.732 111.958 130.883 110.902 131.034Z" fill="#31A8FF"/>
<path d="M286.277 172.538C281.75 170.124 276.92 168.463 271.789 167.407C266.204 166.2 260.62 165.445 254.885 165.445C251.866 165.294 248.697 165.747 245.829 166.501C243.867 166.954 242.207 168.011 241.151 169.52C240.396 170.727 239.943 172.237 239.943 173.595C239.943 174.953 240.547 176.312 241.452 177.519C242.811 179.179 244.622 180.538 246.584 181.594C250.055 183.405 253.677 185.065 257.3 186.575C265.45 189.291 273.298 193.064 280.542 197.592C285.523 200.762 289.598 204.988 292.465 210.119C294.88 214.949 296.088 220.231 295.937 225.664C296.088 232.758 293.975 239.851 290.051 245.738C285.825 251.775 279.939 256.453 273.147 259.17C265.751 262.339 256.696 264 245.829 264C238.887 264 232.095 263.396 225.303 262.038C220.021 261.132 214.739 259.472 209.909 257.208C208.852 256.604 208.098 255.548 208.249 254.34V228.079C208.249 227.626 208.4 227.023 208.852 226.721C209.305 226.419 209.758 226.57 210.211 226.872C216.097 230.343 222.285 232.758 228.926 234.267C234.661 235.776 240.698 236.531 246.735 236.531C252.47 236.531 256.545 235.776 259.262 234.418C261.677 233.362 263.337 230.796 263.337 228.079C263.337 225.966 262.129 224.004 259.714 222.042C257.3 220.08 252.319 217.816 244.924 214.949C237.227 212.232 230.133 208.61 223.492 204.082C218.814 200.762 214.889 196.385 212.022 191.253C209.607 186.424 208.4 181.141 208.551 175.859C208.551 169.369 210.362 163.181 213.682 157.597C217.455 151.56 223.039 146.73 229.529 143.712C236.623 140.089 245.527 138.429 256.243 138.429C262.431 138.429 268.77 138.882 274.958 139.788C279.486 140.391 283.863 141.599 287.938 143.259C288.541 143.41 289.145 144.013 289.447 144.617C289.598 145.221 289.749 145.825 289.749 146.428V171.029C289.749 171.633 289.447 172.237 288.994 172.538C287.636 172.84 286.881 172.84 286.277 172.538Z" fill="#31A8FF"/>
</svg>
