<svg width="364" height="364" viewBox="0 0 364 364" fill="none" xmlns="http://www.w3.org/2000/svg">
<rect width="364" height="364" rx="50" fill="#00005B"/>
<path d="M83 261.611V103.608C83 102.534 83.4602 101.92 84.534 101.92C87.1418 101.92 89.5962 101.92 93.1244 101.767C96.8061 101.614 100.641 101.614 104.783 101.46C108.925 101.307 113.373 101.307 118.129 101.153C122.884 101 127.486 101 132.088 101C144.667 101 155.098 102.534 163.689 105.755C171.359 108.363 178.415 112.658 184.244 118.334C189.153 123.243 192.988 129.226 195.443 135.822C197.744 142.265 198.971 148.861 198.971 155.764C198.971 168.957 195.903 179.848 189.767 188.438C183.631 197.029 175.04 203.472 165.069 207.153C154.638 210.988 143.133 212.369 130.554 212.369C126.873 212.369 124.418 212.369 122.884 212.216C121.35 212.062 119.203 212.062 116.288 212.062V261.304C116.441 262.378 115.674 263.298 114.601 263.451H113.987H84.8408C83.6136 263.451 83 262.838 83 261.457V261.611ZM116.441 131.68V183.223C118.589 183.376 120.583 183.53 122.424 183.53H130.554C136.537 183.53 142.519 182.609 148.195 180.768C153.104 179.388 157.399 176.473 160.774 172.638C163.996 168.803 165.53 163.587 165.53 156.838C165.683 152.082 164.456 147.327 162.001 143.185C159.394 139.197 155.712 136.129 151.263 134.441C145.587 132.14 139.451 131.22 133.162 131.373C129.174 131.373 125.645 131.373 122.731 131.527C119.663 131.373 117.515 131.527 116.441 131.68Z" fill="#9999FF"/>
<path d="M221.06 140.731H247.906C249.44 140.731 250.667 141.805 251.127 143.186C251.587 144.413 251.894 145.64 252.047 147.021C252.354 148.555 252.661 150.242 252.814 151.776C252.968 153.464 253.121 155.304 253.121 157.299C257.723 151.93 263.246 147.481 269.535 144.106C276.592 140.118 284.722 138.124 292.852 138.124C293.926 137.97 294.846 138.737 295 139.811V140.425V170.338C295 171.565 294.233 172.025 292.545 172.025C287.023 171.872 281.347 172.332 275.978 173.559C271.529 174.48 267.234 175.86 263.092 177.701C260.178 179.082 257.416 180.922 255.269 183.377V261.611C255.269 263.145 254.655 263.759 253.275 263.759H223.055C221.827 263.912 220.754 263.145 220.6 261.918V261.304V176.32C220.6 172.639 220.6 168.804 220.447 164.815C220.293 160.827 220.293 156.838 220.14 152.85C220.14 149.322 219.833 145.947 219.526 142.419C219.373 141.652 219.833 140.885 220.6 140.731C220.6 140.578 220.907 140.578 221.06 140.731Z" fill="#9999FF"/>
</svg>
