<svg width="364" height="364" viewBox="0 0 364 364" fill="none" xmlns="http://www.w3.org/2000/svg">
<rect width="364" height="364" rx="50" fill="white"/>
<rect width="364" height="364" rx="50" fill="white"/>
<g clip-path="url(#clip0_234_573)">
<path d="M105.714 292.716L88.6284 101.079H276.372L259.268 292.686L182.385 314L105.714 292.716Z" fill="#E44D26"/>
<path d="M182.5 297.708L244.625 280.485L259.241 116.748H182.5V297.708Z" fill="#F16529"/>
<path d="M182.5 187.823H151.399L149.251 163.755H182.5V140.252H123.564L124.127 146.557L129.904 211.327H182.5V187.823ZM182.5 248.864L182.397 248.892L156.221 241.824L154.548 223.079H130.954L134.247 259.983L182.392 273.348L182.5 273.318V248.864Z" fill="#EBEBEB"/>
<path d="M106.096 49H118.04V60.8008H128.966V49H140.911V84.7357H128.967V72.7693H118.041V84.7357H106.097L106.096 49ZM156.618 60.8505H146.103V49H179.083V60.8505H168.563V84.7357H156.619L156.618 60.8505ZM184.317 49H196.772L204.433 61.5564L212.086 49H224.545V84.7357H212.651V67.0231L204.433 79.7291H204.227L196.004 67.0231V84.7357H184.317V49ZM230.49 49H242.438V72.9235H259.235V84.7357H230.49V49Z" fill="black"/>
<path d="M182.419 187.823V211.327H211.361L208.633 241.809L182.419 248.884V273.337L230.602 259.983L230.956 256.012L236.479 194.135L237.052 187.823H230.719H182.419ZM182.419 140.252V163.755H239.191L239.663 158.473L240.733 146.557L241.296 140.252H182.419Z" fill="white"/>
</g>
<defs>
<clipPath id="clip0_234_573">
<rect width="265" height="265" fill="white" transform="translate(50 49)"/>
</clipPath>
</defs>
</svg>
