<svg width="364" height="364" viewBox="0 0 364 364" fill="none" xmlns="http://www.w3.org/2000/svg">
<rect width="364" height="364" rx="50" fill="white"/>
<rect width="364" height="364" rx="50" fill="white"/>
<g clip-path="url(#clip0_234_589)">
<path d="M0 0V364H364V0H0ZM195 282.75C195 318.183 174.07 335.457 143.772 335.457C116.407 335.457 100.522 321.287 92.4625 304.184L120.315 287.324C125.686 296.855 129.764 304.915 141.489 304.915C151.239 304.915 159.25 300.519 159.25 283.416V169H195V282.75ZM275.722 334.644C243.961 334.644 223.438 320.312 213.419 300.519L241.312 284.375C248.625 296.351 258.172 304.33 275.031 304.33C289.201 304.33 297.432 298.057 297.432 288.283C297.432 276.559 288.957 272.407 273.317 265.533L264.769 261.861C240.086 251.363 223.722 238.168 223.722 210.307C223.722 184.657 243.262 165.921 273.804 165.921C295.555 165.921 311.179 172.681 322.432 192.473L295.75 209.625C289.884 199.119 283.562 195 273.764 195C263.746 195 257.392 201.354 257.392 209.625C257.392 219.887 263.746 224.039 278.403 230.392L286.951 234.057C316.03 246.521 332.402 259.244 332.402 287.812C332.41 318.606 308.222 334.644 275.722 334.644Z" fill="#FFC928"/>
</g>
<defs>
<clipPath id="clip0_234_589">
<rect width="364" height="364" rx="50" fill="white"/>
</clipPath>
</defs>
</svg>
