<svg width="364" height="364" viewBox="0 0 364 364" fill="none" xmlns="http://www.w3.org/2000/svg">
<rect width="364" height="364" rx="50" fill="white"/>
<path d="M110.731 111.363C117.786 117.094 120.432 116.657 133.678 115.773L258.559 108.274C261.207 108.274 259.005 105.632 258.123 105.193L237.381 90.1995C233.408 87.1144 228.113 83.581 217.966 84.4649L97.0438 93.2845C92.634 93.7218 91.753 95.9267 93.5094 97.6942L110.731 111.363ZM118.229 140.466V271.863C118.229 278.924 121.758 281.566 129.7 281.13L266.944 273.188C274.891 272.752 275.776 267.893 275.776 262.157V131.643C275.776 125.916 273.573 122.827 268.708 123.268L125.287 131.643C119.994 132.087 118.229 134.735 118.229 140.466ZM253.716 147.515C254.596 151.487 253.716 155.456 249.736 155.902L243.123 157.22V254.224C237.381 257.311 232.088 259.075 227.676 259.075C220.612 259.075 218.843 256.869 213.552 250.258L170.298 182.354V248.054L183.985 251.142C183.985 251.142 183.985 259.075 172.943 259.075L142.5 260.84C141.615 259.075 142.5 254.67 145.588 253.786L153.532 251.585V164.718L142.502 163.835C141.617 159.862 143.82 154.135 150.003 153.69L182.661 151.489L227.676 220.277V159.425L216.199 158.107C215.318 153.251 218.843 149.725 223.257 149.287L253.716 147.515ZM86.8909 81.3797L212.67 72.1173C228.116 70.7926 232.089 71.68 241.798 78.732L281.947 106.951C288.573 111.804 290.78 113.125 290.78 118.415V273.188C290.78 282.887 287.247 288.624 274.892 289.501L128.827 298.323C119.553 298.765 115.139 297.442 110.283 291.265L80.7156 252.904C75.4175 245.843 73.2144 240.559 73.2144 234.379V96.807C73.2144 88.8747 76.7487 82.2582 86.8909 81.3797Z" fill="black"/>
</svg>
