<svg width="364" height="364" viewBox="0 0 364 364" fill="none" xmlns="http://www.w3.org/2000/svg">
<rect width="364" height="364" rx="50" fill="#1E1E1E"/>
<g clip-path="url(#clip0_234_637)">
<path d="M147.008 300C167.979 300 185 282.901 185 261.833V223.667H147.008C126.036 223.667 109.015 240.765 109.015 261.833C109.015 282.901 126.036 300 147.008 300Z" fill="#0ACF83"/>
<path d="M109.015 185.5C109.015 164.432 126.036 147.333 147.008 147.333H185V223.667H147.008C126.036 223.667 109.015 206.568 109.015 185.5Z" fill="#A259FF"/>
<path d="M109.015 109.167C109.015 88.0987 126.036 71 147.008 71H185V147.333H147.008C126.036 147.333 109.015 130.235 109.015 109.167Z" fill="#F24E1E"/>
<path d="M185 71H222.992C243.964 71 260.985 88.0987 260.985 109.167C260.985 130.235 243.964 147.333 222.992 147.333H185V71Z" fill="#FF7262"/>
<path d="M260.985 185.5C260.985 206.568 243.964 223.667 222.992 223.667C202.021 223.667 185 206.568 185 185.5C185 164.432 202.021 147.333 222.992 147.333C243.964 147.333 260.985 164.432 260.985 185.5Z" fill="#1ABCFE"/>
</g>
<defs>
<clipPath id="clip0_234_637">
<rect width="152" height="229" fill="white" transform="translate(109 71)"/>
</clipPath>
</defs>
</svg>
