<svg width="364" height="364" viewBox="0 0 364 364" fill="none" xmlns="http://www.w3.org/2000/svg">
<rect width="364" height="364" rx="50" fill="#222222"/>
<g clip-path="url(#clip0_243_33)">
<path d="M182.5 205.441C195.741 205.441 206.476 194.722 206.476 181.499C206.476 168.276 195.741 157.556 182.5 157.556C169.258 157.556 158.523 168.276 158.523 181.499C158.523 194.722 169.258 205.441 182.5 205.441Z" fill="#00D8FF"/>
<path fill-rule="evenodd" clip-rule="evenodd" d="M67.8765 166.741C62.0892 171.958 59.6957 176.955 59.6957 181.5C59.6957 186.045 62.0892 191.042 67.8765 196.259C73.663 201.475 82.3647 206.441 93.6151 210.73C116.076 219.294 147.5 224.713 182.5 224.713C217.5 224.713 248.924 219.294 271.385 210.73C282.635 206.441 291.337 201.475 297.124 196.259C302.911 191.042 305.304 186.045 305.304 181.5C305.304 176.955 302.911 171.958 297.124 166.741C291.337 161.524 282.635 156.559 271.385 152.269C248.924 143.706 217.5 138.286 182.5 138.286C147.5 138.286 116.076 143.706 93.6151 152.269C82.3647 156.559 73.663 161.524 67.8765 166.741ZM89.4432 141.358C113.546 132.169 146.448 126.607 182.5 126.607C218.552 126.607 251.454 132.169 275.557 141.358C287.588 145.946 297.727 151.55 304.961 158.071C312.194 164.592 317 172.499 317 181.5C317 190.501 312.194 198.408 304.961 204.928C297.727 211.449 287.588 217.054 275.557 221.641C251.454 230.831 218.552 236.393 182.5 236.393C146.448 236.393 113.546 230.831 89.4432 221.641C77.4122 217.054 67.2732 211.449 60.0394 204.928C52.8064 198.408 48 190.501 48 181.5C48 172.499 52.8064 164.592 60.0394 158.071C67.2732 151.55 77.4122 145.946 89.4432 141.358Z" fill="#00D8FF"/>
<path fill-rule="evenodd" clip-rule="evenodd" d="M137.988 74.9908C130.57 72.5944 125.039 73.0231 121.098 75.2954C117.156 77.5678 114.019 82.1365 112.389 89.7499C110.758 97.3624 110.803 107.37 112.708 119.245C116.511 142.951 127.523 172.837 145.024 203.106C162.524 233.375 182.936 257.841 201.593 272.983C210.938 280.568 219.595 285.611 227.012 288.007C234.43 290.403 239.961 289.975 243.902 287.702C247.844 285.43 250.981 280.861 252.611 273.248C254.242 265.635 254.197 255.627 252.292 243.753C248.489 220.047 237.476 190.161 219.976 159.892C202.476 129.623 182.064 105.157 163.407 90.0144C154.062 82.4297 145.405 77.387 137.988 74.9908ZM170.784 80.951C190.805 97.2002 212.079 122.874 230.105 154.052C248.131 185.231 259.759 216.466 263.84 241.905C265.878 254.604 266.087 266.174 264.048 275.691C262.01 285.206 257.556 293.316 249.75 297.817C241.944 302.317 232.683 302.114 223.412 299.119C214.14 296.124 204.21 290.158 194.216 282.047C174.195 265.797 152.921 240.124 134.895 208.945C116.869 177.767 105.241 146.532 101.16 121.092C99.1222 108.394 98.9134 96.8233 100.952 87.307C102.99 77.7915 107.444 69.6813 115.25 65.1808C123.056 60.6804 132.316 60.8834 141.588 63.8785C150.86 66.8739 160.79 72.8399 170.784 80.951Z" fill="#00D8FF"/>
<path fill-rule="evenodd" clip-rule="evenodd" d="M252.611 89.7524C250.981 82.1391 247.843 77.5704 243.902 75.298C239.961 73.0256 234.43 72.597 227.012 74.9934C219.595 77.3896 210.938 82.4323 201.593 90.017C182.936 105.159 162.524 129.626 145.024 159.895C127.523 190.164 116.511 220.049 112.708 243.755C110.803 255.63 110.758 265.638 112.389 273.25C114.019 280.864 117.156 285.432 121.098 287.705C125.039 289.977 130.57 290.406 137.988 288.009C145.405 285.613 154.062 280.571 163.407 272.986C182.064 257.844 202.476 233.377 219.976 203.108C237.476 172.839 248.489 142.954 252.292 119.247C254.197 107.373 254.242 97.365 252.611 89.7524ZM263.84 121.095C259.759 146.534 248.131 177.769 230.105 208.948C212.079 240.126 190.805 265.8 170.784 282.049C160.79 290.16 150.86 296.126 141.588 299.122C132.316 302.117 123.056 302.32 115.25 297.819C107.444 293.319 102.99 285.209 100.952 275.693C98.9134 266.177 99.1222 254.606 101.16 241.908C105.241 216.469 116.869 185.234 134.895 154.055C152.921 122.876 174.195 97.2028 194.216 80.9536C204.21 72.8425 214.14 66.8765 223.412 63.8811C232.683 60.886 241.944 60.683 249.75 65.1834C257.556 69.6839 262.01 77.7941 264.048 87.3096C266.086 96.8259 265.878 108.397 263.84 121.095Z" fill="#00D8FF"/>
</g>
<defs>
<clipPath id="clip0_243_33">
<rect width="269" height="239" fill="white" transform="translate(48 62)"/>
</clipPath>
</defs>
</svg>
