<svg width="364" height="364" viewBox="0 0 364 364" fill="none" xmlns="http://www.w3.org/2000/svg">
<rect width="364" height="364" rx="50" fill="white"/>
<path d="M237.399 144.171L237.309 144.132C237.257 144.113 237.205 144.093 237.16 144.048C237.086 143.969 237.032 143.873 237 143.769C236.969 143.665 236.962 143.556 236.98 143.448L241.966 112.966L265.347 136.353L241.03 146.699C240.963 146.726 240.89 146.74 240.817 146.738H240.721C240.688 146.719 240.656 146.693 240.592 146.628C239.687 145.621 238.605 144.788 237.399 144.171ZM271.313 142.313L296.313 167.313C301.505 172.512 304.105 175.105 305.053 178.111C305.195 178.556 305.311 179.001 305.401 179.459L245.655 154.155C245.623 154.142 245.591 154.129 245.558 154.117C245.32 154.02 245.042 153.91 245.042 153.665C245.042 153.42 245.326 153.304 245.565 153.207L245.642 153.175L271.313 142.313ZM304.382 187.483C303.092 189.908 300.577 192.423 296.32 196.687L268.133 224.867L231.678 217.275L231.484 217.236C231.162 217.185 230.82 217.127 230.82 216.837C230.682 215.333 230.235 213.873 229.508 212.55C228.781 211.226 227.79 210.066 226.595 209.142C226.447 208.993 226.486 208.761 226.531 208.548C226.531 208.516 226.531 208.484 226.544 208.458L233.4 166.365L233.426 166.223C233.464 165.901 233.523 165.527 233.813 165.527C235.282 165.344 236.7 164.871 237.985 164.134C239.269 163.398 240.395 162.413 241.295 161.238C241.353 161.173 241.392 161.102 241.469 161.063C241.675 160.967 241.92 161.063 242.133 161.154L304.382 187.483ZM261.651 231.349L215.301 277.699L223.235 228.937L223.248 228.872C223.254 228.808 223.267 228.743 223.286 228.685C223.351 228.53 223.519 228.466 223.68 228.401L223.757 228.369C225.494 227.628 227.031 226.485 228.24 225.034C228.395 224.854 228.582 224.68 228.82 224.647C228.882 224.637 228.946 224.637 229.008 224.647L261.645 231.355L261.651 231.349ZM205.491 287.509L200.266 292.734L142.507 209.258C142.486 209.227 142.464 209.197 142.442 209.167C142.352 209.045 142.255 208.922 142.274 208.78C142.281 208.677 142.345 208.587 142.416 208.51L142.481 208.426C142.655 208.168 142.803 207.91 142.965 207.632L143.094 207.407L143.113 207.387C143.203 207.232 143.287 207.084 143.442 207C143.577 206.936 143.764 206.962 143.913 206.994L207.903 220.191C208.082 220.218 208.251 220.292 208.393 220.403C208.477 220.487 208.497 220.578 208.516 220.681C208.962 222.37 209.793 223.932 210.943 225.247C212.093 226.562 213.532 227.593 215.146 228.259C215.327 228.35 215.25 228.55 215.166 228.763C215.124 228.856 215.092 228.953 215.069 229.053C214.263 233.955 207.348 276.125 205.491 287.509ZM194.577 298.416C190.727 302.228 188.456 304.247 185.889 305.06C183.358 305.86 180.642 305.86 178.111 305.06C175.105 304.105 172.506 301.512 167.313 296.313L109.308 238.309L124.459 214.811C124.53 214.695 124.601 214.592 124.717 214.508C124.879 214.392 125.111 214.444 125.304 214.508C128.782 215.557 132.516 215.368 135.87 213.973C136.044 213.908 136.218 213.863 136.353 213.986C136.421 214.047 136.482 214.117 136.534 214.192L194.577 298.416ZM103.716 232.716L90.4099 219.41L116.687 208.2C116.754 208.171 116.827 208.155 116.9 208.155C117.119 208.155 117.248 208.374 117.364 208.574C117.629 208.98 117.908 209.376 118.203 209.761L118.287 209.864C118.364 209.974 118.313 210.083 118.235 210.187L103.716 232.716ZM84.5211 213.521L67.6866 196.687C64.8228 193.823 62.7459 191.746 61.3011 189.959L112.488 200.576C112.553 200.588 112.617 200.599 112.682 200.608C112.998 200.66 113.346 200.718 113.346 201.015C113.346 201.337 112.966 201.486 112.643 201.608L112.495 201.673L84.5211 213.521ZM58.3599 181.303C58.4182 180.219 58.6132 179.146 58.9404 178.111C59.895 175.105 62.4879 172.512 67.6866 167.313L89.2296 145.77C99.1486 160.166 109.095 174.543 119.067 188.902C119.241 189.134 119.435 189.392 119.235 189.585C118.293 190.624 117.352 191.759 116.687 192.991C116.615 193.149 116.504 193.287 116.365 193.391C116.281 193.442 116.191 193.423 116.094 193.404H116.081L58.3599 181.303ZM94.9959 140.004L123.963 111.037C126.685 112.23 136.592 116.416 145.454 120.157C152.162 122.995 158.277 125.575 160.199 126.414C160.392 126.491 160.567 126.569 160.65 126.762C160.702 126.878 160.676 127.027 160.65 127.149C160.192 129.24 160.26 131.412 160.849 133.47C161.438 135.528 162.529 137.408 164.024 138.94C164.217 139.133 164.024 139.411 163.856 139.649L163.766 139.785L134.354 185.341C134.276 185.47 134.205 185.58 134.076 185.664C133.922 185.76 133.702 185.715 133.522 185.67C132.378 185.37 131.202 185.21 130.019 185.193C128.962 185.193 127.813 185.386 126.652 185.599C126.523 185.619 126.401 185.644 126.298 185.567C126.184 185.474 126.086 185.363 126.007 185.238L94.9959 140.004ZM129.813 105.187L167.313 67.6867C172.506 62.4945 175.105 59.8951 178.111 58.947C180.642 58.1466 183.358 58.1466 185.889 58.947C188.895 59.8951 191.494 62.4945 196.687 67.6867L204.814 75.8137L178.143 117.12C178.077 117.24 177.987 117.345 177.878 117.429C177.717 117.539 177.491 117.494 177.298 117.429C175.195 116.791 172.968 116.675 170.811 117.091C168.653 117.506 166.629 118.442 164.914 119.816C164.74 119.996 164.482 119.893 164.262 119.796C160.779 118.281 133.689 106.832 129.813 105.187ZM210.477 81.4768L235.103 106.103L229.169 142.855V142.952C229.163 143.036 229.146 143.118 229.117 143.197C229.053 143.326 228.924 143.352 228.795 143.39C227.526 143.775 226.331 144.37 225.26 145.151C225.214 145.184 225.171 145.221 225.131 145.261C225.06 145.338 224.989 145.409 224.873 145.422C224.779 145.425 224.684 145.41 224.596 145.377L187.07 129.433L186.999 129.4C186.76 129.304 186.476 129.187 186.476 128.942C186.256 126.851 185.573 124.835 184.477 123.041C184.296 122.744 184.096 122.434 184.251 122.131L210.477 81.4768ZM185.115 136.986L220.294 151.885C220.487 151.975 220.7 152.059 220.784 152.259C220.817 152.379 220.817 152.507 220.784 152.627C220.681 153.143 220.59 153.73 220.59 154.323V155.31C220.59 155.555 220.339 155.658 220.107 155.755L220.036 155.781C214.463 158.161 141.797 189.147 141.687 189.147C141.578 189.147 141.462 189.147 141.352 189.037C141.159 188.844 141.352 188.573 141.526 188.328C141.557 188.285 141.587 188.242 141.616 188.199L170.525 143.436L170.577 143.358C170.745 143.087 170.938 142.784 171.248 142.784L171.538 142.829C172.196 142.92 172.776 143.003 173.363 143.003C177.749 143.003 181.813 140.868 184.264 137.218C184.322 137.12 184.396 137.033 184.483 136.96C184.657 136.831 184.915 136.895 185.115 136.986ZM144.829 196.229L224.035 162.45C224.035 162.45 224.151 162.45 224.26 162.56C224.692 162.992 225.06 163.282 225.415 163.553L225.589 163.663C225.75 163.753 225.912 163.856 225.924 164.024C225.924 164.088 225.924 164.127 225.912 164.185L219.126 205.865L219.1 206.033C219.055 206.355 219.01 206.723 218.707 206.723C216.898 206.845 215.146 207.406 213.603 208.358C212.06 209.31 210.772 210.624 209.851 212.186L209.819 212.238C209.728 212.386 209.645 212.528 209.496 212.605C209.361 212.67 209.187 212.644 209.045 212.612L145.88 199.583C145.815 199.57 144.9 196.235 144.829 196.229Z" fill="url(#paint0_radial_243_30)"/>
<defs>
<radialGradient id="paint0_radial_243_30" cx="0" cy="0" r="1" gradientUnits="userSpaceOnUse" gradientTransform="translate(50.0654 178.514) rotate(90) scale(24704.1 28521.8)">
<stop stop-color="#20C6B7"/>
<stop offset="1" stop-color="#4D9ABF"/>
</radialGradient>
</defs>
</svg>
