<svg width="364" height="364" viewBox="0 0 364 364" fill="none" xmlns="http://www.w3.org/2000/svg">
<rect width="364" height="364" rx="50" fill="#330000"/>
<path d="M175.577 227.18H120.049L108.704 262.171C108.406 263.511 107.212 264.404 105.868 264.256H77.8055C76.1635 264.256 75.7157 263.362 76.1635 261.575L124.229 123.546C124.676 122.057 125.124 120.419 125.721 118.633C126.318 115.506 126.617 112.23 126.617 108.954C126.468 108.21 127.065 107.465 127.811 107.316H166.472C167.666 107.316 168.263 107.763 168.412 108.507L222.896 261.873C223.344 263.511 222.896 264.256 221.403 264.256H190.206C189.161 264.404 188.116 263.66 187.818 262.618L175.577 227.18ZM128.707 196.953H166.621C165.726 193.826 164.531 190.104 163.188 186.233C161.845 182.212 160.501 177.894 159.158 173.427C157.665 168.811 156.322 164.344 154.829 159.729C153.336 155.113 151.993 150.795 150.799 146.477C149.604 142.307 148.56 138.436 147.515 134.863H147.216C145.873 141.265 144.231 147.668 142.141 154.07C139.902 161.218 137.663 168.663 135.275 176.107C133.185 183.701 130.946 190.7 128.707 196.953ZM256.183 133.374C251.257 133.522 246.481 131.587 242.898 128.162C239.465 124.44 237.674 119.526 237.823 114.463C237.674 109.401 239.614 104.636 243.197 101.211C246.779 97.7868 251.556 96 256.482 96C262.303 96 266.781 97.7868 270.065 101.211C273.349 104.785 275.141 109.55 274.991 114.463C275.141 119.526 273.349 124.44 269.767 128.162C266.334 131.736 261.258 133.671 256.183 133.374ZM239.465 262.618V147.966C239.465 146.477 240.062 145.881 241.406 145.881H270.961C272.304 145.881 272.902 146.626 272.902 147.966V262.618C272.902 264.256 272.304 265 270.961 265H241.704C240.211 265 239.465 264.107 239.465 262.618Z" fill="#FF9A00"/>
</svg>
