<svg width="364" height="364" viewBox="0 0 364 364" fill="none" xmlns="http://www.w3.org/2000/svg">
<rect width="364" height="364" rx="50" fill="white"/>
<path d="M174.397 149.397V172.982L117.666 116.415L136.507 97.622L165.127 126.187C164.359 128.25 163.97 130.433 163.978 132.634C163.967 136.12 164.938 139.54 166.78 142.504C168.622 145.468 171.261 147.856 174.397 149.397ZM191.788 152.799L200.606 161.594L191.788 170.408V152.799ZM245.75 116.603L211.666 150.562L200.191 139.155C201.237 136.354 201.586 133.343 201.209 130.378C200.634 126.026 198.55 122.013 195.318 119.033C192.086 116.053 187.911 114.296 183.516 114.066C181.022 113.935 178.526 114.319 176.187 115.194L147.548 86.5341L171.816 62.4037C173.104 61.1161 174.634 60.0946 176.318 59.3976C178.003 58.7006 179.809 58.3418 181.632 58.3418C183.456 58.3418 185.262 58.7006 186.946 59.3976C188.631 60.0946 190.161 61.1161 191.449 62.4037L245.75 116.603Z" fill="#FF8080"/>
<path d="M163.13 194.651L111.58 246.069L60.4255 195.534C57.5318 192.532 55.9297 188.52 55.9614 184.356C55.9931 180.191 57.656 176.204 60.5951 173.246L113.351 120.625L163.13 170.445C166.343 173.658 168.147 178.011 168.147 182.548C168.147 187.086 166.343 191.438 163.13 194.651Z" fill="#80B3FF"/>
<path d="M191.882 200.778V222.371C195.022 224.234 197.511 227.014 199.014 230.335C200.518 233.656 200.961 237.358 200.285 240.938C199.666 244.432 197.998 247.655 195.501 250.182C193.005 252.709 189.798 254.421 186.305 255.09C182.067 256.013 177.637 255.365 173.844 253.267C170.05 251.169 167.153 247.765 165.693 243.69C164.234 239.616 164.313 235.151 165.915 231.13C167.516 227.109 170.532 223.808 174.397 221.845V197.977C174.365 197.638 174.242 197.313 174.039 197.038C173.836 196.764 173.562 196.549 173.247 196.418C172.931 196.287 172.586 196.243 172.247 196.293C171.909 196.343 171.59 196.483 171.326 196.699L117.308 250.56L172.89 306C175.479 308.58 178.99 310.029 182.65 310.029C186.31 310.029 189.82 308.58 192.41 306L244.845 253.793L191.882 200.778Z" fill="#FFE680"/>
<path d="M302.18 198.259L252.175 248.155L198.326 194.444C195.305 191.428 193.607 187.338 193.607 183.074C193.607 178.81 195.305 174.721 198.326 171.704L204.525 165.465L218.26 179.128C216.788 183.115 216.725 187.485 218.083 191.513C219.441 195.541 222.137 198.985 225.726 201.275C229.315 203.565 233.58 204.564 237.816 204.105C242.051 203.646 246.003 201.758 249.015 198.753C252.028 195.749 253.921 191.807 254.381 187.583C254.84 183.358 253.839 179.104 251.543 175.524C249.247 171.945 245.794 169.255 241.756 167.901C237.718 166.546 233.337 166.609 229.339 168.077L215.679 154.471L250.611 119.647L302.18 171.103C303.974 172.883 305.398 174.998 306.369 177.328C307.34 179.659 307.84 182.157 307.84 184.681C307.84 187.205 307.34 189.703 306.369 192.033C305.398 194.364 303.974 196.479 302.18 198.259Z" fill="#8DD35F"/>
</svg>
