<svg width="364" height="364" viewBox="0 0 364 364" fill="none" xmlns="http://www.w3.org/2000/svg">
<rect width="364" height="364" rx="50" fill="#232323"/>
<path d="M191.91 78C181.54 78 173.99 78.973 167.829 80.4334C161.743 81.8939 157.076 83.805 152.454 85.7193C138.173 91.6106 128.096 95.7301 120.993 98.6922L103.97 105.67C72.5805 118.534 66 139.532 66 154.871C66 179.772 86.675 201.75 118.618 201.75C126.515 201.75 138.281 199.462 148.319 195.336L166.053 188.02L196.464 175.498C203.906 172.454 208.819 169.42 208.819 160.946C208.819 145.492 193.028 140.084 182.881 144.25L134.026 164.427C127.146 167.241 122.146 167.988 120.492 167.988C104.293 167.988 103.582 155.019 103.582 154.871C103.582 151.9 103.586 146.342 118.247 140.302L167.49 120.174C167.49 120.174 183.459 113.615 195.673 113.615C227.616 113.615 246.418 137.984 246.418 159.544C246.418 185.007 229.989 193.493 224.954 195.481L145.768 227.986C141.559 229.711 139.904 234.809 142.344 238.671L165.374 274.979C168.947 280.639 173.278 288 184.06 288C190.593 288 203.183 284.581 203.183 270.257C203.183 266.321 202.314 262.983 200.098 259.46L193.896 249.968C193.598 249.448 193.819 248.804 194.348 248.582L238.585 230.387C240.958 229.488 247.946 226.495 255.801 220.347C268.767 210.141 284 191.418 284 159.544C284 122.983 252.051 77.9918 191.91 78Z" fill="white"/>
</svg>
