<svg width="364" height="364" viewBox="0 0 364 364" fill="none" xmlns="http://www.w3.org/2000/svg">
<rect width="364" height="364" rx="50" fill="white"/>
<rect width="364" height="364" rx="50" fill="white"/>
<g clip-path="url(#clip0_234_572)">
<path d="M106.939 292.716L89.8535 101.079H277.597L260.493 292.686L183.61 314L106.939 292.716Z" fill="#264DE4"/>
<path d="M245.85 280.485L260.466 116.748H183.725V297.708L245.85 280.485Z" fill="#2965F1"/>
<path d="M129.022 187.823L131.129 211.326H183.725V187.823H129.022Z" fill="#EBEBEB"/>
<path d="M126.926 163.755H183.725V140.252H183.644H124.79L126.926 163.755Z" fill="#EBEBEB"/>
<path d="M183.617 273.348L183.725 273.318V248.864L183.622 248.892L157.446 241.824L155.773 223.079H143.053H132.179L135.472 259.982L183.617 273.348Z" fill="#EBEBEB"/>
<path d="M134.038 49H162.504V60.9043H145.942V72.8086H162.504V84.7129H134.038V49Z" fill="black"/>
<path d="M168.198 49H196.665V59.3516H180.102V61.4219H196.665V85.2305H168.198V74.3613H184.76V72.291H168.198V49Z" fill="black"/>
<path d="M202.358 49H230.825V59.3516H214.262V61.4219H230.825V85.2305H202.358V74.3613H218.92V72.291H202.358V49Z" fill="black"/>
<path d="M242.52 140.252H183.644V163.755H216.763L214.624 187.823H183.644V211.327H212.586L209.858 241.809L183.644 248.884V273.337L231.827 259.983L232.181 256.012L237.704 194.135L238.277 187.823L242.52 140.252Z" fill="white"/>
</g>
<defs>
<clipPath id="clip0_234_572">
<rect width="265" height="265" fill="white" transform="translate(50 49)"/>
</clipPath>
</defs>
</svg>
