<svg xmlns="http://www.w3.org/2000/svg" viewBox="0 0 2047.91 891.76"><defs><style>.cls-1{fill:#ff9cec;}.cls-2{fill:#7be6ff;}.cls-3{fill:#ff7de3;}.cls-4{fill:#6e55ff;}.cls-5{fill:#e8e8e8;}.cls-6{fill:#ffd13e;}</style></defs><g id="Layer_4" data-name="Layer 4"><path d="M974.7,1164.91c-192.86,0-361.44-24.82-487.54-71.75-131.51-49-207.68-119.06-220.25-202.76-8.33-55.44,11.45-113,58.79-171.22,44.73-55,112.3-108.33,200.83-158.63,88-50,192.55-94.6,310.6-132.5,122.07-39.18,253.41-69.48,390.38-90.06,127.2-19.11,252.61-28.8,372.74-28.8,192.85,0,361.43,24.8,487.53,71.74C2219.3,429.88,2295.46,500,2308,583.7c8.33,55.44-11.45,113-58.8,171.21-44.73,55-112.29,108.33-200.82,158.63-88.05,50-192.55,94.61-310.61,132.5-122.06,39.18-253.41,69.48-390.38,90.06-127.19,19.12-252.58,28.81-372.64,28.81Zm496.77-785.13c-89,0-181.86,7.18-276.12,21.34-200.68,30.15-384.69,88.52-518.13,164.34C612.91,602,564.05,640.5,532,679.91s-45.71,78-40.24,114.4c8.4,55.93,61.48,103.59,153.5,137.84,92.35,34.38,216.31,52.54,358.47,52.54,89,0,181.86-7.18,276.12-21.34C1480.51,933.2,1664.52,874.83,1798,799c64.31-36.53,113.18-75,145.25-114.45s45.7-78,40.24-114.4C1975,514.23,1922,466.57,1830,432.32,1737.59,397.94,1613.63,379.78,1471.47,379.78Z" transform="translate(-261.98 -273.15)"/><path class="cls-1" d="M967.6,1150.91c-192,0-359.77-24.67-485.1-71.31-129-48-203.6-116.21-215.77-197.24C258.7,829,278,773.18,324,716.6c44.18-54.28,111.08-107.09,198.85-157s191.69-94.18,309.29-131.92c121.71-39.07,252.68-69.28,389.28-89.81,126.86-19.06,251.91-28.72,371.7-28.72,192,0,359.76,24.65,485.09,71.3,129,48,203.6,116.21,215.77,197.25,8,53.41-11.25,109.17-57.3,165.75-44.17,54.28-111.08,107.09-198.85,157s-191.69,94.17-309.29,131.92c-121.71,39.06-252.68,69.28-389.28,89.8-126.85,19.06-251.88,28.73-371.6,28.73Zm496.77-785.13c-89.31,0-182.56,7.2-277.16,21.42C985.7,417.48,800.83,476.14,666.66,552.37c-65.06,37-114.59,76-147.21,116.12-33.47,41.12-47.51,81.44-41.73,119.86,8.8,58.6,63.43,108.17,158,143.36,93.12,34.66,217.93,53,360.91,53,89.31,0,182.56-7.2,277.16-21.42,201.51-30.28,386.38-88.94,520.55-165.17,65.06-37,114.6-76,147.22-116.12,33.46-41.11,47.5-81.44,41.73-119.86-8.81-58.6-63.44-108.17-158-143.36C1732.16,384.1,1607.36,365.78,1464.37,365.78Z" transform="translate(-261.98 -273.15)"/><path d="M1593.15,312.19c385,0,673.1,101,697.9,266,32.29,214.94-394,457.16-952.2,541-129.6,19.48-254.82,28.7-371.25,28.7-385.06,0-673.11-101-697.9-266-32.3-214.93,394-457.16,952.2-541,129.59-19.47,254.81-28.69,371.25-28.69M996.61,987.69c87.05,0,180.73-6.89,277.61-21.45,417.38-62.72,736.16-243.84,712-404.56-18.54-123.41-233.9-198.9-521.86-198.9-87,0-180.72,6.89-277.6,21.45C769.38,447,450.6,628.07,474.75,788.79c18.54,123.41,233.9,198.9,521.86,198.9m596.54-681.5c-119.94,0-245.14,9.67-372.15,28.75-136.75,20.55-267.88,50.81-389.74,89.92-117.8,37.81-222,82.28-309.86,132.17-43.35,24.63-82.21,50.42-115.5,76.64-33.73,26.56-62,53.83-84.2,81-22.7,27.89-39.16,56-48.91,83.69-10.11,28.62-13.14,57-9,84.4C276.11,965,351.39,1034,481.46,1082.42c62,23.08,135.11,40.93,217.26,53.07,82.74,12.22,173.2,18.42,268.88,18.42,119.93,0,245.14-9.68,372.14-28.76,136.76-20.55,267.89-50.8,389.75-89.92,117.79-37.81,222-82.28,309.85-132.17,43.35-24.63,82.21-50.41,115.51-76.64,33.72-26.56,62.05-53.83,84.19-81,22.7-27.9,39.16-56.06,48.92-83.69,10.1-28.62,13.14-57,9-84.41-12.35-82.18-87.63-151.2-217.69-199.61-62-23.09-135.11-40.94-217.26-53.08-82.75-12.22-173.21-18.41-268.88-18.41ZM996.61,981.69c-142.63,0-267.07-18.25-359.87-52.79-93.46-34.79-147.42-83.54-156.06-141-5.64-37.55,8.19-77.08,41.09-117.52,32.39-39.79,81.64-78.62,146.38-115.4C802,478.92,986.5,420.39,1187.66,390.16c94.45-14.19,187.55-21.38,276.71-21.38,142.63,0,267.08,18.25,359.87,52.79,93.46,34.79,147.43,83.54,156.06,141,5.64,37.55-8.18,77.08-41.09,117.52-32.38,39.79-81.63,78.62-146.37,115.4C1659,871.55,1474.48,930.08,1273.33,960.31c-94.46,14.19-187.56,21.38-276.72,21.38Z" transform="translate(-261.98 -273.15)"/></g><g id="Layer_2" data-name="Layer 2"><path d="M2036.39,597.37c11.92-11.67,20.32-26.73,25-44.75,4.35-17,5.4-38.13,3.1-62.95-2.26-24.47-7.34-45.13-15.1-61.4-8.16-17.1-19.43-30.71-33.51-40.44-13.82-9.53-30.55-15.74-49.74-18.44a227.45,227.45,0,0,0-31.69-2.07c-9.4,0-19.42.48-29.76,1.44l-95.09,8.78,2.57,27.8L1601.9,390.05,1600,416l-111.66,3.34.66-9.13-208.63-15L1275.81,357l-254.59,30.44,4.83,40.4a120.15,120.15,0,0,0-11.69-5.13,151,151,0,0,0-101.69,0,114.94,114.94,0,0,0-32.79,18.76c0-.09-.07-.19-.1-.28a82.42,82.42,0,0,0-25.67-35.26c-11.2-9-25.62-15.9-42.88-20.48-16.35-4.33-36.09-6.69-58.68-7l-108.09-1.55-.34,23.81L489.33,423.45l38.75,263.47L552,683.4l-30,191,132.39,20.76,6.94-44.26a173.5,173.5,0,0,0,22.29,1.52c14.94,0,28.57-2.27,40.73-6.76a118.75,118.75,0,0,0,26.16,28.76,111.86,111.86,0,0,0,45,21,139.75,139.75,0,0,0,30.3,3.27,159.82,159.82,0,0,0,21.06-1.43,144.23,144.23,0,0,0,49.32-15.51,117.31,117.31,0,0,0,24.46-17.49l.83,6.49,127-16.32,0-.3,129.27-16.62-4.07-7.52,65,4.65,5,40.37,121.08-14.94-8.82-71.46,2.39-.3c5.6,17,13.82,31.68,24.47,43.68a111.84,111.84,0,0,0,40.38,28.81,146.82,146.82,0,0,0,50.17,11.14c2.76.13,5.53.2,8.23.2a140.8,140.8,0,0,0,43.09-6.49,116,116,0,0,0,33.16-16.79l2.12,34L1776,869.46l-1.49-24,61,4.77.06-.71a110.75,110.75,0,0,0,59.12,31.67,139,139,0,0,0,26.41,2.5,156.61,156.61,0,0,0,25-2.06,144.12,144.12,0,0,0,48.89-16.83,115.2,115.2,0,0,0,36.77-33.1c9.63-13.47,16.35-29.47,20-47.53,3.57-17.72,3.62-37.64.14-59.2S2042,684.58,2033,668.88c-9.13-16-20.55-29.07-33.93-38.83a114.89,114.89,0,0,0-10-6.54c.69-.19,1.39-.39,2.06-.6C2009.48,617.4,2024.71,608.81,2036.39,597.37ZM733.49,644.78l18.4.27q-3.84,2.51-7.42,5.29A122.45,122.45,0,0,0,733.49,644.78Zm-92.19-47.2L641,617.23,638.2,598Zm1045.22,65.93,31,2.26-7.21,92.14L1692.45,759Z" transform="translate(-261.98 -273.15)"/><path d="M1833.79,622.84l-22.65-245.26,85.13-7.87c22.07-2,42-1.84,59.14.58,17.63,2.48,32.93,8.13,45.45,16.77s22.77,21,30.17,36.51c7.25,15.21,12,34.73,14.17,58,2.18,23.68,1.23,43.71-2.84,59.54-4.17,16.22-11.67,29.71-22.27,40.1s-24.35,18.06-41.14,23.11c-16.24,4.87-35.73,8.39-57.93,10.44Z" transform="translate(-261.98 -273.15)"/><path class="cls-2" d="M1920.47,608.8l-81.26,7.51L1817.66,383l79.17-7.31q32.55-3,57.74.54T1997.45,392q17.7,12.22,28.16,34.16t13.61,56q3.21,34.67-2.67,57.49t-20.66,37.31q-14.78,14.47-38.67,21.65T1920.47,608.8Zm-36.64-129.17-4.63,8.56a198.27,198.27,0,0,0,23.87,4q12.78,1.38,25.92,1.82t26.21,0q13.07-.45,24.72-1.53l-.83-9q-11.65,1.08-24.28,1.34t-24.88-.26q-12.26-.53-24.12-1.84T1883.83,479.63Z" transform="translate(-261.98 -273.15)"/><polygon points="1429.45 372.37 1419.16 326.95 1415.93 371.39 1321.98 364.56 1339.86 118.61 1468.31 127.94 1476.27 158.01 1478.4 128.68 1575.64 135.75 1557.76 381.7 1429.45 372.37"/><path class="cls-2" d="M1831.21,414.44l-17,234-117.89-8.57-18.21-80.44-5.72,78.7-82-6,17-234,118.18,8.6,25.25,95.38,8.24-1.51-15.68-57.39,2.54-35Z" transform="translate(-261.98 -273.15)"/><rect x="1414.63" y="419.39" width="197.4" height="246.6" transform="translate(-277.52 -227.71) rotate(-1.71)"/><path class="cls-3" d="M1609.49,657.16l-185.31,5.54-7-234.49,185.32-5.54,2.1,70.47L1509.24,496l.31,10.49,95.36-2.85,2.16,72.57-95.35,2.85.31,10.5,95.36-2.85Z" transform="translate(-261.98 -273.15)"/><polygon points="1019.37 371.07 1030.72 213.37 974.47 209.33 980.82 121.06 1207.03 137.33 1200.68 225.6 1144.42 221.56 1133.08 379.25 1019.37 371.07"/><path class="cls-2" d="M1248.35,400.62,1462.6,416l-5.49,76.31-56.25-4L1389.51,646l-101.74-7.32L1299.12,481l-56.26-4.05Z" transform="translate(-261.98 -273.15)"/><polygon points="897.32 346.1 878.57 303.46 883.86 347.71 790.33 358.89 761.05 114.03 888.93 98.74 902.47 126.75 898.97 97.54 995.78 85.97 1025.06 330.83 897.32 346.1"/><path class="cls-2" d="M1252.52,365.79l27.85,232.94-117.36,14-33.2-75.49,9.37,78.34-81.62,9.76-27.85-232.94,117.66-14.07,43,88.83,7.79-3.05-26.32-53.35-4.16-34.85Z" transform="translate(-261.98 -273.15)"/><path d="M954.12,670.49a136.6,136.6,0,0,1-47.21-8,102.06,102.06,0,0,1-38.07-24.38c-10.54-10.75-18.91-24.28-24.88-40.2S835,563.52,835,542.69c0-20.63,3-39.1,8.94-54.91s14.34-29.45,24.88-40.2a103.7,103.7,0,0,1,38-24.51,141,141,0,0,1,94.67,0,105.52,105.52,0,0,1,38,24.49c10.65,10.77,19.08,24.3,25,40.22s8.93,34.28,8.93,54.91-3,39.1-8.93,54.9-14.4,29.45-25,40.22a105.52,105.52,0,0,1-38,24.49A134.12,134.12,0,0,1,954.12,670.49Z" transform="translate(-261.98 -273.15)"/><path class="cls-2" d="M841,542.69q0-30,8.55-52.8t23.55-38.1A97.17,97.17,0,0,1,909,428.69a135,135,0,0,1,90.45,0,98.83,98.83,0,0,1,35.85,23.1q15.15,15.3,23.7,38.1t8.55,52.8q0,30-8.55,52.8t-23.7,38.1a99,99,0,0,1-35.85,23.1,127.72,127.72,0,0,1-45.3,7.8A130.09,130.09,0,0,1,909,656.84a95.59,95.59,0,0,1-35.85-23q-15-15.3-23.55-38.1T841,542.69Zm78.3-12.3-5.4,8.1a126.55,126.55,0,0,0,38.7,10.8,348,348,0,0,0,43.2,2.7v-9a287.33,287.33,0,0,1-41.25-2.85A134.64,134.64,0,0,1,919.32,530.39Z" transform="translate(-261.98 -273.15)"/><path d="M759,626l-9.12-27.81-.4,28-108-1.54L645,378l98.09,1.4c21.78.31,40.71,2.56,56.27,6.68,15.89,4.22,29.07,10.48,39.18,18.6a72.58,72.58,0,0,1,22.58,31c4.6,12,6.81,26.08,6.59,41.77-.22,15.24-3,28.21-8.22,38.52a93.07,93.07,0,0,1-16.86,23.52l32.58,88.08Z" transform="translate(-261.98 -273.15)"/><path class="cls-2" d="M861.72,477.43q-.32,21.6-7.57,35.9A86.25,86.25,0,0,1,835.65,538l30.91,83.55L763.37,620l-18.69-57h-.3l-.81,57-96-1.37,3.35-234.58L743,385.43q32.09.45,54.81,6.48t36.95,17.48a66.32,66.32,0,0,1,20.75,28.5Q862,454.93,861.72,477.43ZM726.31,462.9l-5.51,7.42a61.64,61.64,0,0,0,16,7.43,198.86,198.86,0,0,0,20.47,5.39q10.77,2.25,21.56,3.46T798,487.92l.12-8.4a159.43,159.43,0,0,1-18.58-1.46q-10.18-1.35-20.2-3.59a182.3,182.3,0,0,1-18.83-5.22A67.2,67.2,0,0,1,726.31,462.9Z" transform="translate(-261.98 -273.15)"/><polygon points="229.4 149.74 424.46 121.06 449.83 293.59 355.57 307.45 366.03 378.6 265.23 393.42 229.4 149.74"/><path class="cls-2" d="M621.21,646.68l-88.93,13.08L498.19,428,681.38,401,692.5,476.6l-94.27,13.86,1.53,10.38L694,487l11,74.7-94.27,13.86Z" transform="translate(-261.98 -273.15)"/></g><g id="Layer_1" data-name="Layer 1"><path d="M1911.71,864.74a128.72,128.72,0,0,1-24.5-2.32,102,102,0,0,1-41.47-18c-12.12-8.94-22.54-20.95-31-35.72s-14.3-32.51-17.62-53.08c-3.28-20.36-3.26-39.08.07-55.63s9.47-31.36,18.16-43.64A103.62,103.62,0,0,1,1849,626.08a134.35,134.35,0,0,1,45.35-15.6,145.93,145.93,0,0,1,23.25-1.93,125.59,125.59,0,0,1,24.86,2.45,105.36,105.36,0,0,1,41.42,18.13c12.23,8.92,22.71,20.94,31.14,35.7s14.28,32.42,17.57,52.79,3.26,39.08-.07,55.63-9.52,31.37-18.33,43.69a105.12,105.12,0,0,1-33.61,30.23,134.19,134.19,0,0,1-45.5,15.64A147.26,147.26,0,0,1,1911.71,864.74Z" transform="translate(-261.98 -273.15)"/><path class="cls-4" d="M1803.08,754.67q-4.78-29.62,0-53.49t17.18-41.37A97.27,97.27,0,0,1,1852,631.3a135,135,0,0,1,89.3-14.42A98.94,98.94,0,0,1,1980.36,634q17.39,12.69,29.47,33.84t16.85,50.76q4.78,29.63,0,53.49t-17.33,41.39A99,99,0,0,1,1977.62,842a127.74,127.74,0,0,1-43.48,14.92,130.11,130.11,0,0,1-45.79-.36,95.66,95.66,0,0,1-39-16.94q-17.25-12.72-29.32-33.87T1803.08,754.67Zm75.34-24.62-4,8.85a126.27,126.27,0,0,0,39.92,4.5,349.09,349.09,0,0,0,43.08-4.22l-1.43-8.89a285.05,285.05,0,0,1-41.18,3.76A134.39,134.39,0,0,1,1878.42,730.05Z" transform="translate(-261.98 -273.15)"/><rect x="1647.47" y="647.29" width="246.6" height="111.9" transform="translate(669.59 2140.62) rotate(-85.53)"/><path class="cls-4" d="M1829.71,590.19l-18.29,233.89-99.6-7.79,18.3-233.89Z" transform="translate(-261.98 -273.15)"/><polygon points="1282.68 344.3 1402.45 336.87 1411.8 487.48 1488.15 482.73 1494.07 577.95 1297.94 590.13 1282.68 344.3"/><path class="cls-4" d="M1749.69,845.48l-184.14,11.44L1551,623.07l107.8-6.7L1668.17,767l76.35-4.74Z" transform="translate(-261.98 -273.15)"/><path d="M1472.2,853.12c-2.54,0-5.14-.06-7.73-.19a136.58,136.58,0,0,1-46.76-10.36,101.83,101.83,0,0,1-36.81-26.24c-10-11.26-17.68-25.18-22.86-41.38s-7.21-34.77-6.17-55.58c1-20.6,4.94-38.9,11.65-54.4s15.79-28.7,26.85-38.91a103.4,103.4,0,0,1,39.2-22.59,131.69,131.69,0,0,1,40-6c2.49,0,5.05.07,7.59.19a134.19,134.19,0,0,1,46.95,10.53,105.39,105.39,0,0,1,36.73,26.35c10.11,11.28,17.86,25.21,23,41.42s7.22,34.68,6.19,55.28-4.94,38.91-11.65,54.39-15.84,28.7-27,38.92a105.22,105.22,0,0,1-39.17,22.58A130.83,130.83,0,0,1,1472.2,853.12Z" transform="translate(-261.98 -273.15)"/><path class="cls-4" d="M1357.86,719.67q1.48-30,11.16-52.31t25.42-36.89a97.23,97.23,0,0,1,37-21.29,135.08,135.08,0,0,1,90.34,4.5,99,99,0,0,1,34.66,24.85q14.35,16,21.77,39.23t5.92,53.16q-1.49,30-11.16,52.31t-25.57,36.87a98.92,98.92,0,0,1-36.95,21.3,127.77,127.77,0,0,1-45.63,5.54,130.12,130.12,0,0,1-44.72-9.89,95.55,95.55,0,0,1-34.66-24.7q-14.23-16-21.63-39.22T1357.86,719.67Zm78.81-8.4-5.79,7.82A126.46,126.46,0,0,0,1469,731.8a347.66,347.66,0,0,0,43,4.85l.44-9a287.53,287.53,0,0,1-41-4.9A134.3,134.3,0,0,1,1436.67,711.27Z" transform="translate(-261.98 -273.15)"/><polygon points="950.82 336.94 1146.73 312.77 1168.11 486.06 1073.43 497.74 1082.25 569.2 981.01 581.69 950.82 336.94"/><path class="cls-4" d="M1337.54,837.13l-89.32,11-28.73-232.84,184-22.7,9.37,75.93-94.69,11.68,1.29,10.42L1414.15,679l9.26,75-94.68,11.68Z" transform="translate(-261.98 -273.15)"/><polygon points="853.31 534.3 864.58 376.6 808.32 372.58 814.63 284.31 1040.85 300.47 1034.54 388.75 978.29 384.73 967.02 542.42 853.31 534.3"/><path class="cls-4" d="M1082.17,563.87l214.25,15.31-5.45,76.3-56.26-4-11.26,157.7-101.75-7.27L1133,644.19l-56.25-4Z" transform="translate(-261.98 -273.15)"/><path d="M889.37,606l97.3-12.51a283.22,283.22,0,0,1,35.82-2.5,181.44,181.44,0,0,1,20.82,1.14c16.33,1.93,30.27,6.26,41.42,12.87a72.6,72.6,0,0,1,26.76,27.52c6.24,11.26,10.43,24.85,12.43,40.42,1.94,15.12,1,28.34-2.68,39.29a93,93,0,0,1-13.36,25.68l44.73,82.57-115.28,14.82-13-26.24,3.57,27.75L920.81,850.53Z" transform="translate(-261.98 -273.15)"/><path class="cls-3" d="M1118,673.65q2.74,21.42-2.41,36.61a86.13,86.13,0,0,1-14.82,27l42.43,78.33-102.36,13.15L1014.24,775l-.3,0,7.27,56.54L926,843.82,896.08,611.13l91.35-11.74q31.83-4.1,55.18-1.35t39.06,12.07a66.32,66.32,0,0,1,24.57,25.27Q1115.09,651.34,1118,673.65Zm-136.1,4.79-4.4,8.13a61.5,61.5,0,0,0,16.83,5.1,197.71,197.71,0,0,0,21,2.43q11,.72,21.82.37t19.18-1.4l-1.07-8.33a160.6,160.6,0,0,1-18.6,1.18q-10.28.11-20.51-.69a184.54,184.54,0,0,1-19.38-2.5A66.7,66.7,0,0,1,981.87,678.44Z" transform="translate(-261.98 -273.15)"/><path d="M816.49,879.67a129.87,129.87,0,0,1-28.13-3,101.94,101.94,0,0,1-41-19.12c-11.87-9.25-22-21.54-30-36.53S704,788.1,701.22,767.45c-2.74-20.44-2.21-39.15,1.57-55.6s10.31-31.1,19.33-43.14a103.55,103.55,0,0,1,34.44-29.35A134.45,134.45,0,0,1,802.31,625,148.92,148.92,0,0,1,822,623.64a126.42,126.42,0,0,1,28.44,3.16A105.34,105.34,0,0,1,891.3,646c12,9.25,22.14,21.54,30.17,36.54s13.4,32.79,16.14,53.23S939.82,775,936,791.42s-10.36,31.1-19.5,43.18a105.23,105.23,0,0,1-34.41,29.32,134,134,0,0,1-45.91,14.4A148.15,148.15,0,0,1,816.49,879.67Z" transform="translate(-261.98 -273.15)"/><path class="cls-4" d="M707.17,766.66q-4-29.73,1.46-53.47t18.29-40.89a97.26,97.26,0,0,1,32.47-27.65,135,135,0,0,1,89.65-12,99,99,0,0,1,38.6,18.14q17,13.15,28.54,34.62t15.48,51.2q4,29.73-1.47,53.47T911.76,831a98.93,98.93,0,0,1-32.47,27.66,127.7,127.7,0,0,1-43.87,13.74,130.06,130.06,0,0,1-45.76-1.6,95.43,95.43,0,0,1-38.58-18q-16.91-13.17-28.4-34.64T707.17,766.66Zm76-22.58-4.28,8.74a126.46,126.46,0,0,0,39.79,5.57,346.73,346.73,0,0,0,43.18-3l-1.19-8.92a288.28,288.28,0,0,1-41.27,2.65A134.84,134.84,0,0,1,783.14,744.08Z" transform="translate(-261.98 -273.15)"/><path d="M524.16,857.06l38.2-243.62,96.91,15.19c21.46,3.37,39.87,8,54.71,13.73,15.3,5.92,27.57,13.81,36.46,23.44a72.29,72.29,0,0,1,17.75,35.67c2.67,13.48,2.57,29.54-.28,47.74-5.22,33.28-19.23,57.16-41.64,71C712,829,694.55,833.41,674.35,833.41a174.39,174.39,0,0,1-30.63-2.93l-6.93,44.24Z" transform="translate(-261.98 -273.15)"/><path class="cls-4" d="M658.35,634.56q31.71,5,53.47,13.39T746,669.87a66.14,66.14,0,0,1,16.28,32.76q3.81,19.27-.33,45.66-7.44,47.41-38.86,66.78t-84.36,8.34l-7,44.45L531,852.06l36.34-231.77Zm-35.11,88.33a61.62,61.62,0,0,0,14.74,9.6,200.56,200.56,0,0,0,19.51,8.22q10.35,3.75,20.86,6.46t18.8,4l1.3-8.3a159.5,159.5,0,0,1-18.19-4.07q-9.88-2.76-19.49-6.39a184.19,184.19,0,0,1-17.91-7.82,67.16,67.16,0,0,1-13.12-8.28Z" transform="translate(-261.98 -273.15)"/></g><g id="Layer_3" data-name="Layer 3"><path d="M2035.13,964l-11.54-134.11-37.31,3.2.14-2.41-76.64-4.31-2.66,47.45L1883,872.5l-2.71-38.16L1800,840l1.13-17-130.51-8.66L1669.4,832l-86.36,2.1,3.28,134.57L1697.71,966l-.47-19c1.43.77,2.88,1.51,4.38,2.18a73.54,73.54,0,0,0,25.08,6c1.8.12,3.61.18,5.37.18a70.57,70.57,0,0,0,20.46-2.93,59.89,59.89,0,0,0,5.86-2.11l2,27.48,129.47-9.19-.74-10.44a72.34,72.34,0,0,0,24.45,5.39c1.53.09,3.07.13,4.57.13a72.17,72.17,0,0,0,21.06-3,57.14,57.14,0,0,0,22.07-12.47c.37-.33.72-.69,1.08-1l2,23Z" transform="translate(-261.98 -273.15)"/><polygon points="1321.24 549.62 1251.87 545.15 1248.27 553.8 1246.08 544.78 1172.65 540.05 1171.83 552.76 1146.13 555.8 1148.28 547.54 1012.47 562.64 1027.33 696.28 1130.57 684.81 1131.55 693.08 1202.16 684.73 1201.2 676.64 1312.6 683.81 1321.24 549.62"/><rect x="1959.89" y="834.71" width="59.1" height="122.61" transform="translate(-331.47 -99.31) rotate(-4.92)"/><path class="cls-5" d="M2008.16,838.9l9.49,110.2-46.93,4-9.48-110.2Z" transform="translate(-261.98 -273.15)"/><path d="M1909.37,953.57a64.54,64.54,0,0,1-24.58-5.88A57,57,0,0,1,1867.32,935,49.42,49.42,0,0,1,1857,917.87a48.51,48.51,0,0,1-2.73-18.73l1.45-25.91,52.54,2.95,2.66-47.45,64.66,3.63-3.43,61.21c-.58,10.19-2.57,19.22-5.93,26.85a57,57,0,0,1-13.54,19.33,51.24,51.24,0,0,1-19.78,11.16A67.53,67.53,0,0,1,1909.37,953.57Z" transform="translate(-261.98 -273.15)"/><path class="cls-5" d="M1916.59,835.06l52.67,3-3.09,55.22q-.81,14.26-5.43,24.77a50.7,50.7,0,0,1-12.1,17.32,45,45,0,0,1-17.48,9.85,61.13,61.13,0,0,1-21.45,2.41,58.25,58.25,0,0,1-22.3-5.29,50.83,50.83,0,0,1-15.66-11.36,43.15,43.15,0,0,1-9.07-15,42.33,42.33,0,0,1-2.41-16.43l1.12-19.91,47.59,2.67-1.42,25.28,5,.28Z" transform="translate(-261.98 -273.15)"/><polygon points="1550.92 690.59 1549.85 687.8 1550.05 690.65 1499.42 694.24 1490.74 571.94 1608.25 563.6 1616.93 685.9 1550.92 690.59"/><path class="cls-5" d="M1864.67,843.16l7.83,110.33-55.59,4L1803,921.13l2.63,37.11L1767,961l-7.84-110.33,55.74-4,18.21,42.81,3.74-1.26-11.19-25.72L1824.46,846Z" transform="translate(-261.98 -273.15)"/><path d="M1722.6,945.19a67.55,67.55,0,0,1-23-5.51,51.17,51.17,0,0,1-18.27-13.49,56.87,56.87,0,0,1-11.08-20.84c-2.41-8-3.28-17.19-2.61-27.38l4.06-61.17,118.53,7.87-4.06,61.17a77,77,0,0,1-6.19,26.65,56.27,56.27,0,0,1-13.83,19.2,52.68,52.68,0,0,1-19.82,11A66.23,66.23,0,0,1,1722.6,945.19Z" transform="translate(-261.98 -273.15)"/><path class="cls-5" d="M1673.59,878.37l3.66-55.18,51.09,3.39-4.57,68.87,4.94.33,4.57-68.88,50.53,3.36-3.66,55.18a70.91,70.91,0,0,1-5.67,24.57,50.2,50.2,0,0,1-12.34,17.19,46.68,46.68,0,0,1-17.59,9.75A60.26,60.26,0,0,1,1723,939.2a61,61,0,0,1-21-5,45.06,45.06,0,0,1-16.15-11.91,50.78,50.78,0,0,1-9.89-18.66Q1672.65,892.63,1673.59,878.37Z" transform="translate(-261.98 -273.15)"/><rect x="1586.17" y="834.71" width="99.41" height="122.61" transform="translate(-283.33 -233.03) rotate(-1.4)"/><path class="cls-5" d="M1680.92,950.24l-87.39,2.13-2.7-110.57,87.39-2.13.81,33.23-45,1.09.13,5,45-1.09.84,34.22-45,1.09.12,5,45-1.1Z" transform="translate(-261.98 -273.15)"/><polygon points="1252.41 670.21 1252.59 667.36 1251.54 670.16 1217.26 667.95 1216.57 665.04 1216.39 667.89 1165.88 664.64 1173.75 542.42 1236.79 546.49 1242.27 569.02 1251.26 547.42 1310.37 551.22 1302.49 673.44 1252.41 670.21"/><path class="cls-5" d="M1501.16,854.86l-8.23,19.88,3.75,1.23,20.46-49.14L1566,830l-7.1,110.25-38.12-2.46,2.39-37.12L1509.47,937l-25.41-1.63-8.9-37.85-2.39,37.12-38.53-2.48,7.1-110.24,52.65,3.39Z" transform="translate(-261.98 -273.15)"/><rect x="1386.88" y="829.91" width="59.1" height="122.61" transform="translate(-356.88 -100.57) rotate(-6.75)"/><path class="cls-5" d="M1433.32,833.52l13,109.85-46.78,5.53-13-109.84Z" transform="translate(-261.98 -273.15)"/><polygon points="1028.13 685.66 1014.59 563.94 1135.78 550.47 1119.31 613.84 1149.3 672.19 1028.13 685.66"/><path class="cls-5" d="M1343.21,946.87l-47.8,5.31L1283.2,842.39l47.8-5.32,1.83,16.45-6.36,27.32,3.91.56L1340.56,836l49.2-5.47-14.85,57.16L1402,940.34l-49.2,5.47L1340.11,919Z" transform="translate(-261.98 -273.15)"/></g><g id="Layer_5" data-name="Layer 5"><path class="cls-6" d="M741.21,1026.38c-6.4-11.05-13-32.06-18.06-57.75-22-13.54-41-29.75-49.79-42.51l-1-1.5.85-1.6c5.47-10.39,30.51-24.93,51.08-35.54,6.94-30.81,15.92-53.55,24.1-61l1.09-1,1.45.26c10.87,1.93,30.58,16.4,52.85,38.78,11.81-1,22.38-1.51,31.47-1.51,15.53,0,25.57,1.44,30.7,4.41l1.56.9-.07,1.81c-.62,15.46-8.07,39.31-19.52,62.49,9.36,24.47,15,45.74,15.46,58.51l.12,3.22-3.22-.11c-2.5-.08-5.27-.12-8.45-.12-3.38,0-6.86,0-10.48.09-3.94,0-8,.1-12.33.1-11.62,0-21.31-.39-31.24-1.27a409.5,409.5,0,0,1-36.27,24.19c-5.69,3.48-11.06,6.76-16,10.1l-2.66,1.8Z" transform="translate(-261.98 -273.15)"/><path d="M750.37,828.73c11,2,31.61,18.06,52.24,38.94,11.8-1,23-1.62,32.61-1.62,13.72,0,24.34,1.19,29.19,4-.54,13.74-7,36.79-19.79,62.46C854.45,958,859.9,979,860.35,991.28c-2.78-.09-5.63-.12-8.54-.12-7.06,0-14.57.19-22.82.19-9.56,0-20.11-.26-32.13-1.36-21.29,16.28-38.69,25.18-53.06,34.89-6.14-10.61-12.73-31.33-18-58.13-24.53-14.89-42.23-31-50-42.33,4.45-8.45,25.52-21.83,51-34.91,6.35-28.67,15.18-53.24,23.49-60.78m-1.85-6.42-2.18,2c-11.9,10.8-20.86,44.48-24.7,61.17-20.71,10.75-45.4,25.31-51.12,36.16l-1.68,3.21,2,3c9,13.07,27.39,28.91,49.58,42.68,5.13,25.43,11.7,46.25,18.15,57.4l3.22,5.57,5.33-3.61c4.88-3.3,10.23-6.56,15.89-10a416.55,416.55,0,0,0,35.59-23.66c9.62.81,19.09,1.18,30.35,1.18,4.32,0,8.41-.05,12.37-.1,3.65,0,7.09-.09,10.45-.09,3.14,0,5.87,0,8.34.12l6.44.21-.24-6.43c-.48-12.87-6-34-15.19-58.25,11.45-23.47,18.62-46.69,19.25-62.52l.14-3.62-3.13-1.81c-5.6-3.24-16.13-4.81-32.2-4.81-8.81,0-19,.47-30.33,1.41-12.13-12.09-37.64-35.83-53.47-38.64l-2.9-.51Z" transform="translate(-261.98 -273.15)"/><path class="cls-6" d="M1173.67,906.72c-3.3-1.92-6.89-3.79-10.69-5.76a269.44,269.44,0,0,1-24.1-13.74,266,266,0,0,1-27.62,2.62c-4.27.25-8.31.47-12.1.86L1096,891l-.1-3.22c-.26-8.25,2.37-22.11,7.24-38.15-8.44-14.57-14.11-29.17-15.21-39.28l-.2-1.8,1.5-1c4.77-3.21,16.62-4.84,35.24-4.84l4.67,0c7.08-8.13,22.51-24.73,32.44-27.21l1.42-.35,1.16.91c8,6.34,15.28,27.81,18.4,38.14,13.73,5.94,30.33,14.18,34.4,20.77l1,1.54-.92,1.56c-5.16,8.76-16.32,19.74-30,29.56-2.15,16.63-5.44,30.34-9.07,37.76l-1.41,2.89Z" transform="translate(-261.98 -273.15)"/><path d="M1162.25,778.46c5.67,4.48,12.43,19.86,17.78,38,17,7.27,31.1,14.92,34.33,20.15-4.49,7.62-15.14,18.74-30.23,29.4-2.17,17.44-5.48,31-9,38.12-9.66-5.6-21.23-10.54-35.62-20-17,2.76-29.61,2.51-40.71,3.65-.25-7.89,2.31-21.64,7.49-38.44-9.38-15.91-14.52-30.42-15.48-39.22,4.53-3.06,17.71-4.33,33.56-4.33q3,0,6,.06c12.32-14.33,24.8-25.58,31.81-27.33m1.41-6.53-2.86.71c-10.07,2.52-24.36,17.22-33.06,27.11l-3.32,0c-29,0-35,4-36.91,5.36l-3,2,.4,3.6c1.12,10.23,6.66,24.78,14.94,39.32-4.78,16-7.26,29.4-7,37.88l.21,6.43,6.4-.65c3.72-.38,7.73-.61,12-.85,7.72-.44,16.4-.93,26.79-2.49,8.83,5.69,16.54,9.7,23.39,13.27,3.77,2,7.33,3.81,10.57,5.69l5.56,3.23,2.84-5.78c3.73-7.62,7-20.84,9.18-37.41,13.53-9.85,24.56-20.84,29.78-29.71l1.84-3.12-1.91-3.08c-3.55-5.74-15.14-12.93-34.48-21.39-3.87-12.6-10.86-31.87-19-38.3l-2.31-1.82Z" transform="translate(-261.98 -273.15)"/><path class="cls-6" d="M1526.73,453c-4.49-10.42-8.08-29.58-9.9-52.72-18-14.22-33-30.48-39.4-42.65l-.84-1.6,1-1.49c5.94-8.63,29.47-18.84,48.71-26.05,9.33-26.4,19.63-45.5,27.65-51.21l1.2-.85,1.41.42c9.42,2.85,25.3,17.64,42.59,39.67,20.53.67,46.09,2.81,54.48,9.09l1.45,1.08-.28,1.79c-2.16,13.57-11.2,33.79-23.68,53,5.68,22.5,8.4,41.8,7.49,53.11l-.26,3.21-3.18-.49c-5.22-.79-10.78-1.38-16.66-2a363.91,363.91,0,0,1-38.16-5.55A362.51,362.51,0,0,1,1546,447.27c-5.38,2.47-10.45,4.81-15.14,7.23L1528,456Z" transform="translate(-261.98 -273.15)"/><path d="M1555.72,279.74c9.53,2.88,26,19.2,42,39.75,25.44.77,47.4,3.46,54.18,8.54-1.91,12-10,31.68-23.94,53,6,23.46,8.61,42.56,7.73,53.41-15.21-2.32-32.54-2.82-55.79-7.76-20.45,12.12-36.7,18.14-50.37,25.2-4.3-10-8-28.92-9.77-53.07-20-15.68-34-31.7-39.63-42.5,4.8-7,24.75-16.57,48.6-25.43,8.59-24.59,18.93-45.31,27-51.09m-1.08-6.59-2.4,1.71c-11.68,8.32-23.08,36.87-28.27,51.33-27.33,10.33-43.75,19.29-48.82,26.67l-2.06,3,1.69,3.21c6.54,12.47,21.09,28.34,39.16,42.79,1.88,22.87,5.51,41.86,10,52.36l2.54,5.92,5.72-3c4.63-2.39,9.67-4.71,15-7.16a372.92,372.92,0,0,0,33.65-17,370,370,0,0,0,37.33,5.36c5.84.62,11.36,1.21,16.52,2l6.36,1,.52-6.42c.92-11.4-1.72-30.55-7.25-52.82,12.49-19.48,21.2-39.17,23.41-53.08l.57-3.57-2.9-2.17c-7.17-5.36-25.6-8.61-54.79-9.64-9.55-12-29.48-35.44-43.21-39.59l-2.82-.85Z" transform="translate(-261.98 -273.15)"/><path class="cls-6" d="M1725.18,435.74c-2.15-1.25-4.5-2.48-7-3.77a179,179,0,0,1-15.64-8.89,179.51,179.51,0,0,1-17.91,1.68c-2.81.16-5.45.31-7.93.56l-3.2.33-.1-3.22c-.18-5.47,1.52-14.54,4.68-25-5.5-9.58-9.2-19.19-9.93-25.89l-.2-1.8,1.51-1c3.31-2.23,11.31-3.36,23.78-3.36h2.62c4.86-5.55,14.91-16.22,21.58-17.89l1.43-.35,1.15.91c5.4,4.26,10.18,18.12,12.33,25.17,12.8,5.57,20.43,10.25,22.69,13.9l1,1.54-.91,1.56c-3.42,5.81-10.73,13.05-19.69,19.53-1.44,10.86-3.61,19.83-6,24.75l-1.41,2.89Z" transform="translate(-261.98 -273.15)"/><path d="M1718.17,350.36c3.74,2.95,8.19,13.08,11.72,25,11.18,4.78,20.48,9.83,22.61,13.27-3,5-10,12.35-19.91,19.37-1.43,11.49-3.62,20.44-5.9,25.11-6.37-3.69-14-6.94-23.47-13.21-11.21,1.82-19.5,1.66-26.81,2.41-.17-5.2,1.52-14.26,4.93-25.32-6.18-10.49-9.56-20-10.2-25.84,3-2,11.67-2.85,22.11-2.85l4,0c8.12-9.43,16.35-16.84,21-18m1.41-6.53-2.86.71c-6.66,1.67-15.44,10.17-22.2,17.79h-1.27c-19.71,0-23.89,2.81-25.46,3.87l-3,2,.39,3.6c.75,6.82,4.32,16.37,9.67,25.93-3,10.39-4.62,19.12-4.44,24.77l.21,6.43,6.4-.65c2.4-.25,5-.4,7.79-.55,4.94-.28,10.47-.6,17.07-1.55,5.61,3.58,10.53,6.14,14.92,8.42,2.46,1.28,4.78,2.49,6.88,3.7l5.57,3.23,2.83-5.78c2.48-5.07,4.63-13.68,6.12-24.41,8.8-6.52,16-13.75,19.47-19.67l1.84-3.12-1.91-3.08c-.95-1.54-3.77-6.09-22.78-14.51-3-9.72-7.54-21.08-12.93-25.34l-2.31-1.82Z" transform="translate(-261.98 -273.15)"/><path class="cls-6" d="M2208.49,496.23c-4.07-2.36-8.48-4.65-13.15-7.08a327.52,327.52,0,0,1-29.76-17,324.06,324.06,0,0,1-34.11,3.26c-5.25.3-10.22.58-14.89,1.06l-3.2.33-.1-3.22c-.32-10.12,2.93-27.16,8.94-46.91-10.4-17.89-17.38-35.84-18.73-48.21l-.2-1.8,1.5-1c5.73-3.87,20.16-5.83,42.88-5.83,2,0,4,0,6,.05,8.55-9.84,27.58-30.42,39.69-33.44l1.42-.35,1.16.91c9.8,7.73,18.7,34.3,22.45,46.78,16.83,7.27,37.28,17.38,42.22,25.37l.95,1.54-.91,1.56c-6.32,10.72-20.06,24.22-36.89,36.26-2.63,20.48-6.66,37.35-11.12,46.44l-1.41,2.89Z" transform="translate(-261.98 -273.15)"/><path d="M2194.12,339.35c7,5.5,15.27,24.38,21.83,46.64,20.85,8.92,38.18,18.32,42.15,24.74-5.51,9.36-18.59,23-37.11,36.1-2.67,21.41-6.74,38.1-11,46.8-11.86-6.87-26.06-12.94-43.73-24.62-20.91,3.39-36.35,3.09-50,4.48-.31-9.68,2.83-26.57,9.2-47.19-11.52-19.53-17.83-37.35-19-48.16,5.57-3.75,21.74-5.31,41.2-5.31q3.63,0,7.39.07c15.13-17.59,30.46-31.4,39.06-33.55m1.41-6.53-2.86.71c-12.48,3.12-31.17,22.92-40.31,33.33l-4.69,0c-35.16,0-42.23,4.77-44.55,6.34l-3,2,.4,3.6c1.36,12.5,8.23,30.39,18.47,48.26-5.95,19.77-9,36.26-8.7,46.63l.21,6.43,6.4-.66c4.6-.47,9.53-.75,14.75-1a333.21,333.21,0,0,0,33.27-3.12c11,7.1,20.54,12.08,29.05,16.51,4.64,2.41,9,4.69,13,7l5.57,3.23,2.83-5.78c4.56-9.31,8.52-25.61,11.23-46.09,16.67-12.08,30.28-25.57,36.66-36.41l1.84-3.12-1.91-3.08c-4.24-6.87-18.47-15.6-42.3-26-4.06-13.25-13-39-23.06-46.95l-2.31-1.82Z" transform="translate(-261.98 -273.15)"/><path class="cls-6" d="M473.23,703.06c-4.84-3.15-10.11-6.25-15.68-9.53A397,397,0,0,1,422,670.69a398.36,398.36,0,0,1-42.22,1.84c-6.46,0-12.57.05-18.34.34l-3.21.16.06-3.22c.25-12.39,5.36-33.11,14-57-11.47-22.29-19.09-45.29-19.94-60.28l-.1-1.8,1.55-.94c5.32-3.2,16.76-4.82,34-4.82,7.81,0,16.64.33,26.26,1,21.23-22.07,40.11-36.42,50.64-38.48l1.44-.28,1.11,1c8.06,7.08,17.15,29,24.38,58.74,20.13,10,44.63,23.65,50.12,33.65l.87,1.59-1,1.51c-8.28,12.51-26.44,28.55-47.58,42-4.52,25-10.55,45.47-16.57,56.3l-1.56,2.81Z" transform="translate(-261.98 -273.15)"/><path d="M465.29,510.45c8.19,7.18,17.15,30.85,23.78,58.55,25,12.27,45.61,24.9,50.07,33-7.36,11.12-24.26,27-47.8,41.87-4.64,26.07-10.69,46.27-16.47,56.66-14.09-9.18-31.11-17.53-52-33C397,670.39,378.1,669,361.3,669.87c.24-11.89,5.18-32.38,14.3-57.25-12.87-24.68-19.46-46.92-20.22-60.24,5.14-3.09,17.11-4.39,32.44-4.39,8.34,0,17.67.38,27.45,1.08,19.67-20.6,39.34-36.54,50-38.62M467,504l-2.89.56c-15.33,3-39.66,26.38-51.26,38.33-9.14-.6-17.57-.9-25.07-.9-18,0-29.65,1.72-35.53,5.25l-3.1,1.87.2,3.61c.87,15.36,8.19,37.75,19.67,60.32-8.51,23.65-13.51,44.22-13.76,56.71l-.13,6.44,6.43-.33c5.7-.28,11.78-.31,18.21-.33a405.91,405.91,0,0,0,41.36-1.74A402.42,402.42,0,0,0,456,696.11c5.54,3.27,10.78,6.35,15.56,9.47l5.39,3.51,3.13-5.62c6.07-10.92,12.11-31.21,16.67-55.93,21.28-13.72,38.88-29.39,47.36-42.21l2-3-1.74-3.17c-4.66-8.51-21.54-20-50.17-34.28-4-16.16-13.24-48.62-25-58.92L467,504Z" transform="translate(-261.98 -273.15)"/><path class="cls-6" d="M2024.3,719.57c-3-5.48-6.1-15.73-8.39-28.22-10.75-6.9-19.64-14.78-23.91-21.22l-.83-1.25.73-1.33c2.84-5.19,15.06-12.1,25.24-17.16,2-8,6.6-24.51,12.46-29.65l.92-.81,1.21.23c7.65,1.49,20,13.4,25.71,19.32,4.72-.32,9.06-.48,12.91-.48,8.94,0,14.68.84,17.55,2.56l1.29.78-.08,1.51c-.44,7.7-4.14,19-9.94,30.37,4.32,11.94,6.86,22.33,7,28.6l.06,2.68-2.68-.13c-2.88-.14-5.95-.16-9.2-.17a200.51,200.51,0,0,1-21-.88,205.45,205.45,0,0,1-17.67,11.35c-2.79,1.64-5.43,3.2-7.85,4.78l-2.25,1.46Z" transform="translate(-261.98 -273.15)"/><path d="M2031.25,622.62c5.38,1,15.29,9.07,25.2,19.43,5-.35,9.68-.55,13.9-.55,7.68,0,13.68.65,16.26,2.21-.38,6.7-3.69,17.9-10.16,30.34,4.6,12.51,7.09,22.83,7.21,28.82-8.46-.42-18,.27-31-1.13-10.53,7.78-19.09,12-26.19,16.61-2.91-5.23-6-15.4-8.31-28.53-11.86-7.47-20.37-15.47-24.08-21.07,2.24-4.09,12.63-10.45,25.21-16.64,3.32-14,7.83-25.87,12-29.49m-1.45-5.38-1.85,1.62c-6,5.24-10.51,20-13,29.81-21.53,10.82-24.34,16-25.29,17.68l-1.45,2.65,1.67,2.51c4.32,6.53,13.1,14.42,23.72,21.35,2.35,12.43,5.34,22.29,8.47,27.92l2.61,4.69,4.49-2.93c2.37-1.55,5-3.09,7.76-4.72,5-3,10.68-6.29,17.1-10.92,7.88.76,14.43.78,20.26.8,3.22,0,6.26,0,9.09.17l5.35.26-.11-5.36c-.13-6.45-2.53-16.47-6.77-28.38,5.67-11.35,9.27-22.59,9.71-30.4l.17-3-2.58-1.55c-2.09-1.25-6.31-2.92-18.84-2.92-3.59,0-7.59.14-11.92.41-7-7.19-18.43-17.69-26.23-19.2l-2.4-.47Z" transform="translate(-261.98 -273.15)"/><path class="cls-6" d="M940.68,1018.38c-2.51-4.52-5-12.92-6.91-23.15-8.82-5.68-16.11-12.16-19.63-17.47l-.83-1.26.72-1.33c1.94-3.52,8.92-8.3,20.77-14.2,1.66-6.7,5.48-20.15,10.34-24.42l.92-.8,1.21.23c6.35,1.23,16.43,10.91,21.24,15.86,3.81-.25,7.31-.38,10.44-.38,7.43,0,12.23.71,14.66,2.17l1.29.78-.08,1.51c-.36,6.35-3.39,15.63-8.14,25,3.53,9.79,5.61,18.31,5.72,23.48l.05,2.69-2.68-.14c-2.36-.11-4.88-.12-7.54-.13a168.83,168.83,0,0,1-17.12-.71,165.94,165.94,0,0,1-14.44,9.25c-2.29,1.35-4.46,2.63-6.44,3.92l-2.24,1.47Z" transform="translate(-261.98 -273.15)"/><path d="M946.79,938.43c4.43.86,12.57,7.46,20.73,16,4.07-.3,8-.46,11.43-.46,6.32,0,11.25.54,13.37,1.82-.31,5.51-3,14.72-8.36,25,3.78,10.29,5.83,18.78,5.94,23.71-7-.35-14.79.22-25.49-.94-8.66,6.4-15.71,9.86-21.54,13.67-2.4-4.31-4.91-12.67-6.84-23.47-9.75-6.14-16.75-12.72-19.8-17.32,1.84-3.37,10.39-8.6,20.73-13.69,2.74-11.47,6.44-21.28,9.83-24.26m-1.46-5.37-1.84,1.62c-5,4.38-8.76,16.44-10.83,24.57-17.63,8.9-20,13.26-20.82,14.72l-1.45,2.65,1.67,2.52c3.57,5.39,10.76,11.88,19.45,17.6,1.93,10.14,4.4,18.2,7,22.86l2.61,4.69,4.49-2.93c1.93-1.27,4.08-2.53,6.35-3.87,4.08-2.4,8.65-5.1,13.85-8.82,6.37.59,11.68.61,16.42.63,2.63,0,5.12,0,7.43.13l5.36.26-.12-5.36c-.11-5.33-2-13.53-5.49-23.26,4.62-9.32,7.55-18.55,7.91-25l.17-3-2.59-1.55c-1.8-1.09-5.42-2.53-15.94-2.53-2.86,0-6,.11-9.46.31-5.88-6-15.22-14.48-21.75-15.74l-2.41-.47Z" transform="translate(-261.98 -273.15)"/></g></svg>