<svg width="238" height="266" viewBox="0 0 238 266" fill="none" xmlns="http://www.w3.org/2000/svg">
<g clip-path="url(#clip0_248_249)">
<path d="M129.492 265.454C93.7949 265.454 61.5803 257.139 43.327 243.23C10.3643 218.092 16.4808 197.627 19.0316 192.1C18.2572 190.454 17.3296 188.629 16.2796 186.555C9.44112 173.097 -2.00001 150.571 0.563854 118.771C3.34648 84.1089 13.1732 61.92 35.6048 39.661C36.306 38.7094 37.0597 37.7977 37.8624 36.93L37.9061 36.8863L37.9455 36.8556C39.3325 35.6871 40.8332 34.4792 42.4082 33.2669C57.6864 19.6428 75.3928 10.137 93.6287 5.76484C104.772 2.00103 114.914 0.092865 123.787 0.092865C145.186 0.092865 166.384 6.41256 183.482 17.8922C200.58 29.3718 213.01 45.7006 218.37 63.8019C219.442 65.1148 223.401 70.5592 227.269 82.6209C229.146 85.2031 230.739 88.4461 232.134 92.5206L232.156 92.5863C238.21 112.852 238.905 134.342 234.173 154.956C230.791 169.648 225.86 178.869 225.112 180.204C223.677 184.905 222.518 188.257 222.049 189.587C222.535 191.391 223.073 193.272 223.651 195.194L223.856 195.872L223.533 196.502L223.047 197.413C223.047 198.546 222.999 199.702 222.889 200.853C223.327 202.257 224.539 207.308 223.099 214.652C221.59 222.35 216.712 234.232 202.055 247.117C188.977 258.601 161.855 265.459 129.505 265.459L129.492 265.454Z" fill="black"/>
<path d="M21.3767 191.421C21.3767 191.421 6.78974 213.164 44.3902 241.839C81.9906 270.514 173.218 270.111 200.895 245.778C228.573 221.444 221.117 201.037 221.117 201.037L21.3767 191.421Z" fill="#BFCDD6"/>
<path d="M22.8423 197.343C31.0983 210.083 38.4487 213.33 52.6549 220.63C77.156 233.213 100.839 242.294 128.836 241.826C157.275 241.349 190.85 232.145 211.273 211.059C215.648 206.542 219.07 201.304 221.971 195.693C219.49 187.474 217.81 180.218 216.922 172.887C225.847 156.293 230.507 137.741 230.485 118.898C230.485 55.8762 179.404 4.77155 116.393 4.77155C88.3915 4.77155 62.5779 17.4897 43.2789 34.8251C15.037 60.1739 5.10532 83.9734 2.30081 118.911C-1.12934 161.56 20.786 186.804 22.8423 197.343Z" fill="#D8E1EA"/>
<path d="M45.7465 216.88C47.9341 218.127 50.2049 219.361 52.6418 220.617C77.1429 233.204 100.83 242.281 128.827 241.813C157.266 241.336 190.837 232.136 211.26 211.05C215.635 206.534 219.057 201.29 221.962 195.684C219.481 187.461 217.801 180.204 216.909 172.874C225.835 156.282 230.496 137.731 230.472 118.889C230.472 99.2475 221.909 82.2491 216.782 64.6205C206.023 27.617 167.167 1.84366 123.787 1.84366C95.7856 1.84366 58.9246 21.4592 39.0831 38.1688C37.333 39.88 5.55597 78.3015 17.8503 131.052C30.5077 185.259 39.315 181.185 45.7465 216.88Z" fill="#E9EEF4"/>
<path d="M220.181 189.596C220.181 189.596 174.942 227.528 121.442 218.871C76.7229 211.641 60.8847 189.855 63.1642 145.481C65.0324 108.994 70.6501 94.0175 119.381 75.7849C165.789 58.4014 216.79 64.6467 216.79 64.6467C216.79 64.6467 228.258 77.1723 232.572 118.889C235.529 147.652 220.181 189.596 220.181 189.596Z" fill="#D8E1EA"/>
<path d="M200.895 76.2182C178.871 75.6055 137.556 78.7304 102.453 95.4224C83.2026 104.569 72.7984 124.973 73.0346 154.825C73.179 172.598 78.6393 192.025 104.024 200.748C140.483 213.265 176.845 205.684 199.351 194.349C214.288 186.826 223.511 179.469 223.511 179.469C223.511 179.469 245.076 141.831 230.485 93.0941C223.861 73.7586 213.496 76.5727 200.895 76.2182Z" fill="#232A31"/>
<path d="M230.48 93.0854C223.852 73.7587 213.496 76.5728 200.895 76.227C178.871 75.6143 137.547 78.7435 102.453 95.4312C91.1217 100.819 82.9532 110.211 78.1186 123.025C110.307 108.841 147.658 105.882 180.284 122.938C205.988 136.378 219.805 158.186 220.098 182.021C222.286 180.471 223.511 179.504 223.511 179.504C223.511 179.504 245.076 141.818 230.48 93.0854Z" fill="#313A42"/>
<path d="M194.621 90.8489C182.305 91.2866 192.119 100.985 205.586 109.23C219.052 117.476 212.63 90.2143 194.621 90.8489Z" fill="white"/>
<path d="M22.8423 197.343C21.1623 201.627 28.3376 227.852 82.4063 245.8C136.475 263.748 187.822 249.949 210.201 224.311C226.232 205.956 220.168 189.61 220.168 189.61C220.168 189.61 219.669 208.389 188.99 223.611C157.191 239.366 111.987 249.38 57.0564 221.921C32.3847 209.571 22.8423 197.343 22.8423 197.343Z" fill="#D8E1EA"/>
</g>
<defs>
<clipPath id="clip0_248_249">
<rect width="237.074" height="265.362" fill="white" transform="translate(0.19635 0.0974121)"/>
</clipPath>
</defs>
</svg>
