<svg width="1749" height="1207" viewBox="0 0 1749 1207" fill="none" xmlns="http://www.w3.org/2000/svg">
<path d="M1482.96 1.96912H268.52C249.189 1.96912 233.518 17.6437 233.518 36.9792V802.159C233.518 821.495 249.189 837.169 268.52 837.169H1482.96C1502.29 837.169 1517.96 821.495 1517.96 802.159V36.9792C1517.96 17.6437 1502.29 1.96912 1482.96 1.96912Z" fill="#2C2C2C" stroke="#2C2C2C" stroke-linecap="round" stroke-linejoin="round"/>
<path d="M1463.79 59.7416H287.733V752.421H1463.79V59.7416Z" fill="#1E1E1E"/>
<path d="M1740.77 1193.26L1746.83 1160.41H1720.34L1502.17 831.853C1499.14 827.285 1484.54 823.622 1469.54 823.622H279.859C264.858 823.622 250.251 827.285 247.219 831.853L28.9783 1160.41H2.08691L8.22901 1193.65H8.6621C9.01645 1200.23 20.4738 1205.03 37.6796 1205.03H1711.75C1729.39 1205.03 1740.85 1199.99 1740.77 1193.26Z" fill="#2C2C2C" stroke="#2C2C2C" stroke-linecap="round" stroke-linejoin="round"/>
<path d="M1745.57 1155.33L1506.98 792.787C1503.91 788.14 1489.22 784.438 1474.06 784.438H1398.82L1410.32 796.252H345.926L353.8 784.438H275.056C259.937 784.438 245.251 788.14 242.18 792.787L3.74059 1155.33C-2.1259 1164.23 10.3158 1171.52 31.5769 1171.52H1717.74C1739 1171.52 1751.44 1164.23 1745.57 1155.33Z" fill="#F7F7F7" stroke="#2C2C2C" stroke-linecap="round" stroke-linejoin="round"/>
<path d="M1509.14 814.84H1425.6L1501.9 956.416H1602.38L1509.14 814.84Z" fill="#D9D9D9"/>
<path d="M243.361 814.84H326.87L250.487 956.416H150.009L243.361 814.84Z" fill="#D9D9D9"/>
<path d="M1266.81 1148.68H482.43C464.555 1148.68 450.735 1133.55 455.46 1119.06L498.454 987.055C500.294 982.221 503.616 978.094 507.944 975.264C512.273 972.434 517.385 971.047 522.55 971.303H1226.57C1231.73 971.054 1236.84 972.443 1241.17 975.272C1245.5 978.101 1248.82 982.225 1250.66 987.055L1293.62 1119.06C1298.5 1133.55 1284.68 1148.68 1266.81 1148.68Z" fill="#F7F7F7" stroke="#2C2C2C" stroke-linecap="round" stroke-linejoin="round"/>
<path d="M397.543 815.904H337.658L331.161 827.757H391.795L397.543 815.904Z" fill="#2C2C2C" stroke="#2C2C2C" stroke-linecap="round" stroke-linejoin="round"/>
<path d="M388.842 833.782H327.894L317.933 852.055H379.984L388.842 833.782Z" fill="#2C2C2C" stroke="#2C2C2C" stroke-linecap="round" stroke-linejoin="round"/>
<path d="M465.893 833.783H404.945L396.362 852.056H458.452L465.893 833.783Z" fill="#2C2C2C" stroke="#2C2C2C" stroke-linecap="round" stroke-linejoin="round"/>
<path d="M473.965 852.056H536.055L542.118 833.783H481.131L473.965 852.056Z" fill="#2C2C2C" stroke="#2C2C2C" stroke-linecap="round" stroke-linejoin="round"/>
<path d="M551.567 852.055H613.618L618.304 833.782H557.355L551.567 852.055Z" fill="#2C2C2C" stroke="#2C2C2C" stroke-linecap="round" stroke-linejoin="round"/>
<path d="M629.171 852.056H691.222L694.529 833.783H633.541L629.171 852.056Z" fill="#2C2C2C" stroke="#2C2C2C" stroke-linecap="round" stroke-linejoin="round"/>
<path d="M706.774 852.056H768.825L770.714 833.783H709.766L706.774 852.056Z" fill="#2C2C2C" stroke="#2C2C2C" stroke-linecap="round" stroke-linejoin="round"/>
<path d="M784.376 852.056H846.427L846.939 833.783H785.991L784.376 852.056Z" fill="#2C2C2C" stroke="#2C2C2C" stroke-linecap="round" stroke-linejoin="round"/>
<path d="M861.94 852.056H924.03L923.164 833.783H862.176L861.94 852.056Z" fill="#2C2C2C" stroke="#2C2C2C" stroke-linecap="round" stroke-linejoin="round"/>
<path d="M999.35 833.783H938.401L939.543 852.056H1001.63L999.35 833.783Z" fill="#2C2C2C" stroke="#2C2C2C" stroke-linecap="round" stroke-linejoin="round"/>
<path d="M1075.57 833.783H1014.59L1017.15 852.056H1079.24L1075.57 833.783Z" fill="#2C2C2C" stroke="#2C2C2C" stroke-linecap="round" stroke-linejoin="round"/>
<path d="M1151.76 833.783H1090.81L1094.75 852.056H1156.84L1151.76 833.783Z" fill="#2C2C2C" stroke="#2C2C2C" stroke-linecap="round" stroke-linejoin="round"/>
<path d="M1227.99 833.783H1167L1172.35 852.056H1234.44L1227.99 833.783Z" fill="#2C2C2C" stroke="#2C2C2C" stroke-linecap="round" stroke-linejoin="round"/>
<path d="M1249.96 852.056H1312.01L1304.21 833.783H1243.22L1249.96 852.056Z" fill="#2C2C2C" stroke="#2C2C2C" stroke-linecap="round" stroke-linejoin="round"/>
<path d="M1381.5 877.063H1445.08L1434.61 857.884H1372.17L1381.5 877.063Z" fill="#2C2C2C" stroke="#2C2C2C" stroke-linecap="round" stroke-linejoin="round"/>
<path d="M1356.06 857.884H1293.62L1301.45 877.063H1365.04L1356.06 857.884Z" fill="#2C2C2C" stroke="#2C2C2C" stroke-linecap="round" stroke-linejoin="round"/>
<path d="M1327.12 881.71H1263.26L1270.7 901.794H1335.79L1327.12 881.71Z" fill="#2C2C2C" stroke="#2C2C2C" stroke-linecap="round" stroke-linejoin="round"/>
<path d="M1247.12 881.71H1183.22L1189.12 901.794H1254.25L1247.12 881.71Z" fill="#2C2C2C" stroke="#2C2C2C" stroke-linecap="round" stroke-linejoin="round"/>
<path d="M1167.08 881.71H1103.17L1107.55 901.794H1172.67L1167.08 881.71Z" fill="#2C2C2C" stroke="#2C2C2C" stroke-linecap="round" stroke-linejoin="round"/>
<path d="M1087.03 881.71H1023.13L1025.97 901.794H1091.09L1087.03 881.71Z" fill="#2C2C2C" stroke="#2C2C2C" stroke-linecap="round" stroke-linejoin="round"/>
<path d="M1006.99 881.71H943.087L944.386 901.794H1009.51L1006.99 881.71Z" fill="#2C2C2C" stroke="#2C2C2C" stroke-linecap="round" stroke-linejoin="round"/>
<path d="M926.944 881.71H863.043L862.846 901.794H927.928L926.944 881.71Z" fill="#2C2C2C" stroke="#2C2C2C" stroke-linecap="round" stroke-linejoin="round"/>
<path d="M846.9 881.71H782.999L781.266 901.794H846.349L846.9 881.71Z" fill="#2C2C2C" stroke="#2C2C2C" stroke-linecap="round" stroke-linejoin="round"/>
<path d="M766.856 881.71H702.954L699.687 901.794H764.769L766.856 881.71Z" fill="#2C2C2C" stroke="#2C2C2C" stroke-linecap="round" stroke-linejoin="round"/>
<path d="M686.812 881.71H622.91L618.107 901.794H683.229L686.812 881.71Z" fill="#2C2C2C" stroke="#2C2C2C" stroke-linecap="round" stroke-linejoin="round"/>
<path d="M606.768 881.71H542.866L536.527 901.794H601.649L606.768 881.71Z" fill="#2C2C2C" stroke="#2C2C2C" stroke-linecap="round" stroke-linejoin="round"/>
<path d="M1295.67 906.835H1230.27L1237.24 927.904H1303.93L1295.67 906.835Z" fill="#2C2C2C" stroke="#2C2C2C" stroke-linecap="round" stroke-linejoin="round"/>
<path d="M1213.73 906.835H1148.3L1153.65 927.904H1220.35L1213.73 906.835Z" fill="#2C2C2C" stroke="#2C2C2C" stroke-linecap="round" stroke-linejoin="round"/>
<path d="M1175.86 955.353H1244.21L1236.96 933.221H1169.91L1175.86 955.353Z" fill="#2C2C2C" stroke="#2C2C2C" stroke-linecap="round" stroke-linejoin="round"/>
<path d="M1261.49 955.353H1326.02L1321.73 944.681H1257.83L1261.49 955.353Z" fill="#2C2C2C" stroke="#2C2C2C" stroke-linecap="round" stroke-linejoin="round"/>
<path d="M1342.4 955.353H1406.89L1401.89 944.681H1337.99L1342.4 955.353Z" fill="#2C2C2C" stroke="#2C2C2C" stroke-linecap="round" stroke-linejoin="round"/>
<path d="M1337.13 942.593H1400.87L1395.95 932.197H1332.76L1337.13 942.593Z" fill="#2C2C2C" stroke="#2C2C2C" stroke-linecap="round" stroke-linejoin="round"/>
<path d="M1423.31 955.353H1487.8L1482.02 944.681H1418.11L1423.31 955.353Z" fill="#2C2C2C" stroke="#2C2C2C" stroke-linecap="round" stroke-linejoin="round"/>
<path d="M1131.76 906.835H1066.36L1070.1 927.904H1136.8L1131.76 906.835Z" fill="#2C2C2C" stroke="#2C2C2C" stroke-linecap="round" stroke-linejoin="round"/>
<path d="M986.554 927.904H1053.21L1049.79 906.835H984.388L986.554 927.904Z" fill="#2C2C2C" stroke="#2C2C2C" stroke-linecap="round" stroke-linejoin="round"/>
<path d="M967.852 906.835H902.415L902.966 927.904H969.663L967.852 906.835Z" fill="#2C2C2C" stroke="#2C2C2C" stroke-linecap="round" stroke-linejoin="round"/>
<path d="M885.879 906.835H820.481L819.418 927.904H886.115L885.879 906.835Z" fill="#2C2C2C" stroke="#2C2C2C" stroke-linecap="round" stroke-linejoin="round"/>
<path d="M803.905 906.835H738.508L735.831 927.904H802.527L803.905 906.835Z" fill="#2C2C2C" stroke="#2C2C2C" stroke-linecap="round" stroke-linejoin="round"/>
<path d="M721.971 906.835H656.534L652.282 927.904H718.979L721.971 906.835Z" fill="#2C2C2C" stroke="#2C2C2C" stroke-linecap="round" stroke-linejoin="round"/>
<path d="M639.998 906.835H574.601L568.695 927.904H635.392L639.998 906.835Z" fill="#2C2C2C" stroke="#2C2C2C" stroke-linecap="round" stroke-linejoin="round"/>
<path d="M558.025 906.835H492.627L485.146 927.904H551.843L558.025 906.835Z" fill="#2C2C2C" stroke="#2C2C2C" stroke-linecap="round" stroke-linejoin="round"/>
<path d="M261.511 955.353H329.901L340.61 933.221H273.599L261.511 955.353Z" fill="#2C2C2C" stroke="#2C2C2C" stroke-linecap="round" stroke-linejoin="round"/>
<path d="M345.808 955.353H414.158L423.253 933.221H356.202L345.808 955.353Z" fill="#2C2C2C" stroke="#2C2C2C" stroke-linecap="round" stroke-linejoin="round"/>
<path d="M430.064 955.353H498.454L505.856 933.221H438.844L430.064 955.353Z" fill="#2C2C2C" stroke="#2C2C2C" stroke-linecap="round" stroke-linejoin="round"/>
<path d="M514.361 955.353H595.862L601.334 933.221H521.448L514.361 955.353Z" fill="#2C2C2C" stroke="#2C2C2C" stroke-linecap="round" stroke-linejoin="round"/>
<path d="M1076.68 955.353H1158.14L1152.59 933.221H1072.7L1076.68 955.353Z" fill="#2C2C2C" stroke="#2C2C2C" stroke-linecap="round" stroke-linejoin="round"/>
<path d="M612.438 955.353H1053.05L1049.55 933.221H617.635L612.438 955.353Z" fill="#2C2C2C" stroke="#2C2C2C" stroke-linecap="round" stroke-linejoin="round"/>
<path d="M526.724 881.71H462.822L454.948 901.794H520.07L526.724 881.71Z" fill="#2C2C2C" stroke="#2C2C2C" stroke-linecap="round" stroke-linejoin="round"/>
<path d="M1279.37 857.884H1216.92L1223.3 877.063H1286.93L1279.37 857.884Z" fill="#2C2C2C" stroke="#2C2C2C" stroke-linecap="round" stroke-linejoin="round"/>
<path d="M1202.63 857.884H1140.22L1145.18 877.063H1208.77L1202.63 857.884Z" fill="#2C2C2C" stroke="#2C2C2C" stroke-linecap="round" stroke-linejoin="round"/>
<path d="M1125.93 857.884H1063.49L1067.03 877.063H1130.62L1125.93 857.884Z" fill="#2C2C2C" stroke="#2C2C2C" stroke-linecap="round" stroke-linejoin="round"/>
<path d="M1049.23 857.884H986.79L988.877 877.063H1052.5L1049.23 857.884Z" fill="#2C2C2C" stroke="#2C2C2C" stroke-linecap="round" stroke-linejoin="round"/>
<path d="M910.762 877.063H974.348L972.498 857.884H910.093L910.762 877.063Z" fill="#2C2C2C" stroke="#2C2C2C" stroke-linecap="round" stroke-linejoin="round"/>
<path d="M832.608 877.063H896.194L895.801 857.884H833.356L832.608 877.063Z" fill="#2C2C2C" stroke="#2C2C2C" stroke-linecap="round" stroke-linejoin="round"/>
<path d="M754.454 877.063H818.079L819.103 857.884H756.658L754.454 877.063Z" fill="#2C2C2C" stroke="#2C2C2C" stroke-linecap="round" stroke-linejoin="round"/>
<path d="M676.299 877.063H739.925L742.406 857.884H679.961L676.299 877.063Z" fill="#2C2C2C" stroke="#2C2C2C" stroke-linecap="round" stroke-linejoin="round"/>
<path d="M598.185 877.063H661.771L665.669 857.884H603.264L598.185 877.063Z" fill="#2C2C2C" stroke="#2C2C2C" stroke-linecap="round" stroke-linejoin="round"/>
<path d="M520.03 877.063H583.617L588.971 857.884H526.527L520.03 877.063Z" fill="#2C2C2C" stroke="#2C2C2C" stroke-linecap="round" stroke-linejoin="round"/>
<path d="M441.876 877.063H505.502L512.274 857.884H449.83L441.876 877.063Z" fill="#2C2C2C" stroke="#2C2C2C" stroke-linecap="round" stroke-linejoin="round"/>
<path d="M435.537 857.884H314.743L304.27 877.063H427.348L435.537 857.884Z" fill="#2C2C2C" stroke="#2C2C2C" stroke-linecap="round" stroke-linejoin="round"/>
<path d="M445.853 881.71H301.711L290.765 901.794H437.624L445.853 881.71Z" fill="#2C2C2C" stroke="#2C2C2C" stroke-linecap="round" stroke-linejoin="round"/>
<path d="M472.587 906.835H288.009L276.512 927.904H464.712L472.587 906.835Z" fill="#2C2C2C" stroke="#2C2C2C" stroke-linecap="round" stroke-linejoin="round"/>
<path d="M1322.4 927.904H1472.84L1461.35 906.835H1313.78L1322.4 927.904Z" fill="#2C2C2C" stroke="#2C2C2C" stroke-linecap="round" stroke-linejoin="round"/>
<path d="M1329.37 852.055H1431.42L1421.46 833.782H1321.22L1329.37 852.055Z" fill="#2C2C2C" stroke="#2C2C2C" stroke-linecap="round" stroke-linejoin="round"/>
<path d="M1351.54 901.794H1458.59L1447.6 881.71H1342.6L1351.54 901.794Z" fill="#2C2C2C" stroke="#2C2C2C" stroke-linecap="round" stroke-linejoin="round"/>
<path d="M1356.77 815.904H413.331L407.74 827.757H1362.56L1356.77 815.904Z" fill="#2C2C2C" stroke="#2C2C2C" stroke-linecap="round" stroke-linejoin="round"/>
<path d="M1370.75 815.904L1376.73 827.757H1418.15L1411.7 815.904H1370.75Z" fill="#2C2C2C" stroke="#2C2C2C" stroke-linecap="round" stroke-linejoin="round"/>
<path d="M954.387 1185.58H794.928C791.693 1185.56 788.594 1184.27 786.292 1182C783.989 1179.73 782.666 1176.64 782.605 1173.41C782.547 1171.82 782.809 1170.24 783.377 1168.75C783.944 1167.27 784.805 1165.92 785.908 1164.77C787.01 1163.63 788.332 1162.72 789.794 1162.1C791.256 1161.48 792.828 1161.16 794.417 1161.16H954.898C956.487 1161.16 958.059 1161.48 959.521 1162.1C960.983 1162.72 962.305 1163.63 963.407 1164.77C964.51 1165.92 965.371 1167.27 965.938 1168.75C966.506 1170.24 966.768 1171.82 966.71 1173.41C966.649 1176.64 965.326 1179.73 963.023 1182C960.721 1184.27 957.622 1185.56 954.387 1185.58Z" fill="#F7F7F7" stroke="#2C2C2C" stroke-linecap="round" stroke-linejoin="round"/>
<path d="M952.536 1161.12H796.779C794.351 1161.06 791.945 1161.6 789.78 1162.7C787.614 1163.8 785.757 1165.42 784.376 1167.42C785.827 1169.4 787.733 1171 789.932 1172.09C792.132 1173.18 794.561 1173.73 797.015 1173.68H952.339C954.787 1173.72 957.208 1173.17 959.4 1172.09C961.592 1171 963.491 1169.4 964.938 1167.42C963.558 1165.42 961.701 1163.8 959.535 1162.7C957.369 1161.6 954.964 1161.06 952.536 1161.12Z" fill="#2C2C2C" stroke="#2C2C2C" stroke-linecap="round" stroke-linejoin="round"/>
</svg>
