<svg width="424" height="726" viewBox="0 0 424 726" fill="none" xmlns="http://www.w3.org/2000/svg">
<g clip-path="url(#clip0_145_97)">
<path d="M412.012 66.5857C411.667 67.2864 411.302 68.0264 410.754 68.901C410.607 69.1422 410.429 69.3636 410.225 69.5596L409.7 70.4654L409.518 70.8354L406.734 75.6363L401.118 85.3129L388.692 106.698L388.786 106.745L381.229 119.73L373.205 133.385L337.932 194.08L305.397 250.088L305.312 250.261L186.931 454.046L115.164 577.358L71.119 653.169C70.8988 653.552 70.6349 653.907 70.3327 654.229C66.5212 658.479 61.9582 661.989 56.8728 664.582L56.0828 665.015L56.0198 664.984C55.1945 665.428 54.4316 665.825 53.6726 666.195L53.387 666.338L52.6704 667.237C52.5407 667.394 52.3927 667.534 52.2295 667.656C48.426 672.343 44.3796 676.828 40.1071 681.093C37.9677 683.268 35.7043 685.318 33.3281 687.233C32.0398 688.291 30.6764 689.254 29.2487 690.115C27.9459 690.948 26.5414 691.611 25.0696 692.087C24.0725 692.409 23.0272 692.556 21.9799 692.522L20.8139 692.446L20.8333 692.407C20.7057 692.386 20.5796 692.357 20.4559 692.319L20.1336 692.219C19.7905 692.132 19.4571 692.01 19.1385 691.856C18.2798 691.426 17.5167 690.828 16.8947 690.096C16.3397 689.43 15.8976 688.677 15.586 687.867C14.7578 685.252 14.5328 682.482 14.928 679.768C15.252 676.744 15.8163 673.751 16.6155 670.817C17.2824 668.211 18.1017 665.495 19.0804 662.553C20.3172 658.81 21.6951 655.038 23.4381 650.663L22.9628 650.595L22.9535 649.065C22.7935 642.43 23.8915 635.826 26.1895 629.6C26.2308 629.377 26.2898 629.157 26.3659 628.943L26.4396 628.794L26.5094 628.652L29.4609 623.591L30.9404 621.043L31.2156 620.484L37.3829 609.945L54.6407 580.237L223.972 288.764L281.333 189.941C292.828 170.171 304.315 150.396 315.794 130.617L329.223 107.593L329.176 107.57L329.626 106.657L333.594 99.8077L343.983 82.0254L344.062 82.0642L363.416 48.7139L363.459 48.6273L363.56 48.4226C363.808 48.0169 364.01 47.6663 364.204 47.3119L364.721 46.422L364.953 45.9495L365.027 45.8L365.058 45.737C365.119 45.5912 365.189 45.4492 365.267 45.3119L365.663 44.6266L365.877 44.1937C365.931 44.0165 365.999 43.8442 366.081 43.6783C367.903 40.2122 370.332 37.1016 373.254 34.4944C375.65 32.3612 378.462 30.7485 381.513 29.7581C383.158 29.219 384.865 28.8894 386.593 28.7772C391.178 28.5135 395.753 29.4542 399.862 31.5057C401.224 32.1919 402.524 32.9954 403.747 33.9071C404.857 34.7483 405.903 35.672 406.876 36.6703C408 37.83 409.017 39.0901 409.913 40.4348L410.037 40.1829L411.58 43.0068C412.979 45.7037 413.891 48.6261 414.274 51.6396C414.677 54.5073 414.585 57.4227 414.002 60.2593C413.714 61.8225 413.286 63.3565 412.723 64.8428C412.526 65.3817 412.314 65.9717 412.012 66.5857Z" fill="black"/>
<path d="M47.3459 665.457C47.7307 665.773 48.2246 665.925 48.7208 665.88C49.217 665.836 49.6756 665.597 49.9973 665.217C51.1343 663.78 52.1966 662.285 53.18 660.739C53.4853 660.353 53.6399 659.87 53.6151 659.378C53.6002 659.129 53.5348 658.885 53.4227 658.662C53.3107 658.439 53.1545 658.241 52.9635 658.08C52.5836 657.758 52.0914 657.6 51.5951 657.641C51.3447 657.65 51.0992 657.713 50.8751 657.826C50.6511 657.938 50.4537 658.097 50.2962 658.292C49.3006 659.837 48.2238 661.328 47.0703 662.758C46.9968 662.878 46.9346 663.005 46.8843 663.136C46.6926 663.514 46.6335 663.945 46.7165 664.36C46.7995 664.775 47.0197 665.15 47.3418 665.425" fill="#ABAEBB"/>
<path d="M46.993 664.226C47.0369 664.722 47.275 665.181 47.6556 665.502C48.0362 665.823 48.5283 665.981 49.0246 665.941C49.5232 665.892 49.9859 665.659 50.3235 665.289C51.3975 664.271 52.3905 663.17 53.2936 661.998C53.5699 661.612 53.69 661.136 53.6296 660.666C53.5692 660.195 53.3328 659.764 52.9681 659.461C52.6033 659.157 52.1371 659.003 51.6633 659.03C51.1895 659.056 50.7433 659.26 50.4142 659.602C49.5069 660.771 48.5141 661.871 47.444 662.893C47.3388 662.991 47.2542 663.109 47.1949 663.24C47.0474 663.557 46.9833 663.906 47.0088 664.254" fill="#ABAEBB"/>
<path d="M48.6119 665.845C48.9943 666.161 49.4853 666.315 49.9795 666.273C50.4738 666.231 50.9319 665.997 51.2556 665.621C52.1368 664.686 52.9824 663.723 53.7768 662.705C53.9557 662.52 54.0945 662.299 54.1843 662.057C54.2741 661.815 54.3132 661.557 54.2989 661.299C54.2847 661.042 54.2175 660.79 54.1016 660.559C53.9856 660.329 53.8234 660.125 53.625 659.96C53.4266 659.794 53.1964 659.672 52.9486 659.6C52.7008 659.528 52.4409 659.508 52.1849 659.54C51.929 659.573 51.6825 659.659 51.461 659.791C51.2395 659.923 51.0475 660.1 50.8973 660.31C50.1054 661.323 49.2612 662.295 48.3682 663.221C48.265 663.336 48.1786 663.465 48.1115 663.603C47.9406 663.983 47.8963 664.407 47.985 664.814C48.0737 665.22 48.2908 665.587 48.6042 665.861" fill="#ABAEBB"/>
<path d="M48.6505 666.383C49.0341 666.696 49.5251 666.847 50.0185 666.803C50.5118 666.759 50.9683 666.523 51.2902 666.147C52.0457 665.188 52.8091 664.254 53.557 663.35C53.8333 662.965 53.9534 662.489 53.893 662.018C53.8326 661.547 53.5963 661.117 53.2315 660.813C52.8667 660.51 52.4005 660.356 51.9267 660.382C51.4529 660.408 51.0067 660.613 50.6776 660.955C49.9103 661.897 49.1312 662.844 48.3796 663.794C48.2935 663.906 48.2181 664.026 48.1542 664.153C47.9624 664.531 47.9041 664.964 47.9885 665.38C48.073 665.796 48.2953 666.171 48.6195 666.446" fill="#ABAEBB"/>
<path d="M27.8055 646.104C27.6332 646.811 27.4335 647.515 27.222 648.223C26.8294 649.477 26.3819 650.743 25.942 651.955C25.7487 652.4 25.7321 652.903 25.8956 653.36C25.9745 653.598 26.1015 653.817 26.2688 654.003C26.436 654.19 26.6399 654.34 26.8677 654.445C27.0925 654.547 27.3351 654.603 27.5818 654.611C27.8284 654.619 28.0742 654.578 28.3051 654.491C28.536 654.404 28.7475 654.273 28.9275 654.104C29.1074 653.935 29.2523 653.732 29.3539 653.507C30.1957 651.293 30.9129 649.034 31.5022 646.74C31.5453 646.498 31.5399 646.249 31.4865 646.009C31.4331 645.768 31.3327 645.541 31.1911 645.339C31.0494 645.138 30.8693 644.966 30.6611 644.834C30.453 644.703 30.2208 644.613 29.978 644.572C29.5715 644.502 29.1534 644.57 28.7898 644.765C28.4263 644.96 28.1383 645.27 27.9714 645.647C27.899 645.796 27.8421 645.951 27.8016 646.112" fill="#ABAEBB"/>
<path d="M26.9502 646.788C26.6667 647.9 26.3517 649.017 26.017 650.114L25.2313 652.544C25.0443 652.992 25.0196 653.492 25.1615 653.957C25.3404 654.432 25.6975 654.818 26.157 655.034C26.5992 655.237 27.1031 655.261 27.5624 655.1C27.8006 655.019 28.0197 654.89 28.2057 654.721C28.3917 654.552 28.5407 654.346 28.6434 654.116C29.3873 651.91 30.076 649.677 30.6508 647.417C30.7144 647.053 30.6688 646.678 30.5198 646.341C30.3708 646.003 30.1251 645.717 29.8137 645.518C29.5022 645.32 29.139 645.218 28.7698 645.226C28.4006 645.234 28.0421 645.351 27.7394 645.562C27.4852 645.735 27.281 645.972 27.1471 646.249C27.0629 646.418 26.9982 646.596 26.9541 646.78" fill="#ABAEBB"/>
<path d="M26.915 646.8C26.527 648.164 26.139 649.528 25.7234 650.869L25.8814 650.409L25.2999 652.206C25.1043 652.652 25.0836 653.155 25.2418 653.615C25.3672 653.966 25.5944 654.273 25.8945 654.494C26.1946 654.716 26.5539 654.843 26.9266 654.86C27.2994 654.877 27.6686 654.782 27.9873 654.588C28.306 654.394 28.5596 654.109 28.7158 653.77C29.4054 651.674 30.032 649.528 30.6117 647.436C30.6601 647.198 30.6585 646.953 30.6071 646.715C30.5557 646.478 30.4555 646.254 30.3129 646.057C30.171 645.851 29.9891 645.675 29.7779 645.541C29.5667 645.407 29.3305 645.316 29.0836 645.276C28.8454 645.231 28.6007 645.235 28.3638 645.286C28.127 645.338 27.9027 645.436 27.7041 645.574C27.4499 645.747 27.2457 645.984 27.1118 646.261C27.0264 646.433 26.9603 646.613 26.915 646.8Z" fill="#ABAEBB"/>
<path d="M27.2072 645.809C26.4518 648.058 25.7122 650.316 24.8936 652.495C24.6956 652.942 24.6734 653.448 24.8316 653.912C24.957 654.263 25.1842 654.569 25.4843 654.791C25.7843 655.013 26.1437 655.14 26.5164 655.157C26.8892 655.173 27.2585 655.079 27.5771 654.885C27.8958 654.69 28.1494 654.406 28.3056 654.067C29.116 651.825 29.8517 649.576 30.6192 647.381C30.8115 646.93 30.8349 646.424 30.6851 645.956C30.5148 645.494 30.1698 645.118 29.7244 644.907C29.279 644.697 28.7689 644.671 28.304 644.833C27.8683 644.988 27.5025 645.293 27.2732 645.695L27.215 645.813" fill="#ABAEBB"/>
<path d="M27.2524 646.154C26.4926 648.313 25.6776 650.445 24.7919 652.562C24.6892 652.786 24.6316 653.029 24.6226 653.275C24.6135 653.522 24.653 653.768 24.739 653.999C24.825 654.23 24.9557 654.442 25.1236 654.623C25.2915 654.804 25.4934 654.95 25.7177 655.052C25.9419 655.155 26.1842 655.213 26.4308 655.222C26.6773 655.231 26.9232 655.191 27.1545 655.105C27.3857 655.019 27.5978 654.889 27.7785 654.721C27.9593 654.553 28.1051 654.351 28.2079 654.127C29.0818 652.014 29.9047 649.886 30.6684 647.719C30.8574 647.27 30.8752 646.767 30.7186 646.306C30.5541 645.842 30.2152 645.461 29.774 645.244C29.3329 645.027 28.8244 644.991 28.3568 645.143C27.923 645.299 27.56 645.607 27.334 646.009L27.2758 646.127" fill="#ABAEBB"/>
<path d="M26.8224 650.266C26.7449 650.754 26.8607 651.254 27.1452 651.659C27.4297 652.063 27.8606 652.342 28.3466 652.434C29.5862 652.668 30.8117 652.971 32.0175 653.342C34.7804 654.261 37.4303 655.49 39.9163 657.006C42.172 658.424 44.2428 660.117 46.0809 662.046C46.488 662.511 46.8873 662.991 47.271 663.483C47.5572 663.89 47.9912 664.168 48.4802 664.259C48.9692 664.35 49.4743 664.246 49.8876 663.969C50.295 663.684 50.5735 663.25 50.6623 662.761C50.7512 662.271 50.6433 661.767 50.3622 661.357C47.7263 658.039 44.4737 655.261 40.7836 653.178C37.1394 651.022 33.1476 649.517 28.9871 648.73C28.5863 648.665 28.1753 648.731 27.8152 648.919C27.4551 649.106 27.165 649.405 26.9881 649.77C26.9119 649.927 26.8562 650.094 26.8224 650.266Z" fill="#ABAEBB"/>
<path d="M27.895 629.99C25.6311 636.054 24.5541 642.497 24.7228 648.968C25.8775 649.125 27.0247 649.338 28.1644 649.606C32.0906 650.54 35.8743 651.995 39.4147 653.932C42.9801 655.838 46.2963 658.177 49.288 660.896C50.5545 662.078 51.7594 663.324 52.8977 664.63C59.9677 661.137 65.0742 657.44 68.9633 652.978C69.169 652.74 69.3514 652.482 69.508 652.209L75.6055 641.812C112.161 578.889 148.71 515.973 185.253 453.063L244.428 351.193L303.607 249.334L399.488 84.2947L407.942 69.7462L408.081 69.4628L408.765 68.2734C408.919 68.1778 409.047 68.0464 409.139 67.8904C409.558 67.1776 409.95 66.4609 410.315 65.7209C410.575 65.1935 410.838 64.6581 411.035 64.1192C411.571 62.7322 411.99 61.3027 412.288 59.8457C412.816 57.2091 412.899 54.5026 412.533 51.8386C411.829 46.5851 409.457 41.6967 405.765 37.8936C404.854 36.9529 403.873 36.0837 402.829 35.294C401.687 34.4412 400.472 33.6922 399.197 33.0559C396.702 31.7915 394.002 30.9789 391.224 30.6559C389.769 30.4782 388.302 30.4335 386.839 30.522C385.252 30.628 383.685 30.9343 382.175 31.4336C379.346 32.3595 376.742 33.8658 374.53 35.8561C371.786 38.3055 369.503 41.2261 367.789 44.48C367.725 44.6069 367.679 44.7418 367.651 44.8812L367.538 45.1095L367.29 45.5152L366.855 46.2792C366.804 46.3614 366.761 46.4485 366.727 46.539L366.618 46.7595L366.529 46.8425C366.405 47.0943 366.366 47.173 366.323 47.2596L365.807 48.1694L365.154 49.2957C365.101 49.4321 365.036 49.5638 364.961 49.6894L317.416 131.533C305.937 151.312 294.45 171.087 282.955 190.858L225.48 289.594L168.685 387.345L56.1564 581.032L38.9066 610.744L35.8544 616.029L32.7865 621.306L32.5074 621.873C31.0318 624.413 29.5601 626.965 28.0803 629.474C28.0169 629.644 27.9758 629.821 27.9579 630.001" fill="#F7F8FA"/>
<path d="M20.7434 663.03C19.7878 665.904 18.9918 668.574 18.3171 671.176C17.5398 674.029 16.9868 676.939 16.6633 679.879C16.3023 682.326 16.4933 684.822 17.2222 687.186C17.4617 687.816 17.8048 688.402 18.2374 688.918C18.7024 689.458 19.2692 689.9 19.9054 690.219C20.1361 690.325 20.3757 690.41 20.6213 690.474L20.9083 690.566C21.2636 690.647 21.6279 690.682 21.9921 690.669C22.8694 690.672 23.742 690.541 24.5797 690.281C25.8945 689.849 27.1499 689.255 28.3167 688.511C29.6621 687.69 30.9505 686.778 32.1733 685.784C34.5008 683.906 36.7223 681.901 38.8276 679.778C43.2061 675.372 47.3599 670.747 51.2731 665.923L51.9898 665.044C50.6332 663.578 49.1772 662.207 47.6322 660.942C46.0439 659.642 44.3816 658.434 42.6535 657.327C40.8185 656.159 38.91 655.112 36.94 654.191C34.9729 653.27 32.9479 652.479 30.878 651.822L30.9961 651.88C29.4345 651.39 27.8435 650.999 26.2326 650.709L25.329 650.557C23.4892 655.148 22.0147 659.156 20.7277 663.042" fill="#F7F8FA"/>
<path d="M22.1256 690.696C22.9592 690.722 23.7913 690.609 24.5881 690.363C25.9303 689.93 27.2122 689.329 28.4034 688.574C29.7561 687.761 31.0476 686.851 32.2679 685.85C34.5947 683.971 36.8124 681.96 38.9103 679.828C43.299 675.443 47.4522 670.827 51.3521 666.001L51.6793 665.595L52.0688 665.122C51.1102 663.975 50.0645 662.904 48.941 661.919L48.7356 662.336L48.0689 663.69C46.8946 666.058 45.5525 668.339 44.053 670.516C41.9134 673.642 39.5161 676.584 36.886 679.311C32.6047 683.827 27.6541 687.657 22.2079 690.668L22.1256 690.696Z" fill="#F1EFEC"/>
<path d="M331.141 107.432C333.839 108.291 336.556 109.247 339.231 110.31C345.58 112.808 351.697 115.862 357.508 119.436C362.878 122.713 367.96 126.442 372.697 130.582L379.641 118.762L386.519 106.959C386.073 106.514 385.635 106.132 385.197 105.77C377.329 99.2345 368.633 93.7657 359.334 89.5053C354.612 87.3483 349.745 85.524 344.768 84.0455L335.067 100.65L331.145 107.405L331.141 107.432Z" fill="#ABAEBB"/>
</g>
<defs>
<clipPath id="clip0_145_97">
<rect width="760.6" height="97.5781" fill="white" transform="translate(0 682.375) rotate(-63.7863)"/>
</clipPath>
</defs>
</svg>
