<svg width="68" height="106" viewBox="0 0 68 106" fill="none" xmlns="http://www.w3.org/2000/svg">
<path d="M32.8416 66.4747L32.9605 65.368H31.8474H3.19482C3.19469 65.368 3.19457 65.368 3.19444 65.368C2.89303 65.3678 2.59677 65.2886 2.33502 65.138C2.07312 64.9873 1.85473 64.7704 1.70181 64.5084C1.54888 64.2463 1.46684 63.9486 1.46406 63.6446C1.46128 63.3407 1.53782 63.0415 1.68587 62.7767C1.68591 62.7767 1.68595 62.7766 1.68599 62.7765L35.6953 2.01404L35.6954 2.01386C36.6125 0.37456 39.1259 1.16257 38.9211 3.05222L38.921 3.0532L35.0861 38.7732L34.9673 39.88H36.0804L64.7333 39.88H64.7336C65.035 39.8799 65.3313 39.9589 65.5931 40.1094C65.855 40.2599 66.0733 40.4767 66.2262 40.7386C66.3791 41.0004 66.4612 41.2981 66.4639 41.602C66.4667 41.9058 66.3901 42.2049 66.2419 42.4696L67.1145 42.958L66.2419 42.4696L32.2325 103.226C31.3138 104.867 28.8013 104.074 29.0066 102.188L29.0067 102.187L32.8416 66.4747Z" fill="#FEC870" stroke="black" stroke-width="2"/>
</svg>
