<svg width="177" height="168" viewBox="0 0 177 168" fill="none" xmlns="http://www.w3.org/2000/svg">
<g clip-path="url(#clip0_132_454)">
<path d="M127.906 149.461L127.76 149.48C127.402 149.528 127.042 149.553 126.682 149.556L113.201 149.542L113.19 149.452L17.3792 149.523L11.6694 67.2229C11.501 63.5472 11.9616 59.8703 13.0312 56.352L13.0808 56.1895L14.9822 52.979L71.5694 52.9435L73.5611 45.2462C73.3697 45.0449 73.1522 44.8703 72.9146 44.7271C69.6856 42.7627 67.2784 39.6862 66.1427 36.0723C65.6152 35.1983 65.1674 34.2783 64.8049 33.3236C63.4991 29.8476 63.3468 26.0423 64.3705 22.4746C65.3941 18.9069 67.5391 15.7678 70.4857 13.5251C72.8358 11.7382 75.6097 10.5969 78.5341 10.2137C79.231 10.1237 79.9329 10.0779 80.6356 10.0764L96.5648 10.0708C100.259 10.0765 103.852 11.2866 106.804 13.5188C109.756 15.751 111.906 18.8846 112.931 22.4478C114 26.0045 113.903 29.8104 112.656 33.3057C112.286 34.2894 111.827 35.2367 111.284 36.1356C110.991 37.0567 110.618 37.9499 110.168 38.8049C108.885 41.1558 107.03 43.1426 104.777 44.5807L104.685 44.6351C104.514 44.7257 104.356 44.8367 104.212 44.9658L106.266 52.9194L162.316 52.8825L164.229 56.0886L164.25 56.256C165.225 59.4109 165.706 62.6983 165.674 66.0003L165.797 65.8568L165.462 70.1979L165.375 71.3296L160.215 149.441L127.906 149.461ZM99.04 52.9259L97.9207 48.6454L97.9135 48.5896C97.689 47.2831 97.7693 45.9424 98.1482 44.6729C98.0698 43.0327 98.4498 41.4037 99.2454 39.9699C100.041 38.536 101.22 37.3544 102.65 36.5584C104.173 35.6622 105.464 34.4189 106.419 32.9288C106.752 31.0391 106.558 29.0931 105.858 27.3062C105.158 25.5193 103.979 23.9613 102.452 22.8045C100.68 21.4685 98.5275 20.7401 96.3126 20.7271L81.62 20.7357C81.1843 20.7353 80.749 20.7633 80.3169 20.8193C77.8291 21.1506 75.5474 22.3795 73.8977 24.2766C72.248 26.1736 71.3431 28.6092 71.3519 31.1285C71.3823 31.9593 71.5174 32.783 71.754 33.5799C72.5551 34.6581 73.5435 35.5825 74.6716 36.3085C75.7241 36.9246 76.64 37.7504 77.3628 38.735C78.0856 39.7196 78.6 40.8422 78.8743 42.0336C79.1203 42.3959 79.3353 42.7785 79.5168 43.1773C80.2347 44.7524 80.4453 46.5127 80.1193 48.2126L80.0954 48.3008L78.9116 52.9078L99.04 52.9259Z" fill="black"/>
<path d="M46.941 135.646C46.939 136.122 46.9439 136.596 46.944 136.979L51.2744 136.979C52.6714 136.84 53.9911 136.272 55.0531 135.351C56.115 134.43 56.8671 133.202 57.2065 131.835L78.7459 47.972C79.0158 46.5591 78.842 45.0964 78.2485 43.7861C77.6549 42.4757 76.6709 41.3822 75.4323 40.6566C73.8105 39.6478 72.4623 38.2519 71.508 36.5935C70.5537 34.9351 70.023 33.0658 69.9633 31.1523C69.9511 28.0348 71.1728 25.0412 73.3597 22.8298C75.5466 20.6183 78.5197 19.37 81.6255 19.3592L96.3458 19.347C98.8672 19.373 101.314 20.212 103.326 21.7402C105.337 23.2684 106.807 25.4048 107.517 27.834C108.227 30.2632 108.141 32.8566 107.271 35.2312C106.401 37.6059 104.793 39.636 102.684 41.0219C101.44 41.7448 100.448 42.8348 99.8424 44.1438C99.2372 45.4529 99.0481 46.9176 99.301 48.3391L121.192 132.196C121.474 133.562 122.187 134.8 123.224 135.727C124.265 136.653 125.577 137.213 126.963 137.321L131.011 137.322C131.057 136.91 131.058 136.493 131.012 136.081L131.007 134.564L126.769 134.567C126.018 134.425 125.327 134.059 124.788 133.516C124.249 132.973 123.886 132.279 123.747 131.525L101.829 47.6784C101.714 46.8282 101.859 45.963 102.246 45.1983C102.633 44.4335 103.243 43.8056 103.995 43.3982C106.048 42.0859 107.737 40.2728 108.903 38.1277C110.07 35.9827 110.676 33.5756 110.665 31.1309C110.637 27.2511 109.079 23.5388 106.333 20.8057C104.976 19.4576 103.368 18.3915 101.6 17.6686C99.832 16.9457 97.9398 16.5804 96.0317 16.5934L81.3322 16.603C79.4251 16.6041 77.5374 16.9838 75.7778 17.7204C74.0182 18.457 72.4214 19.5358 71.0795 20.8947C68.3594 23.6478 66.8374 27.3714 66.8466 31.2508C66.8424 33.7065 67.4653 36.1229 68.6559 38.2694C69.8465 40.4158 71.565 42.2207 73.6473 43.5117C74.3773 43.9396 74.9691 44.5697 75.3516 45.3264C75.7376 46.0866 75.902 46.9404 75.826 47.7897L54.1874 131.652C54.0159 132.42 53.6206 133.12 53.0519 133.662C52.4831 134.204 51.7664 134.564 50.993 134.696L46.9381 134.696L46.9381 136.115L46.941 135.646Z" fill="#5E5E5E"/>
<path d="M17.6905 148.188L17.7548 149.12L18.6887 149.119L158.924 149.034L159.86 149.034L159.922 148.1L165.245 67.1017L165.246 67.0898L165.246 67.0779C165.398 63.4581 164.929 59.8384 163.861 56.3765L163.826 56.2621L163.764 56.1592L162.348 53.7825L162.057 53.2942L161.488 53.2945L15.8062 53.3828L15.2373 53.3831L14.9469 53.8723L13.5376 56.2462L13.4756 56.3507L13.4404 56.467C12.3919 59.9311 11.9382 63.5495 12.0985 67.1674L12.0991 67.1797L12.0999 67.192L17.6905 148.188Z" fill="#62DFFB" stroke="black" stroke-width="2"/>
<path d="M159.584 133.586L163.991 69.8242C118.466 124.418 39.1305 103.515 22.4974 133.66L159.584 133.586Z" fill="#3BC0EA"/>
<path d="M43.1601 127.328L42.1591 127.328L42.1607 128.329L42.1804 140.209C42.1804 140.21 42.1804 140.21 42.1804 140.211C42.1784 141.338 42.3975 142.454 42.8253 143.496C43.2534 144.539 43.882 145.487 44.6754 146.286C45.4688 147.086 46.4116 147.721 47.4497 148.155C48.4879 148.589 49.6012 148.813 50.7258 148.815L50.7286 148.815L62.821 148.803L63.8222 148.802L63.8199 147.801L63.8029 140.193L63.8029 140.191C63.8004 139.624 63.9092 139.063 64.1231 138.538C64.3369 138.014 64.6515 137.538 65.0486 137.137C65.4458 136.736 65.9177 136.417 66.4374 136.199C66.9567 135.982 67.5138 135.869 68.0767 135.868C68.077 135.868 68.0773 135.868 68.0776 135.868L109.347 135.843C109.348 135.843 109.348 135.843 109.348 135.843C109.911 135.844 110.468 135.956 110.988 136.173C111.508 136.391 111.98 136.709 112.378 137.11C112.776 137.511 113.092 137.988 113.307 138.512C113.521 139.036 113.631 139.597 113.63 140.163L113.63 140.168L113.646 148.152L113.648 149.15L114.647 149.15L126.702 149.142C126.702 149.142 126.703 149.142 126.703 149.142C127.827 149.143 128.94 148.921 129.977 148.487C131.013 148.053 131.954 147.417 132.743 146.616C134.343 144.999 135.238 142.812 135.231 140.533L135.212 128.268L135.21 127.269L134.211 127.27L43.1601 127.328Z" fill="#345672" stroke="black" stroke-width="2"/>
<path d="M78.6118 45.6557L78.6225 45.6145L78.6296 45.5726C78.9235 43.8376 78.6821 42.0534 77.9375 40.4589C77.1961 38.8711 75.9908 37.5464 74.4813 36.6613C72.3634 35.2996 70.7377 33.2886 69.8465 30.9261C68.953 28.5573 68.8462 25.9628 69.5417 23.53C70.2373 21.0971 71.6977 18.9568 73.7044 17.4277C75.7101 15.8993 78.1543 15.0632 80.6729 15.0436C80.6741 15.0435 80.6752 15.0435 80.6764 15.0435L96.5064 15.0357L96.525 15.0357L96.5437 15.035C99.1371 14.9368 101.69 15.714 103.794 17.2432C105.371 18.3941 106.639 19.9216 107.481 21.6877C108.324 23.4543 108.714 25.4036 108.618 27.3591C108.521 29.3145 107.94 31.2141 106.928 32.886C105.917 34.5548 104.509 35.9441 102.83 36.9289C101.287 37.7905 100.056 39.1189 99.311 40.7243C98.5646 42.3329 98.3448 44.1375 98.6826 45.8796L98.6887 45.9108L98.6966 45.9415L122.291 136.479C122.291 136.482 122.292 136.486 122.293 136.489C122.688 138.137 123.578 139.624 124.844 140.747L124.845 140.747C126.115 141.873 127.703 142.575 129.388 142.754L129.442 142.76L129.495 142.759L133.924 142.753L134.818 142.752L134.917 141.864C134.97 141.386 134.973 140.904 134.927 140.426L134.925 138.766L134.923 137.767L133.924 137.768L129.519 137.771C128.943 137.627 128.415 137.332 127.989 136.915C127.538 136.475 127.218 135.916 127.068 135.302L127.065 135.29L103.753 44.9226C103.672 44.2283 103.799 43.5257 104.118 42.9047L104.119 42.9038C104.442 42.274 104.949 41.7595 105.571 41.429L105.609 41.409L105.644 41.3859C107.913 39.9209 109.795 37.9275 111.13 35.5755C112.465 33.2235 113.214 30.5825 113.314 27.8769C113.413 25.1713 112.86 22.481 111.702 20.0346C110.543 17.5883 108.813 15.4579 106.659 13.8251C103.784 11.6436 100.278 10.4622 96.6745 10.4608L96.6733 10.4608L80.745 10.4734L80.7449 10.4734C77.1397 10.4769 73.6358 11.6623 70.7662 13.8489C68.6182 15.4853 66.8962 17.618 65.7462 20.0657C64.5962 22.5133 64.052 25.2037 64.1596 27.9083C64.2673 30.6129 65.0236 33.2523 66.3645 35.6023C67.7054 37.9522 69.5913 39.9436 71.8625 41.407L71.9178 41.4426L71.9772 41.4706C72.6427 41.7849 73.1982 42.2952 73.5692 42.9344C73.9263 43.5495 74.096 44.2557 74.0582 44.9653L50.6824 135.489L50.6777 135.507L50.6737 135.526C50.5355 136.159 50.2072 136.733 49.7338 137.172C49.277 137.594 48.7084 137.873 48.0976 137.976L43.1402 137.927L42.1575 137.917L42.1308 138.9L43.1304 138.927C42.1308 138.9 42.1308 138.9 42.1308 138.9L42.1308 138.9L42.1308 138.9L42.1307 138.901L42.1307 138.904L42.1304 138.913L42.1298 138.944C42.1292 138.97 42.1286 139.008 42.128 139.054C42.1269 139.145 42.1263 139.273 42.1281 139.416C42.1315 139.683 42.1437 140.071 42.1937 140.374L42.1937 140.374C42.1936 140.374 42.1947 140.381 42.1963 140.397C42.198 140.415 42.1998 140.439 42.2015 140.47C42.2052 140.534 42.2077 140.609 42.2108 140.703L42.2116 140.727C42.2172 140.9 42.2246 141.13 42.2473 141.349C42.2686 141.553 42.3136 141.876 42.4556 142.164C42.5309 142.316 42.6671 142.53 42.9094 142.69C43.1778 142.868 43.4882 142.922 43.7817 142.874C43.9729 142.842 44.9538 142.76 45.9696 142.681C46.4592 142.643 46.9338 142.608 47.2861 142.582L47.709 142.551L47.8263 142.543L47.857 142.541L47.8632 142.54C47.8639 142.54 47.8646 142.54 47.8652 142.54C49.6023 142.423 51.2546 141.747 52.5769 140.612C53.8956 139.481 54.8157 137.954 55.2024 136.258L78.6118 45.6557Z" fill="#AAAAAA" stroke="black" stroke-width="2"/>
</g>
<defs>
<clipPath id="clip0_132_454">
<rect width="158.086" height="148.562" fill="white" transform="translate(0.649162 20.297) rotate(-7.3767)"/>
</clipPath>
</defs>
</svg>
