<svg width="426" height="422" viewBox="0 0 426 422" fill="none" xmlns="http://www.w3.org/2000/svg">
<g clip-path="url(#clip0_133_528)">
<path d="M1.1134 411.996L16.1657 383.766L26.0278 373.904L24.6547 372.522L124.83 261.249L227.044 159.804L225.801 158.569L226.984 157.351C227.113 157.222 235.62 148.405 255.543 128.853C253.169 130.201 250.666 131.309 248.073 132.161C247.873 132.195 247.671 132.213 247.468 132.212C245.292 132.212 242.762 129.855 242.036 129.129L240.758 127.851L377.101 3.87506L383.724 6.88897L386.989 3.87506L390.633 7.51939L396.074 2.07881C396.518 1.63257 397.046 1.2785 397.628 1.0369C398.21 0.795302 398.833 0.670929 399.463 0.670929C400.093 0.670929 400.717 0.795302 401.298 1.0369C401.88 1.2785 402.408 1.63257 402.853 2.07881L423.752 22.9776C424.648 23.8761 425.151 25.0935 425.151 26.3628C425.151 27.6321 424.648 28.8495 423.752 29.748L418.311 35.1973L420.902 37.788L419.779 39.0143C419.399 39.4202 381.237 80.7945 334.44 129.501C301.269 164.044 281.683 183.699 272.961 192.352L271.692 193.613L270.405 192.456L271.623 193.682C269.619 195.669 268.358 196.895 267.797 197.447L266.199 198.959L264.956 197.715L163.459 299.998L52.229 400.113L49.3619 397.246L39.4479 407.169L9.42111 420.304L1.1134 411.996ZM278.246 103.697C276.079 105.571 275.241 107.471 274.179 109.88C273.971 110.346 273.756 110.839 273.514 111.357C279.996 105.058 287.251 98.0518 295.276 90.3371C300.849 84.9944 306.298 79.7812 311.624 74.6976L278.246 103.697Z" fill="black"/>
<path d="M415.867 35.1973L422.525 28.5304C423.097 27.9573 423.418 27.1809 423.418 26.3714C423.418 25.562 423.097 24.7856 422.525 24.2125L401.626 3.31372C401.053 2.74208 400.277 2.42105 399.467 2.42105C398.658 2.42105 397.882 2.74208 397.309 3.31372L390.65 9.9806L386.963 6.29309L384.061 8.9702L377.42 5.9563L243.262 127.946C243.262 127.946 246.138 130.822 247.736 130.537C249.333 130.252 261.786 124.785 267.538 117.756C273.289 110.726 272.331 106.529 277.123 102.427L375.348 17.062C359.717 31.6047 329.958 59.4553 296.476 91.6239C247.252 138.948 228.253 158.586 228.253 158.586L229.514 159.847L126.074 262.493L27.0295 372.479L28.489 373.921L17.5819 384.828L3.26367 411.685L9.82692 418.249L38.472 405.709L49.3791 394.802L52.3066 397.73L162.267 298.729L264.956 195.28L266.216 196.541L266.294 196.463L266.519 196.247L266.562 196.195C267.132 195.651 268.384 194.425 270.379 192.447L270.448 192.378L271.683 191.152C280.422 182.473 299.974 162.835 333.127 128.335C380.451 79.1105 418.44 37.8657 418.44 37.8657L415.867 35.1973Z" fill="#B9EF83"/>
<path d="M274.766 185.392L257.071 167.697L239.376 150.002L126.039 262.493L27.0381 372.479L39.6637 385.104L52.2894 397.73L162.267 298.729L274.766 185.392Z" fill="#B9EF83" stroke="#263238" stroke-linecap="round" stroke-linejoin="round"/>
<path d="M333.179 128.292C380.503 79.0673 418.492 37.8226 418.492 37.8226L402.715 22.0449L386.946 6.27582C386.946 6.27582 345.735 44.2735 296.476 91.5893C247.218 138.905 228.253 158.552 228.253 158.552L247.252 177.55L266.251 196.549C266.251 196.549 285.837 177.542 333.179 128.292Z" fill="#B9EF83" stroke="#263238" stroke-linecap="round" stroke-linejoin="round"/>
<path d="M280.837 167.395L270.733 177.723" stroke="#263238" stroke-linecap="round" stroke-linejoin="round"/>
<path d="M407.525 37.788L289.378 158.655" stroke="#263238" stroke-linecap="round" stroke-linejoin="round"/>
<path d="M253.435 193.449L200.765 247.691" stroke="#263238" stroke-linecap="round" stroke-linejoin="round"/>
<path d="M233.659 153.033C229.946 156.773 228.227 158.552 228.227 158.552L266.225 196.549C266.225 196.549 268.004 194.822 271.743 191.117L233.659 153.033Z" fill="#263238" stroke="#263238" stroke-linecap="round" stroke-linejoin="round"/>
<path d="M49.4952 394.675L28.6049 373.785L17.5645 384.825L38.4547 405.716L49.4952 394.675Z" fill="#D4D4D4" stroke="#263238" stroke-linecap="round" stroke-linejoin="round"/>
<path d="M17.5646 384.828L3.2464 411.685L9.80964 418.249L38.4547 405.709L17.5646 384.828Z" fill="#D4D4D4" stroke="#263238" stroke-linecap="round" stroke-linejoin="round"/>
<path d="M4.5853 413.551L0.854279 421.004L8.04858 417.005L4.5853 413.551Z" fill="#030303" stroke="#263238" stroke-linecap="round" stroke-linejoin="round"/>
<path d="M401.626 3.29438L422.529 24.1968C423.104 24.7717 423.427 25.5515 423.427 26.3646C423.427 27.1777 423.104 27.9574 422.529 28.5324L415.775 35.2861L390.537 10.0481L397.297 3.28828C397.872 2.71334 398.652 2.39033 399.465 2.39033C400.278 2.39033 401.058 2.71334 401.633 3.28827L401.626 3.29438Z" fill="white" stroke="#263238" stroke-linecap="round" stroke-linejoin="round"/>
<path d="M384.45 9.11701L377.42 5.92175L243.262 127.946C243.262 127.946 246.138 130.822 247.736 130.537C249.333 130.252 261.786 124.785 267.538 117.756C273.289 110.726 272.331 106.529 277.123 102.427L384.45 9.11701Z" fill="white" stroke="#263238" stroke-linecap="round" stroke-linejoin="round"/>
</g>
<defs>
<clipPath id="clip0_133_528">
<rect width="424.728" height="420.764" fill="white" transform="translate(0.422485 0.671173)"/>
</clipPath>
</defs>
</svg>
