<svg width="273" height="166" viewBox="0 0 273 166" fill="none" xmlns="http://www.w3.org/2000/svg">
<path d="M187.104 5.40079L187.098 5.40127C172.349 6.49359 158.228 11.8078 146.426 20.7067L145.764 21.2053L145.151 20.6484C132.107 8.80042 116.236 0.418431 98.5046 1.50063C81.4609 2.55305 66.3504 12.5199 60.3163 26.5848L59.986 27.3546L59.1703 27.1645C55.8584 26.3924 52.3832 26.7337 49.2845 28.1352C46.1859 29.5368 43.6377 31.92 42.0353 34.9144L42.0318 34.9209L42.0282 34.9273C41.3847 36.0883 40.9883 37.5167 40.7062 39.1296C40.4929 40.3489 40.3532 41.6164 40.2101 42.9151C40.1631 43.3419 40.1157 43.772 40.0652 44.2049C39.8647 45.9238 39.6162 47.6706 39.1348 49.2379C38.652 50.8099 37.913 52.2766 36.6805 53.376L36.6782 53.378C36.241 53.7656 35.6351 54.0575 35.002 54.2946C34.3497 54.5388 33.5758 54.758 32.7337 54.9625C31.2781 55.3159 29.5387 55.6436 27.7465 55.9813C27.4697 56.0335 27.1916 56.0859 26.9132 56.1387C24.8139 56.5364 22.6757 56.9578 20.7723 57.4668C18.8609 57.9779 17.2786 58.5544 16.2306 59.2277C10.1166 63.5572 5.50578 69.6804 3.03968 76.7451C0.571692 83.8152 0.374309 91.4764 2.47508 98.6614C5.70951 109.349 14.1941 118.641 24.7687 124.666C35.3419 130.69 47.8827 133.378 59.1193 131.001C59.9595 130.816 60.833 130.602 61.7264 130.383C63.6663 129.907 65.7003 129.408 67.6926 129.133C70.6541 128.725 73.72 128.773 76.6965 130.092L76.7401 130.112L76.7817 130.135C80.1309 132.02 83.0355 134.601 85.2995 137.703C93.2028 146.401 102.897 153.291 113.719 157.9C124.555 162.515 136.265 164.735 148.043 164.406C164.414 163.669 175.203 158.58 183.618 150.965C191.602 143.74 197.484 134.219 203.953 123.747C204.347 123.109 204.744 122.467 205.143 121.823L205.966 120.493L206.828 121.798C212.095 129.778 223.567 133.273 233.374 132.032L233.375 132.032C255.788 129.225 273.317 112.14 271.197 90.8038C270.71 85.9618 268.557 80.6729 265.213 76.6202C261.872 72.5703 257.427 69.8484 252.357 69.8889L251.279 69.8976L251.352 68.8213C252.454 52.5752 245.465 35.1674 232.658 22.3566L232.655 22.3539C228.584 18.2504 223.951 14.7432 218.893 11.9368C209.138 6.78094 198.11 4.51324 187.104 5.40079Z" fill="#FBFBFB" stroke="black" stroke-width="2"/>
</svg>
