<svg width="448" height="431" viewBox="0 0 448 431" fill="none" xmlns="http://www.w3.org/2000/svg">
<path d="M178.001 426.054C163.233 426.054 152.583 420.936 147.191 411.264C142.784 403.345 139.093 390.442 137.596 377.917C120.729 380.764 109.095 383.035 102.999 384.583C96.0375 386.306 88.8902 387.165 81.7187 387.141C59.0695 387.141 43.1236 378.953 37.9555 364.688C32.2884 349.029 28.7129 307.583 46.1363 282.744C54.9375 270.193 67.6725 263.834 83.9829 263.834H85.147C85.5254 263.797 85.9054 263.78 86.2856 263.783C88.262 263.783 92.1829 264.205 97.3383 266.841C101.758 260.254 107.027 254.279 113.009 249.07C132.678 231.741 154.316 224.941 167.217 222.299C165.641 220.273 164.306 218.071 163.239 215.736C155.608 209.851 137.526 194.332 125.501 171.367C111.352 144.398 109.843 116.2 121.024 87.5162C120.314 87.5738 119.597 87.5994 118.874 87.5994C113.118 87.5994 106.939 85.8211 100.466 82.3028C89.4198 76.3024 83.452 61.9925 85.614 46.6911C88.0957 29.138 100.261 16.3122 118.158 12.3717C122.293 11.4276 126.518 10.9322 130.759 10.894C149.724 10.894 159.99 21.564 164.87 29.0868C185.76 13.8493 211.985 5.77643 240.857 5.77643C261.409 5.77643 283.284 9.83207 304.18 17.5084C313.014 9.28834 324.373 4.95123 337.115 4.95123C343.126 5.01098 349.105 5.84737 354.903 7.43963C375.23 12.813 388.803 27.3021 392.097 47.1965C394.975 64.5001 389.071 81.5415 377.386 90.1454C379.944 99.9391 384.684 122.571 381.338 147.046C377.091 178.09 361.779 201.861 335.81 217.713C337.377 220.214 338.861 222.83 340.287 225.479C341.452 225.283 342.631 225.185 343.812 225.184C348.41 225.14 352.869 226.765 356.361 229.758C358.92 231.524 394.099 256.676 408.414 303.962C417.01 332.365 414.362 360.146 401.327 378.269C392.372 390.73 379.528 397.562 364.228 398.016C363.48 398.016 362.751 398.016 362.035 398.016C333.213 398.016 329.51 380.271 329.03 368.29C314.907 382.772 294.663 393.193 268.764 399.289C267.172 399.66 265.509 399.993 263.692 400.3C247.586 405.545 219.136 414.981 208.492 419.657C198.841 423.75 188.484 425.922 178.001 426.054Z" fill="black"/>
<path d="M179.747 222.478C179.747 222.478 190.205 220.028 196.288 232.969C202.371 245.91 187.807 260.214 169.571 270.929C151.335 281.643 147.824 311.754 142.963 318.688C138.101 325.622 129.562 346.7 104.585 330.202C79.6076 313.705 83.8483 277.287 114.25 250.503C144.651 223.719 179.747 222.478 179.747 222.478Z" fill="#B06D61"/>
<mask id="mask0_281_2" style="mask-type:luminance" maskUnits="userSpaceOnUse" x="88" y="222" width="110" height="115">
<path d="M179.747 222.478C179.747 222.478 190.205 220.028 196.288 232.969C202.371 245.91 187.807 260.214 169.571 270.929C151.335 281.643 147.824 311.754 142.963 318.688C138.101 325.622 129.562 346.7 104.585 330.202C79.6076 313.705 83.8483 277.287 114.25 250.503C144.651 223.719 179.747 222.478 179.747 222.478Z" fill="white"/>
</mask>
<g mask="url(#mask0_281_2)">
<path opacity="0.58" d="M195.936 218.947C195.508 220.451 206.062 242.443 175.98 256.689C145.898 270.935 141.21 310.257 129.825 317.869C118.439 325.482 73.819 350.743 80.8357 274.626C87.8524 198.509 55.6089 342.254 55.6089 342.254L114.691 378.602L160.52 347.167L181.385 285.322L205.371 267.743L195.936 218.947Z" fill="#8E4D41"/>
<path d="M209.273 225.459C209.273 225.459 89.8289 235.426 97.8306 355.924" stroke="#7D311E" stroke-width="0.25" stroke-miterlimit="10"/>
</g>
<path d="M200.004 223.483C199.102 225.044 185.427 241.157 178.257 260.022C171.087 278.886 147.836 288.642 150.568 315.784C153.299 342.926 204.411 412.499 268.259 397.479C332.106 382.459 345.378 345.325 350.822 321.413C356.265 297.501 356.629 246.691 328.006 209.902C299.383 173.113 200.004 223.483 200.004 223.483Z" fill="#B06D61"/>
<mask id="mask1_281_2" style="mask-type:luminance" maskUnits="userSpaceOnUse" x="150" y="196" width="204" height="204">
<path d="M200.004 223.483C199.102 225.044 185.427 241.157 178.257 260.022C171.087 278.886 147.836 288.642 150.568 315.784C153.299 342.926 204.411 412.499 268.259 397.479C332.106 382.459 345.378 345.325 350.821 321.413C356.265 297.501 356.629 246.691 328.006 209.902C299.383 173.113 200.004 223.483 200.004 223.483Z" fill="white"/>
</mask>
<g mask="url(#mask1_281_2)">
<path opacity="0.58" d="M150.644 293.081C150.644 293.081 177.393 289.333 192.098 310.353C206.803 331.373 261.549 396.954 301.967 362.769C342.385 328.584 319.166 264.007 300.777 251.955C282.388 239.904 199.716 285.929 171.221 242.36C142.726 198.791 217.613 146.451 217.613 146.451L349.977 172.538L436.71 246.301L448 369.537L324.686 476.973L189.789 435.848L94.4019 354.133L116.961 288.066L150.644 293.081Z" fill="#74362B"/>
<path d="M205.53 411.686C205.166 408.168 192.68 351.421 223.44 310.398C254.199 269.374 236.386 195.426 236.386 195.426" stroke="#7D311E" stroke-width="0.25" stroke-miterlimit="10"/>
</g>
<path d="M169.942 218.109C166.968 216.574 85.8315 161.426 127.375 77.7801C168.919 -5.86597 258.729 -2.82103 320.011 26.2402C381.294 55.3014 373.669 84.4521 373.669 84.4521C373.669 84.4521 422.92 225.312 257.795 237.633L169.942 218.109Z" fill="#B06D61"/>
<mask id="mask2_281_2" style="mask-type:luminance" maskUnits="userSpaceOnUse" x="115" y="7" width="266" height="231">
<path d="M169.942 218.109C166.968 216.574 85.8315 161.426 127.375 77.7801C168.919 -5.86597 258.729 -2.82103 320.011 26.2402C381.294 55.3014 373.669 84.4521 373.669 84.4521C373.669 84.4521 422.92 225.312 257.795 237.633L169.942 218.109Z" fill="white"/>
</mask>
<g mask="url(#mask2_281_2)">
<path opacity="0.58" d="M107.131 108.166C106.594 110.053 110.195 200.415 212.72 209.147C315.246 217.879 383.5 193.66 362.949 81.4264C342.398 -30.8075 422.211 69.6497 422.063 113.245C421.916 156.84 392.263 222.741 377.673 226.086C363.084 229.432 262.036 263.412 262.036 263.412L143.986 222.984L109.926 170.324L107.131 108.166Z" fill="#8E4D41"/>
<path d="M259.272 0.0767822C257.468 1.61204 169.763 130.081 230.86 243.633" stroke="#7D311E" stroke-width="0.31" stroke-miterlimit="10"/>
</g>
<path d="M131.385 81.6503C131.385 81.6503 140.884 75.8291 144.248 65.1974C147.613 54.5657 169.059 55.8899 169.053 46.3393C169.047 36.7887 156.356 5.90437 118.523 14.2268C80.6887 22.5491 79.6077 68.7925 101.342 80.6204C121.126 91.348 131.385 81.6503 131.385 81.6503Z" fill="#B06D61"/>
<path d="M104.879 64.5577C104.611 65.5045 104.444 78.0744 118.861 77.7417C133.279 77.4091 140.244 66.0994 142.4 58.551C144.555 51.0026 160.635 57.9113 160.226 48.623C159.817 39.3347 142.278 30.2127 123.588 34.7864C104.898 39.3602 104.879 64.5577 104.879 64.5577Z" fill="#F4C2A7"/>
<path d="M335.26 90.9194C335.26 90.9194 323.964 83.3326 320.395 70.1806C316.826 57.0285 290.595 57.5595 291.093 45.8723C291.592 34.1851 308.651 -2.83383 354.416 9.26274C400.182 21.3593 399.133 77.8377 372 91.1433C347.285 103.278 335.26 90.9194 335.26 90.9194Z" fill="#B06D61"/>
<path d="M368.475 71.4152C368.75 72.5794 368.315 87.932 350.745 86.7678C333.174 85.6035 325.243 71.4664 322.998 62.1141C320.753 52.7618 300.765 60.4509 301.75 49.0899C302.735 37.729 324.584 27.5387 347.163 34.07C369.742 40.6012 368.475 71.4152 368.475 71.4152Z" fill="#F4C2A7"/>
<path d="M275.64 213.42C273.625 232.733 246.748 246.006 215.611 243.057C184.474 240.108 160.878 222.063 162.9 202.757C164.921 183.451 191.798 170.177 222.922 173.113C254.046 176.05 277.661 194.102 275.64 213.42Z" fill="#F4CDA7"/>
<mask id="mask3_281_2" style="mask-type:luminance" maskUnits="userSpaceOnUse" x="162" y="172" width="114" height="72">
<path d="M275.64 213.42C273.625 232.733 246.748 246.006 215.611 243.057C184.474 240.108 160.878 222.063 162.9 202.757C164.921 183.451 191.798 170.177 222.922 173.113C254.046 176.05 277.661 194.102 275.64 213.42Z" fill="white"/>
</mask>
<g mask="url(#mask3_281_2)">
<path opacity="0.59" d="M154.265 203.479C155.979 204.254 175.148 239.181 227.719 232.048C280.29 224.916 258.664 179.734 258.664 179.734L290.153 198.483L288.004 239.424L250.234 262.293L190.813 252.058L161.294 228.888L154.265 203.479Z" fill="#D39174"/>
</g>
<path d="M355.075 231.255C355.075 231.255 345.519 221.717 330.456 231.524C315.393 241.33 321.501 266.246 333.871 289.78C346.242 313.315 330.085 347.807 330.673 358.432C331.262 369.057 326.445 397.242 364.043 396.123C401.64 395.003 421.231 353.302 406.469 304.544C391.706 255.787 355.075 231.255 355.075 231.255Z" fill="#B06D61"/>
<mask id="mask4_281_2" style="mask-type:luminance" maskUnits="userSpaceOnUse" x="321" y="227" width="91" height="170">
<path d="M355.075 231.255C355.075 231.255 345.519 221.717 330.456 231.524C315.393 241.33 321.501 266.246 333.871 289.78C346.242 313.315 330.085 347.807 330.673 358.432C331.262 369.057 326.445 397.242 364.043 396.123C401.64 395.003 421.231 353.302 406.469 304.544C391.706 255.787 355.075 231.255 355.075 231.255Z" fill="white"/>
</mask>
<g mask="url(#mask4_281_2)">
<path opacity="0.58" d="M340.108 216.766C339.57 218.685 313.73 235.17 336.468 270.289C359.207 305.408 338.17 350.557 345.301 366.243C352.433 381.928 383.385 438.457 426.272 352.47C469.159 266.483 408.432 441.496 408.432 441.496L321.232 441.221L293.089 377.252L311.747 297.29L297.752 262.619L340.108 216.766Z" fill="#8E4D41"/>
<path d="M321.552 214.892C321.552 214.892 442.621 304.596 354.263 428.114" stroke="#7D311E" stroke-width="0.31" stroke-miterlimit="10"/>
</g>
<path d="M234.16 185.69C233.521 191.818 224.483 195.925 213.91 194.882C203.337 193.839 195.265 188.005 195.873 181.877C196.48 175.749 205.55 171.642 216.117 172.691C226.683 173.74 234.768 179.561 234.16 185.69Z" fill="#471305"/>
<path d="M220.894 182.363C220.568 185.67 215.675 187.897 209.963 187.327C204.251 186.758 199.896 183.617 200.222 180.291C200.548 176.964 205.448 174.757 211.159 175.327C216.871 175.896 221.221 179.056 220.894 182.363Z" fill="#602517"/>
<path d="M292.258 172.659C290.697 178.141 284.486 181.186 278.391 179.446C272.295 177.706 268.617 171.86 270.178 166.371C271.739 160.882 277.949 157.844 284.045 159.577C290.141 161.311 293.819 167.171 292.258 172.659Z" fill="#330C03"/>
<path d="M279.164 167.363C279.161 167.862 279.006 168.348 278.721 168.758C278.436 169.168 278.034 169.482 277.567 169.659C277.1 169.836 276.591 169.868 276.106 169.75C275.621 169.632 275.183 169.371 274.849 169C274.515 168.629 274.301 168.165 274.235 167.67C274.17 167.175 274.255 166.672 274.48 166.227C274.706 165.781 275.06 165.414 275.498 165.174C275.936 164.934 276.435 164.832 276.932 164.881C277.242 164.897 277.545 164.974 277.825 165.108C278.104 165.241 278.355 165.429 278.562 165.659C278.77 165.89 278.93 166.159 279.033 166.451C279.136 166.743 279.181 167.053 279.164 167.363Z" fill="#E8CAC4"/>
<path d="M175.859 167.139C174.298 172.627 168.094 175.666 161.998 173.932C155.903 172.199 152.225 166.339 153.785 160.857C155.346 155.375 161.557 152.323 167.652 154.063C173.748 155.803 177.426 161.65 175.859 167.139Z" fill="#330C03"/>
<path d="M162.765 161.861C162.76 162.359 162.605 162.843 162.32 163.251C162.035 163.659 161.633 163.971 161.168 164.147C160.702 164.322 160.194 164.353 159.711 164.235C159.227 164.117 158.791 163.856 158.459 163.485C158.126 163.115 157.914 162.652 157.849 162.159C157.784 161.666 157.869 161.164 158.094 160.72C158.319 160.276 158.673 159.911 159.11 159.671C159.546 159.432 160.044 159.33 160.54 159.379C161.163 159.416 161.747 159.697 162.164 160.162C162.581 160.627 162.797 161.237 162.765 161.861Z" fill="#E8CAC4"/>
<path d="M209.445 193.737C208.936 196.806 208.81 199.926 209.068 203.025C209.223 205.599 209.793 208.131 210.757 210.523C211.216 211.63 211.82 212.671 212.554 213.619C212.891 214.112 213.308 214.544 213.789 214.898C214.523 215.303 215.289 215.65 216.078 215.934C217.511 216.574 218.976 217.086 220.46 217.553C224.055 218.691 227.969 219.536 231.749 219.043C233.891 218.883 235.913 217.993 237.478 216.521C239.042 215.05 240.055 213.086 240.346 210.957C240.391 210.772 240.096 210.689 240.058 210.881C239.696 212.94 238.714 214.839 237.244 216.325C235.908 217.524 234.261 218.32 232.491 218.621C228.852 219.318 225.001 218.576 221.496 217.559C219.013 216.837 216.594 215.913 214.262 214.796C213.053 214.214 212.253 212.781 211.633 211.642C210.464 209.346 209.74 206.85 209.497 204.286C209.072 200.797 209.154 197.266 209.74 193.801C209.772 193.609 209.477 193.526 209.445 193.718V193.737Z" fill="#602517"/>
<path d="M213.047 213.958C211.107 215.318 208.978 216.385 206.727 217.124C202.384 218.615 197.523 218.819 193.442 216.446C190.244 214.585 187.986 211.501 186.355 208.232C186.272 208.06 186.01 208.232 186.093 208.386C188.715 213.631 193.02 217.981 199.116 218.512C203.158 218.851 207.226 217.572 210.763 215.691C211.609 215.259 212.424 214.768 213.2 214.22C213.354 214.105 213.2 213.849 213.047 213.958Z" fill="#602517"/>
<path d="M198.406 327.791C201.661 340.322 199.486 356.097 178.078 369.55C178.078 369.55 120.135 378.167 102.519 382.728C84.904 387.289 48.3686 387.787 39.7592 364.004C31.1499 340.22 29.2118 264.576 85.2494 265.741C85.2494 265.741 99.6793 263.425 116.962 288.066C128.117 303.975 153.715 306.617 170.46 306.508C176.82 306.451 183.017 308.511 188.077 312.364C193.136 316.217 196.77 321.645 198.406 327.791Z" fill="#B06D61"/>
<mask id="mask5_281_2" style="mask-type:luminance" maskUnits="userSpaceOnUse" x="35" y="265" width="165" height="121">
<path d="M198.406 327.791C201.661 340.322 199.486 356.097 178.078 369.55C178.078 369.55 120.135 378.167 102.519 382.728C84.904 387.289 48.3686 387.787 39.7592 364.004C31.1499 340.22 29.2118 264.576 85.2494 265.741C85.2494 265.741 99.6793 263.425 116.962 288.066C128.117 303.975 153.715 306.617 170.46 306.508C176.82 306.451 183.017 308.511 188.077 312.364C193.136 316.217 196.77 321.645 198.406 327.791Z" fill="white"/>
</mask>
<g mask="url(#mask5_281_2)">
<path opacity="0.58" d="M41.0128 273.78C41.0128 273.78 66.0541 251.078 86.0616 259.65C106.069 268.222 115.574 297.494 104.406 329.901C93.2382 362.307 120.397 372.632 214.422 344.614C308.447 316.595 166.028 430.844 166.028 430.844L42.9188 411.596L0 344.249L41.0128 273.78Z" fill="#8E4D41"/>
<path d="M209.509 342.894C209.509 342.894 109.446 387.301 68.5039 346.502" stroke="#7D311E" stroke-width="0.35" stroke-miterlimit="10"/>
</g>
<path d="M98.7965 330.1C96.0461 354.025 76.7998 366.403 65.7279 370.19C50.9526 375.243 39.8615 347.57 42.6118 323.646C45.3622 299.721 60.1632 281.771 75.6805 283.55C91.1978 285.328 101.547 306.182 98.7965 330.1Z" fill="#D39174"/>
<path d="M280.098 346.323C288.158 357.018 295.584 375.531 273.171 395.253C273.171 395.253 222.679 411.335 207.609 417.955C192.54 424.576 159.996 430.314 148.866 410.33C137.737 390.346 125.059 323.063 175.257 316.027C175.257 316.027 187.807 311.869 206.804 331.379C220.293 345.229 247.055 342.222 261.44 339.318C264.894 338.608 268.479 338.889 271.78 340.128C275.081 341.367 277.965 343.515 280.098 346.323Z" fill="#B06D61"/>
<mask id="mask6_281_2" style="mask-type:luminance" maskUnits="userSpaceOnUse" x="138" y="315" width="151" height="110">
<path d="M280.098 346.323C288.158 357.018 295.584 375.531 273.171 395.253C273.171 395.253 222.679 411.335 207.609 417.955C192.54 424.576 159.996 430.314 148.866 410.33C137.737 390.346 125.059 323.063 175.257 316.027C175.257 316.027 187.807 311.869 206.804 331.379C220.293 345.229 247.055 342.222 261.44 339.318C264.894 338.608 268.479 338.889 271.78 340.128C275.081 341.367 277.965 343.515 280.098 346.323Z" fill="white"/>
</mask>
<g mask="url(#mask6_281_2)">
<path opacity="0.58" d="M136.899 329.606C136.899 329.606 155.979 305.714 175.072 310.473C194.164 315.232 206.906 339.989 201.616 370.54C196.326 401.092 222.084 406.363 301.967 367.738C381.85 329.114 271.265 451.736 271.265 451.736L158.569 452.376L110.501 398.456L136.899 329.606Z" fill="#834135"/>
<path d="M297.374 366.908C297.374 366.908 214.46 421.045 172.008 390.577" stroke="#7D311E" stroke-width="0.31" stroke-miterlimit="10"/>
</g>
<path d="M196.672 371.514C197.683 393.263 182.287 407.113 172.948 412.096C160.489 418.749 146.583 395.643 145.572 373.881C144.562 352.118 155.167 333.951 169.296 333.299C183.426 332.646 195.636 349.751 196.672 371.514Z" fill="#D39174"/>
</svg>
