<?xml version="1.0" encoding="utf-8"?>
<!-- Generator: Adobe Illustrator 26.0.0, SVG Export Plug-In . SVG Version: 6.00 Build 0)  -->
<svg version="1.1" id="Layer_1" xmlns="http://www.w3.org/2000/svg" xmlns:xlink="http://www.w3.org/1999/xlink" x="0px" y="0px"
	 viewBox="0 0 963.3 977.7" style="enable-background:new 0 0 963.3 977.7;" xml:space="preserve">
<style type="text/css">
	.st0{fill:#263238;}
	.st1{fill:#FDFDFD;}
	.st2{fill:#1F2531;}
	.st3{fill:#AF69ED;}
	.st4{fill:#B9EF83;}
	.st5{fill:#F4911E;}
</style>
<g id="Layer_2_00000053531786225573394740000016578355307100947882_">
	<g id="Layer_1-2">
		<path class="st0" d="M120.1,926.8c-10.8,0-21.6-0.9-32.2-2.8c-33.8-6.3-61.5-24.2-76-49c-23.8-40.9-8.6-92.8,16.8-126.1
			c32.3-42.3,81.1-66.8,124.6-85.3c83.3-35.3,171.6-58,257.1-80c24.4-6.3,49.7-12.8,74.4-19.5c12.4-3.3,25-6.6,37.7-9.9
			c90.4-23.5,192.9-50.1,260.7-116.9c49.1-48.4,85.5-104.6,105.2-162.6c8.6-24.2,13.4-49.5,14.2-75.1c1-27.5-1-55.1-5.9-82.2
			l-1.9-1.4C853.3,84.6,807.1,65.5,768,63.5c-62.3-3.1-186.1,18.9-252.5,91.8l-2.9,3.2c-28.3,35.3-53.2,73.2-74.1,113.3
			c-0.7,1.4-1.8,2.5-3.3,3c-0.7,0.3-1.5,0.4-2.3,0.3c-0.8,0-1.5-0.2-2.2-0.6c-1.4-0.7-2.5-1.9-2.9-3.4c-0.2-0.7-0.3-1.5-0.3-2.3
			c0.1-0.8,0.3-1.5,0.6-2.2c11.3-22,23.8-43.3,37.6-63.8c-0.8-1.9-0.6-4.1,0.6-5.7c10.9-15,22.5-29.3,34.8-43.1
			c2.9-3.7,5.8-7.3,8.9-11c48-58,125-129.3,219.9-140.8C790.8-5,835.2,4.9,865.7,32.4c20.1,18.2,33.8,43.9,41.3,78.6
			c46,37.1,64,84,53.4,139.5c-16,83.3-59.7,145.4-111.1,212.1c-136.6,177.3-285.4,306.6-442,383.6c-72.5,35.7-149.8,60.8-229.4,74.7
			C158.8,924.5,139.5,926.5,120.1,926.8z M910.3,129.1c3.2,23.4,4.4,47.1,3.8,70.8c-0.8,26.8-5.8,53.3-14.8,78.6
			c-20.3,59.7-57.7,117.4-108,167.1c-70,69-174.1,96-265.9,119.8c-12.7,3.3-25.3,6.6-37.6,9.9c-24.9,6.7-50.1,13.2-74.7,19.5
			c-85,21.8-172.9,44.4-255.4,79.4c-42,17.9-89.1,41.5-119.9,81.7c-23.2,30.3-37.1,77.1-16,113.3c12.8,22,37.7,37.9,68.2,43.6
			c28.7,5.3,58.2,1.6,85.8-3.2c78.5-13.7,154.7-38.5,226.3-73.7c153-75.2,304.5-206.7,438.1-380.3c50.5-65.5,93.5-126.4,108.9-207.2
			C958,201.7,945,161.7,910.3,129.1z M766.5,11.4c-11.7,0.1-23.5,0.8-35.1,2.2c-65.1,7.8-122.2,45.3-168.3,89.4
			c69-40.5,155.9-53.5,205.5-51c50.4,2.6,96.5,28.7,123.9,48c-7.3-25.6-18.8-45-34.5-59.2C836.2,21.2,806,11.4,766.5,11.4z"/>
		<path class="st1" d="M262,411l78.5,552.7c1.2,8,8.6,13.6,16.6,12.5l334.3-47.6c8-1.2,13.6-8.6,12.5-16.7l-78.5-552.7
			c-0.5-3.9-2.6-7.4-5.7-9.7c-3.1-2.3-7-3.3-10.9-2.8l-334.3,47.4c-8,1.2-13.6,8.6-12.4,16.6C262,410.9,262,410.9,262,411z
			 M480.6,401.4l-67.9,9.6c-1.4,0.2-2.9,0.1-4.3-0.2c-1.4-0.4-2.8-1-3.9-1.9c-1.2-0.9-2.1-2-2.9-3.2c-0.7-1.3-1.2-2.7-1.4-4.1
			c-0.6-4.5,1.5-8.9,5.4-11.2c1.3-0.7,2.7-1.2,4.1-1.4l67.9-9.7c6.1-1,11.8,3.1,12.8,9.2c0.5,3.1-0.3,6.2-2.2,8.6
			C486.3,399.5,483.6,401.1,480.6,401.4L480.6,401.4z"/>
		<path class="st2" d="M355,977.7c-8,0-14.9-5.9-16-13.9l-78.4-552.7c-1.2-8.8,4.9-17,13.7-18.3l334.3-47.5
			c8.8-1.2,17,4.9,18.2,13.7l78.5,552.7c0.6,4.2-0.5,8.6-3,12c-1.3,1.7-2.9,3.1-4.7,4.2c-1.8,1.1-3.9,1.8-6,2.1l-334.3,47.5
			C356.5,977.7,355.8,977.7,355,977.7z M610.7,348.2c-0.6,0-1.2,0-1.9,0l-334.2,47.6c-1.7,0.2-3.4,0.8-4.9,1.7
			c-1.5,0.9-2.8,2.1-3.9,3.5c-1,1.4-1.8,3-2.2,4.7c-0.4,1.7-0.5,3.4-0.3,5.2l78.5,552.7c1,7.2,7.8,12.3,15,11.3l334.3-47.6
			c5.3-0.7,9.7-4.6,11-9.8c0.4-1.7,0.5-3.4,0.3-5.2l-78.5-552.7c-1-6.5-6.5-11.4-13.2-11.4L610.7,348.2z M411,412.7
			c-7-0.2-12.4-6-12.2-12.9c0.2-6,4.6-11.1,10.5-12.1l67.9-9.6c3.3-0.5,6.7,0.4,9.3,2.4c5.6,4.1,6.7,11.9,2.7,17.4
			c-2,2.7-5,4.5-8.4,5l-67.9,9.7C412.2,412.6,411.6,412.6,411,412.7L411,412.7z M479,380.7c-0.5,0-0.9,0-1.4,0l-67.9,9.6
			c-2.6,0.4-4.8,1.8-6.4,3.8c-3.2,4.3-2.3,10.4,2,13.6c1,0.8,2.2,1.3,3.4,1.6c1.2,0.3,2.5,0.4,3.8,0.2l67.8-9.7
			c1.3-0.2,2.5-0.6,3.6-1.2c1.1-0.7,2.1-1.5,2.8-2.5c1.5-2.1,2.2-4.7,1.9-7.2c-0.7-4.8-4.8-8.3-9.6-8.4L479,380.7z"/>
		<path class="st3" d="M614.2,410.1l-327.5,46.6l70.8,498.6L685,908.7L614.2,410.1z"/>
		<path class="st2" d="M357.6,956.7c-0.3,0-0.7-0.1-0.9-0.3c-0.3-0.2-0.4-0.5-0.5-0.9l-70.8-498.5c0-0.2,0-0.4,0-0.6
			c0-0.2,0.1-0.4,0.2-0.5c0.2-0.3,0.6-0.5,0.9-0.5L614,408.7c0.2,0,0.4,0,0.5,0c0.2,0,0.4,0.1,0.5,0.2c0.2,0.1,0.3,0.2,0.4,0.4
			c0.1,0.2,0.2,0.3,0.2,0.5l70.8,498.5c0.1,0.4,0,0.8-0.3,1.1c-0.1,0.1-0.3,0.3-0.4,0.4c-0.2,0.1-0.3,0.2-0.5,0.2l-327.4,46.6H357.6
			z M288.4,457.9l70.4,495.7l324.6-46.2L613,411.7L288.4,457.9z"/>
		<path class="st1" d="M395,263l18.6,130.7c0.1,0.7,0.3,1.3,0.6,1.9c0.3,0.6,0.8,1.1,1.3,1.5c0.5,0.4,1.1,0.7,1.8,0.9
			c0.7,0.2,1.3,0.2,2,0.1l51.1-7.3c1.3-0.2,2.5-0.9,3.3-2c0.4-0.5,0.7-1.1,0.9-1.8c0.2-0.7,0.2-1.3,0.1-2l-18.6-130.6L395,263z
			 M430.4,292.4c-4.5,0-8.1-3.7-8-8.2c0-4.5,3.7-8.1,8.2-8s8.1,3.7,8,8.2c0,4.4-3.6,8-8,8H430.4z"/>
		<path class="st2" d="M418.7,399.5c-3.3,0-6-2.5-6.4-5.7l-18.6-130.7c-0.1-0.8,0.5-1.5,1.2-1.6l61.1-8.6c0.4,0,0.8,0.1,1.1,0.3
			c0.2,0.1,0.3,0.2,0.4,0.4c0.1,0.2,0.2,0.3,0.2,0.5l18.6,130.7c0.2,1.7-0.2,3.4-1.2,4.8c-0.5,0.7-1.2,1.3-1.9,1.7
			c-0.7,0.4-1.5,0.7-2.4,0.8l-51.1,7.3L418.7,399.5z M396.7,264.2L415,393.5c0.3,2,2.1,3.4,4.1,3.1l51.1-7.3c1-0.1,1.8-0.7,2.4-1.4
			c0.3-0.4,0.5-0.8,0.6-1.3c0.1-0.5,0.1-0.9,0.1-1.4L455,256L396.7,264.2z M428.9,293.9c-6.7-0.5-11.8-6.3-11.3-13.1
			s6.3-11.8,13.1-11.3s11.8,6.3,11.3,13.1c-0.4,6.1-5.3,10.9-11.3,11.3C430.1,293.9,429.5,293.9,428.9,293.9L428.9,293.9z
			 M428.9,272.2h-1.3c-1.2,0.2-2.4,0.6-3.5,1.2c-1.1,0.6-2,1.5-2.7,2.5c-2.3,3.1-2.5,7.2-0.6,10.5c0.6,1.1,1.5,2,2.5,2.7
			c4.3,2.9,10.2,1.8,13.1-2.5c2.7-4,2-9.5-1.8-12.6C433,272.8,431,272.1,428.9,272.2L428.9,272.2z"/>
		<path class="st1" d="M403,318.9l61.1-8.7l10.6,74.4c0.2,1.4-0.2,2.9-1,4.1c-0.9,1.2-2.2,1.9-3.6,2.1l-50.3,7.1
			c-3,0.4-5.8-1.7-6.2-4.7L403,318.9z"/>
		<path class="st2" d="M419,399.4c-3.4,0-6.4-2.5-6.9-6L401.6,319c0-0.2,0-0.4,0-0.6c0-0.2,0.1-0.4,0.2-0.5c0.1-0.2,0.3-0.3,0.4-0.4
			c0.2-0.1,0.3-0.2,0.5-0.2l61.2-8.6c0.4,0,0.7,0.1,1,0.3c0.3,0.2,0.5,0.6,0.6,0.9l10.6,74.4c0.2,1.8-0.2,3.7-1.3,5.1
			c-1.1,1.5-2.7,2.4-4.6,2.7l-50.2,7.2L419,399.4z M404.8,320l10.3,73c0.3,2.2,2.4,3.8,4.6,3.4c0,0,0,0,0,0l50.2-7.1
			c1.1-0.2,2-0.7,2.7-1.6c0.3-0.4,0.6-0.9,0.7-1.4c0.1-0.5,0.2-1.1,0.1-1.6l-10.4-73L404.8,320z"/>
		<path class="st1" d="M447.9,335.8c-0.9-6.1-6.5-10.4-12.6-9.5c-6.1,0.9-10.4,6.5-9.5,12.6c0.9,6.1,6.5,10.4,12.6,9.5
			c2.9-0.4,5.6-2,7.4-4.4C447.5,341.7,448.3,338.8,447.9,335.8z"/>
		<path class="st2" d="M436.8,350c-5.3,0-10.1-3.4-11.9-8.4c-2.3-6.6,1.2-13.8,7.7-16.1c4-1.4,8.3-0.7,11.7,1.8
			c5.6,4.2,6.8,12.1,2.6,17.7C444.7,348.3,440.9,350.2,436.8,350L436.8,350z M436.8,327.7c-0.5,0-0.9,0-1.4,0
			c-5.1,0.8-8.6,5.6-7.8,10.7c0.8,5.1,5.6,8.6,10.7,7.8c5.1-0.8,8.6-5.6,7.8-10.7c-0.7-4.6-4.7-7.9-9.3-7.9V327.7z"/>
		<path class="st1" d="M441,337c-0.2-1.1-0.8-2-1.6-2.6c-1.9-1.3-4.5-0.9-5.8,0.9c-0.6,0.8-0.9,1.8-0.8,2.8c0.1,0.6,0.2,1.1,0.5,1.6
			c0.3,0.5,0.6,0.9,1.1,1.3c0.4,0.3,0.9,0.6,1.5,0.8c1.1,0.3,2.3,0.1,3.2-0.5c0.5-0.3,0.9-0.7,1.2-1.1
			C440.9,339.3,441.2,338.1,441,337z"/>
		<path class="st2" d="M436.9,343c-3.2,0.1-5.8-2.4-5.8-5.6c-0.1-3.2,2.4-5.8,5.6-5.8c0.6,0,1.2,0.1,1.8,0.2c1.1,0.3,2,1,2.7,1.8
			c0.7,0.9,1.1,1.9,1.3,3c0.2,1.5-0.2,2.9-1.1,4.1c-0.9,1.2-2.2,2-3.7,2.2L436.9,343z M436.9,334.7h-0.4c-1.5,0.2-2.4,1.6-2.2,3.1
			c0.2,1.5,1.5,2.5,3,2.3c0.7-0.1,1.3-0.5,1.8-1.1c0.4-0.6,0.6-1.3,0.5-2C439.3,335.7,438.1,334.7,436.9,334.7L436.9,334.7z"/>
		<path class="st1" d="M426.9,267c-8,1.2-13.6,8.6-12.4,16.6s8.6,13.6,16.6,12.4c8-1.2,13.6-8.6,12.4-16.6
			c-0.8-5.9-5.1-10.7-10.9-12.1C430.7,266.8,428.8,266.7,426.9,267z M430.5,292.4c-6,0.9-11.5-3.3-12.3-9.2
			c-0.9-6,3.3-11.5,9.2-12.3c6-0.9,11.5,3.3,12.3,9.2c0.4,2.9-0.3,5.8-2.1,8.1C435.9,290.4,433.3,292,430.5,292.4L430.5,292.4z"/>
		<path class="st2" d="M428.9,297.8c-8.9,0-16.2-7.3-16.1-16.2c0-3.5,1.1-6.9,3.2-9.7c2.6-3.4,6.4-5.7,10.6-6.3
			c8.9-1,16.9,5.5,17.8,14.3c0.9,8.5-4.9,16.2-13.3,17.7C430.4,297.7,429.7,297.8,428.9,297.8z M427.1,268.3
			c-7.3,1-12.4,7.8-11.4,15.1c1,7.3,7.8,12.4,15.1,11.4c7.3-1,12.4-7.8,11.4-15.1c-0.5-3.5-2.4-6.7-5.2-8.8
			C434.1,268.7,430.5,267.8,427.1,268.3z M428.9,293.8c-6.3-0.1-11.3-5.3-11.2-11.5s5.3-11.3,11.5-11.2c6.3,0.1,11.3,5.3,11.2,11.5
			c-0.1,5.6-4.2,10.3-9.8,11.1c-0.6,0.1-1.2,0.2-1.8,0.2V293.8z M428.9,272.1c-0.4,0-0.9,0-1.3,0c-2.5,0.3-4.7,1.7-6.2,3.7
			c-1.5,2-2.1,4.5-1.8,7c0.7,5.2,5.5,8.7,10.7,8c5.2-0.7,8.7-5.5,8-10.7c-0.4-3-2.3-5.6-5-7C431.9,272.3,430.5,272,428.9,272.1
			L428.9,272.1z"/>
		<path class="st1" d="M564.1,438.6l-221.3,31.5l46.1,324.4L610.2,763L564.1,438.6z"/>
		<path class="st2" d="M388.9,795.9c-0.3,0-0.6-0.1-0.9-0.3c-0.3-0.3-0.5-0.6-0.5-1l-46.1-324.4c-0.1-0.4,0-0.8,0.3-1.1
			c0.2-0.3,0.6-0.5,1-0.6l221.3-31.5c0.4,0,0.8,0.1,1.1,0.3c0.3,0.2,0.5,0.6,0.6,1l46.1,324.4c0,0.4-0.1,0.8-0.3,1.1
			c-0.1,0.2-0.3,0.3-0.4,0.4c-0.2,0.1-0.3,0.2-0.5,0.2l-221.3,31.5H388.9z M344.4,471.3l45.8,321.6l218.5-31.1l-45.8-321.6
			L344.4,471.3z"/>
		<path class="st2" d="M669.1,796.4L341.6,843l16,112.3L685,908.7L669.1,796.4z"/>
		<path class="st2" d="M426.7,873.2l-1.3,0.2l3.2,22.5l1.3-0.2L426.7,873.2z"/>
		<path class="st2" d="M440.1,871.3l-1.3,0.2L442,894l1.3-0.2L440.1,871.3z"/>
		<path class="st2" d="M443.6,870.5l-1.3,0.2l3.2,22.5l1.3-0.2L443.6,870.5z"/>
		<path class="st2" d="M446.8,870l-1.3,0.2l3.2,22.5l1.3-0.2L446.8,870z"/>
		<path class="st2" d="M453.8,869l-1.3,0.2l3.2,22.5l1.3-0.2L453.8,869z"/>
		<path class="st2" d="M456.5,868.6l-1.3,0.2l3.2,22.5l1.3-0.2L456.5,868.6z"/>
		<path class="st2" d="M431.7,872.5l-2.6,0.4l3.2,22.5l2.6-0.4L431.7,872.5z"/>
		<path class="st2" d="M469.3,866.8L468,867l3.2,22.5l1.3-0.2L469.3,866.8z"/>
		<path class="st2" d="M474.2,866.1l-2.6,0.4l3.2,22.5l2.6-0.4L474.2,866.1z"/>
		<path class="st2" d="M438.9,871.1l-2.6,0.4l3.2,22.5l2.6-0.4L438.9,871.1z"/>
		<path class="st2" d="M451,869.8l-2.6,0.4l3.2,22.5l2.6-0.4L451,869.8z"/>
		<path class="st2" d="M462.3,867.8L461,868l3.2,22.5l1.3-0.2L462.3,867.8z"/>
		<path class="st2" d="M465.1,867.4l-1.3,0.2l3.2,22.5l1.3-0.2L465.1,867.4z"/>
		<path class="st2" d="M460.4,868.1l-2.6,0.4l3.2,22.5l2.6-0.4L460.4,868.1z"/>
		<path class="st2" d="M479.4,865.4l-1.3,0.2l3.2,22.5l1.3-0.2L479.4,865.4z"/>
		<path class="st2" d="M492.8,863.5l-1.3,0.2l3.2,22.5l1.3-0.1L492.8,863.5z"/>
		<path class="st2" d="M495.5,863.1l-1.3,0.2l3.2,22.5l1.3-0.2L495.5,863.1z"/>
		<path class="st2" d="M498.6,862.7l-1.3,0.2l3.2,22.5l1.3-0.2L498.6,862.7z"/>
		<path class="st2" d="M505.7,861.6l-1.3,0.2l3.2,22.5l1.3-0.2L505.7,861.6z"/>
		<path class="st2" d="M508.3,861.3l-1.3,0.2l3.2,22.5l1.3-0.2L508.3,861.3z"/>
		<path class="st2" d="M484.4,864.6l-2.6,0.4l3.2,22.5l2.6-0.4L484.4,864.6z"/>
		<path class="st2" d="M521.1,859.5l-1.3,0.2l3.2,22.5l1.3-0.2L521.1,859.5z"/>
		<path class="st2" d="M526,858.8l-2.6,0.4l3.2,22.5l2.6-0.4L526,858.8z"/>
		<path class="st2" d="M490,864.3l-2.6,0.4l3.2,22.5l2.6-0.4L490,864.3z"/>
		<path class="st2" d="M502.8,862.5l-2.6,0.4l3.2,22.5l2.6-0.4L502.8,862.5z"/>
		<path class="st2" d="M514.2,860.5l-1.3,0.2l3.2,22.5l1.3-0.2L514.2,860.5z"/>
		<path class="st2" d="M516.9,860l-1.3,0.2l3.2,22.5l1.3-0.2L516.9,860z"/>
		<path class="st2" d="M512.2,860.7l-2.6,0.4l3.2,22.5l2.6-0.4L512.2,860.7z"/>
		<path class="st2" d="M529.7,858.2l-1.3,0.2l3.2,22.5l1.3-0.2L529.7,858.2z"/>
		<path class="st2" d="M532.4,857.8l-1.3,0.2l3.2,22.5l1.3-0.2L532.4,857.8z"/>
		<path class="st2" d="M545.2,856l-1.3,0.2l3.2,22.5l1.3-0.2L545.2,856z"/>
		<path class="st2" d="M550.1,855.3l-2.6,0.4l3.2,22.5l2.6-0.4L550.1,855.3z"/>
		<path class="st2" d="M538.3,857l-1.3,0.2l3.2,22.5l1.3-0.2L538.3,857z"/>
		<path class="st2" d="M541,856.7l-1.3,0.2l3.2,22.5l1.3-0.2L541,856.7z"/>
		<path class="st2" d="M535.5,857.8l-2.6,0.4l3.2,22.5l2.6-0.4L535.5,857.8z"/>
		<path class="st2" d="M554.5,855.2l-1.3,0.2l3.2,22.5l1.3-0.2L554.5,855.2z"/>
		<path class="st2" d="M567.9,853.3l-1.3,0.2l3.2,22.5l1.3-0.2L567.9,853.3z"/>
		<path class="st2" d="M571.4,852.3l-1.3,0.2l3.2,22.5l1.3-0.2L571.4,852.3z"/>
		<path class="st2" d="M574.6,851.9l-1.3,0.2l3.2,22.5l1.3-0.2L574.6,851.9z"/>
		<path class="st2" d="M581.6,850.9l-1.3,0.2l3.2,22.5l1.3-0.2L581.6,850.9z"/>
		<path class="st2" d="M583.5,851l-1.3,0.2l3.2,22.5l1.3-0.2L583.5,851z"/>
		<path class="st2" d="M560.3,853.8l-2.6,0.4l3.2,22.5l2.6-0.4L560.3,853.8z"/>
		<path class="st2" d="M597,848.6l-1.3,0.2l3.2,22.5l1.3-0.2L597,848.6z"/>
		<path class="st2" d="M601.9,848l-2.6,0.4l3.2,22.5l2.6-0.4L601.9,848z"/>
		<path class="st2" d="M566.7,853l-2.6,0.4l3.2,22.5l2.6-0.4L566.7,853z"/>
		<path class="st2" d="M578.8,851.7l-2.6,0.4l3.2,22.5l2.6-0.4L578.8,851.7z"/>
		<path class="st2" d="M590.1,849.7l-1.3,0.2l3.2,22.5l1.3-0.2L590.1,849.7z"/>
		<path class="st2" d="M592.8,849.3l-1.3,0.2l3.2,22.5l1.3-0.2L592.8,849.3z"/>
		<path class="st2" d="M588.1,849.9l-2.6,0.4l3.2,22.5l2.6-0.4L588.1,849.9z"/>
		<path class="st2" d="M428.9,287.3c-0.5,0-1.1-0.1-1.6-0.2c-0.7-0.2-1.4-0.5-2-1c-0.6-0.5-1.1-1-1.5-1.7c-0.4-0.7-0.6-1.4-0.7-2.1
			c-0.1-0.7,0-1.5,0.2-2.2c0.3-1.1,8.1-28,39.7-72c0.9-1.2,2.2-2.1,3.7-2.3c3.1-0.5,6.1,1.6,6.6,4.7c0.3,1.5-0.1,3.1-1,4.3
			c-30.3,42.1-37.9,68.1-38,68.4C433.7,285.6,431.5,287.3,428.9,287.3L428.9,287.3z"/>
		<path class="st1" d="M452.7,869.2l-16.5,2.3l-1-7l24.8-3.5l0.6,4.5c2.2,15.4-5.6,23.6-22.6,27.4l-1-7
			C448.6,883.2,453.9,877.8,452.7,869.2z M476.2,858.2l4,28.2l-8.3,1.2l-4-28.2L476.2,858.2z M483.4,909l-38.2,5.4l-2.9-20.4
			l38.2-5.4L483.4,909z M474.2,903.5l-1-6.7l-21.7,3.1l1,6.7L474.2,903.5z M489.6,867.2c-0.5-2.7,0.4-5.6,2.3-7.5
			c3.3-3.3,9.5-5,16.7-6c7.2-1,13.6-1.1,17.7,1.2c4.3,2.6,5.8,8.1,3.2,12.5c-0.3,0.6-0.7,1.1-1.2,1.6c-3.3,3.3-9.4,5-16.6,6.1
			s-13.6,1-17.7-1.3C491.5,872.4,489.9,870,489.6,867.2L489.6,867.2z M497.8,866.1c0.1,0.9,0.8,1.7,1.6,2c2,1.1,5.7,0.9,11.2,0.1
			s9.2-1.7,10.8-3.3c0.7-0.6,1.1-1.5,0.9-2.4c-0.1-1-0.7-1.8-1.6-2.2c-2-1-5.8-0.9-11.2-0.1s-9.1,1.7-10.8,3.2
			C498,864.1,497.6,865.1,497.8,866.1L497.8,866.1z M535.8,882.2l-45.4,6.5l-1-6.9l45.4-6.5L535.8,882.2z M494,891.7l8.3-1.2
			l1.2,8.4l31.8-4.5l1,6.9l-40.2,5.7L494,891.7z M540.6,857.1l-1-7l27.5-3.9l1,7l-9.6,1.4l1.6,11.2c2,14,7,17.6,13,19.3l1,7.3
			c-6-0.6-11.6-3.4-15.6-7.9c-2.6,5.5-7.2,9.8-12.8,12l-1-7.3c5.3-3.2,9.1-8.2,7.1-22.2l-1.6-11.2L540.6,857.1z M572.4,844.6
			l8.3-1.2l7.2,50.3l-8.3,1.2L572.4,844.6z"/>
	</g>
</g>
<g>
	<path class="st4" d="M574.9,765.8c0,0.2,0.1,0.4,0.1,0.6l-19.9,2.8c0.2-0.4,0.3-0.9,0.2-1.5c-2.9-20-6.8-39.7-11.8-59.2
		c-0.8-3.2-5.9-2.5-5.1,0.7c5,19.5,8.9,39.2,11.8,59.2c0.1,0.6,0.3,1,0.6,1.3l-110.7,15.6c0.4-0.4,0.6-1.1,0.5-1.8
		c-2.3-20.2-3.5-40.4-3.5-60.7c0-3.3-5.1-3.9-5.1-0.7c0,20.8,1.2,41.5,3.5,62.1c0.1,0.7,0.4,1.3,0.8,1.6l-21.3,3c0-0.2,0-0.4,0-0.6
		c-4.6-27.8-8.4-59.6,15.7-79.9c6-5.1,15.7-8.6,23.6-13.5c8.8,3.4,21.6-0.3,29.6-1.1c8-0.8,20.3-1.5,28.1-6.7
		c8.8,2.4,18.7,3.2,25.7,6.3C566.5,706.2,571.7,737.8,574.9,765.8z"/>
	<path class="st5" d="M437.1,722.9c0,20.3,1.2,40.6,3.5,60.7c0.1,0.7-0.1,1.3-0.5,1.8l-3.7,0.5c-0.4-0.4-0.8-0.9-0.8-1.6
		c-2.3-20.7-3.5-41.3-3.5-62.1C432,718.9,437.1,719.6,437.1,722.9z"/>
	<path class="st5" d="M543.5,708.5c5,19.5,8.9,39.2,11.8,59.2c0.1,0.6,0,1.1-0.2,1.5l-4.3,0.6c-0.3-0.3-0.5-0.8-0.6-1.3
		c-2.9-20-6.8-39.7-11.8-59.2C537.6,706.1,542.7,705.4,543.5,708.5z"/>
	<path class="st2" d="M592.1,704.9c-7.5,5-15.3,9-23.8,12.1c-2.9-5.9-6.6-11.4-11.4-16.3c-7.1-7.2-16.2-11.9-25.9-14.9
		c-4.2-1.3-9.5-1.9-14.7-2.9c0.4-0.6,0.8-1.1,1.1-1.8c3.4-6.6,2.1-15.5-4.2-19.3c0.9-0.8,1.8-1.6,2.7-2.4c7.5-7,13.2-15.9,16.1-26.1
		c0.8-2.7,1.4-5.5,1.9-8.3c11.9-2.7,21.5-12.9,20.5-26.7c-0.6-8.1-5.4-16.2-13.6-18.5c-1.1-0.3-2.1-0.4-3.2-0.5
		c-1.2-1.2-2.5-2-3.9-2.5c-0.6-4.6-1.3-9.3-2.1-13.8c-0.2-1.4-1.6-2.3-3-2.1l-0.1,0c-1.4,0.2-2.4,1.5-2.1,2.9c0,0.2,0.1,0.4,0.1,0.6
		c-15.5,3.2-32.1,0.1-47.2-3.9c-14.8-3.9-28.7-10.2-40.8-19.9c-0.9-0.7-1.8-0.7-2.6-0.3c-0.6,0.2-1.2,0.6-1.5,1.4
		c-7.5,16.5-20.8,28.7-37.8,35c-3.1,1.1-1.1,5.8,2,4.7c1-0.3,1.9-0.7,2.8-1.1c0.9,4.6,1.9,9.3,2.9,14.1c-2.5,0.7-4.7,2-6.2,4.3
		c-0.2,0.2-0.2,0.5-0.3,0.7c-0.4,0.2-0.7,0.4-1.1,0.6c-7.2,4.4-9.6,13.6-7.9,21.5c3.1,14.7,16.9,21.8,30.1,19.7
		c5.8,12,13.4,22.1,23.8,28.4c1.6,1,3.3,1.9,5.1,2.7c-4.1,5.9-4.4,14,1.2,19.5c-5,2.7-10.4,4.9-14.4,7.5
		c-8.5,5.5-15.9,12.6-20.7,21.4c-1.3,2.4-2.4,4.8-3.3,7.3c-5.6-0.1-11.1-1.1-16.2-3.3c-7.2-3-6.1-11.4-6.7-18.2
		c-0.9-9.6-1.8-19.2-2.7-28.8c-0.2-2.2-0.4-4.5-0.6-6.7c-2.1-22.1-4.3-44.3-5.1-66.5c-0.8-21-2.7-47.1,5.7-67
		c7.5-17.8,24.8-29.9,43.7-32.1c0.8,0.5,1.8,0.5,2.8-0.1c20.8-14.6,47.7-18.1,71.2-7.9c23.4,10.2,36.8,30.8,44.3,54.5
		c7.8,24.5,13.2,49.8,20.4,74.5c2.4,8.2,4.9,16.4,7.4,24.6C580.6,669,586.4,687,592.1,704.9z"/>
	<g>
		<path class="st2" d="M471.8,624c2.9,0.8,5.7,0.5,8.5-0.5c2.5-0.9,0.8-4.6-1.6-3.7c-1.4,0.5-2.8,0.6-4.2,0.5
			c1.1-5.2,1.6-10.5,1.5-15.9c-0.1-2.6-4.1-2-4,0.6c0.1,5.7-0.5,11.2-1.9,16.7C469.8,622.8,470.8,623.7,471.8,624z"/>
		<path class="st2" d="M436,607.3c1.8-1.5,4.2-2.9,6.7-3.5c-0.7,0.2-0.5,3.8-0.4,4.3c0.2,1.6,0.8,3.2,1.8,4.5c2,2.6,5.6,3.9,8.3,1.5
			c2-1.8,2.8-5,2.6-7.6c-0.3-3.4-2.4-6.6-5.9-7.4c-5.7-1.4-11.9,0.5-16.3,4.3C430.4,605.4,433.5,609.4,436,607.3z"/>
		<path class="st2" d="M510.4,592.3c-5.3-2.4-11.7-2.5-16.8,0.4c-3.1,1.8-4.3,5.4-3.6,8.8c0.5,2.6,2.2,5.4,4.6,6.6
			c3.3,1.6,6.4-0.7,7.5-3.7c0.6-1.5,0.8-3.2,0.5-4.8c-0.1-0.5-0.8-4.1-1.6-4c2.6-0.1,5.3,0.5,7.4,1.5
			C511.4,598.5,513.4,593.7,510.4,592.3z"/>
		<path class="st2" d="M597.4,704.9c-1.2-3.8-2.4-7.6-3.6-11.3c-4.6-14.4-9.2-28.8-13.6-43.2c-3.7-11.9-7.2-23.7-10.6-35.7
			c-7.9-27.5-12.2-58.1-25.1-83.8c-21.4-42.8-74.6-57.1-114.3-30.5c-0.2-0.1-0.5-0.1-0.8,0c-19.6,1.9-37.4,13.6-46.7,31
			c-11.2,21-9,49.4-8.2,72.4c0.8,25,3.4,49.9,5.7,74.8c0.3,3.4,0.7,6.8,1,10.2c0.7,7.9,1.5,15.8,2.2,23.7c0.3,3.9,0,9.3,2.4,12.7
			c4.4,6.1,15.4,7.7,23.5,8c-2.8,10-3.1,20.6-2.3,31.1c0.6,8.4,2,16.7,3.3,24.8c0,0.2,0.1,0.4,0.2,0.6c0.9,2.2,4.5,1.7,4.6-0.6
			c0-0.2,0-0.4,0-0.6c-1.3-8.1-2.6-16.4-3.2-24.8c-1.3-20.5,1.7-40.7,18.8-55.1c6-5.1,15.7-8.6,23.6-13.5c8.8,3.4,21.6-0.3,29.6-1.1
			c8-0.8,20.3-1.5,28.1-6.7c8.8,2.4,18.7,3.2,25.7,6.3c20.4,9.1,28.9,27.7,33.3,47.7c1.8,8.2,2.9,16.6,3.8,24.7
			c0,0.2,0.1,0.4,0.1,0.6c0.8,2.2,4.3,1.7,4.6-0.6c0-0.2,0-0.4,0-0.6c-0.9-8.1-1.9-16.5-3.6-24.7c-1.3-6.4-3.1-12.8-5.5-18.8
			c9.1-3.4,17.5-7.7,25.5-13.2c0.3-0.2,0.5-0.3,0.8-0.5C597.7,707.2,597.8,706,597.4,704.9z M514.7,582.2c-7.1-5-18-4.3-25.3-0.1
			c-4.6,2.6-7.4,6.5-8.7,11c-5.1-4.3-12.5-2.9-17.3,1.6c-5.9-9.6-20.1-9.9-29.2-5.1c-3.6,1.9-6.1,4.6-7.8,7.8
			c-4.3-1.7-11-3.7-16.9-3.6c-1.1-5.3-2.1-10.6-3.1-15.6c13.7-6.9,24.6-17.9,31.6-31.7c12,9.1,25.7,15.1,40.2,18.9
			c15.8,4.2,33.1,7.5,49.4,4c0.4,2.3,0.7,4.5,1.1,6.8C523.9,576.7,518.7,579.7,514.7,582.2z M516.6,590.6c3.6,7.8,1.1,17.2-5.7,22.4
			c-7.5,5.8-18.9,5.9-24-3.1c-4.2-7.3-5-17.9,2.7-23.1c0.1-0.1,0.2-0.2,0.4-0.3C498.5,581.8,511.8,580.1,516.6,590.6z M455.2,620.9
			c-7.5,5.8-18.9,5.9-24-3.1c-4.2-7.3-5-17.9,2.7-23.1c0.1-0.1,0.2-0.2,0.4-0.3c8.5-4.8,21.8-6.5,26.6,4
			C464.5,606.3,462,615.7,455.2,620.9z M534.8,584.4c2.9-0.5,5.9,0.1,8.5,2c4.8,3.5,6.7,10,6.1,15.7c-1,8.8-7,15.1-14.6,17.5
			C536.3,608.3,536,596.3,534.8,584.4z M395.3,623.9c-2.2-5.3-2.2-12,1.5-16.8c2.5-3.2,6.2-4.6,9.8-4.4c2.7,11.7,6.1,23.3,10.6,33.8
			C408.3,637.5,399.2,633.1,395.3,623.9z M410.3,597.1c5.3,0.1,11.3,2,14.8,3.4c-2.2,6.8-0.7,14.9,3.7,21.2c6.7,9.5,20.3,9,29,2.4
			c7.9-6.1,10.8-17.1,7.2-26.2c4-4.5,10.8-6.1,14.9-0.7c-0.5,5.7,1.1,11.8,4.6,16.7c6.7,9.5,20.3,9,29,2.4
			c8.8-6.8,11.5-19.7,5.7-29.2c-0.5-0.9-1.2-1.7-1.9-2.5c3.2-2,7.8-4.7,11.9-5.1c4.1,32,1.4,64.4-21.3,81.1c-7,5.2-16,8.8-27.2,10.5
			c-11.3,1.7-20.7,0.6-28.7-2.6C427,658.3,416.8,627.1,410.3,597.1z M510.8,681.5c-1.6,1.3-3.8,2.3-5.8,3c-1,0.4-1.9,0.7-2.7,1
			c-6.1,2-12.7,2.6-19,3.2c-5.7,0.6-11.4,1.3-17.1,1.8c-2,0.2-4.2,0.5-6.4,0.4c-1.4-0.1-2.8-0.3-4-0.9c-0.6-0.3-1.1-0.6-1.6-1
			c-4.6-3.5-4.8-10.4-1-14.8c8,2.6,17.3,3.4,28.2,1.8c9.9-1.5,19.3-5.2,27.3-10.8c0,0,0,0,0.1,0c5.5,1.7,6.8,10.1,3.6,14.6
			C512,680.5,511.4,681,510.8,681.5z"/>
		<path class="st2" d="M430.1,586.3c5.3-3.9,11.6-7.1,18.2-4.5c3.1,1.2,5-3.5,1.9-4.7c-8.4-3.4-16.5,0.1-23.4,5.2
			C424.3,584.2,427.5,588.2,430.1,586.3z"/>
		<path class="st2" d="M486.9,579.3c4.9-3.5,11-4.7,16.8-2.9c3.1,0.9,5.1-3.8,1.9-4.7c-7.7-2.3-15.4-1-21.9,3.7
			C481,577.2,484.2,581.2,486.9,579.3z"/>
		<path class="st2" d="M479.4,644.5c6.1-1,10.4-5.5,11.4-11.6c0.5-3.3-4.5-3.9-5.1-0.7c-0.6,3.8-3.2,6.5-7,7.1
			c-4.5,0.7-6.9-1.6-8.5-5.6c-1.3-3-6-1-4.7,2C468.1,642,472.5,645.6,479.4,644.5z"/>
		<path class="st2" d="M437.1,722.9c0,20.3,1.2,40.6,3.5,60.7c0.1,0.7-0.1,1.3-0.5,1.8c-0.9,1.2-2.7,1.4-3.7,0.5
			c-0.4-0.4-0.8-0.9-0.8-1.6c-2.3-20.7-3.5-41.3-3.5-62.1C432,718.9,437.1,719.6,437.1,722.9z"/>
		<path class="st2" d="M555.3,767.7c0.1,0.6,0,1.1-0.2,1.5c-0.7,1.5-3.1,1.9-4.3,0.6c-0.3-0.3-0.5-0.8-0.6-1.3
			c-2.9-20-6.8-39.7-11.8-59.2c-0.8-3.2,4.3-3.9,5.1-0.7C548.5,728.1,552.4,747.8,555.3,767.7z"/>
	</g>
</g>
</svg>
